<svg xmlns="http://www.w3.org/2000/svg" xmlns:xlink="http://www.w3.org/1999/xlink" width="113" height="113" viewBox="0 0 113 113">
  <defs>
    <filter id="Path_982547" x="0" y="0" width="113" height="113" filterUnits="userSpaceOnUse">
      <feOffset dy="3" input="SourceAlpha"/>
      <feGaussianBlur stdDeviation="3" result="blur"/>
      <feFlood flood-opacity="0.161"/>
      <feComposite operator="in" in2="blur"/>
      <feComposite in="SourceGraphic"/>
    </filter>
  </defs>
  <g id="Group_1202153" data-name="Group 1202153" transform="translate(-901.25 -2276.704)">
    <g id="Group_1201941" data-name="Group 1201941">
      <g id="Group_1201896" data-name="Group 1201896" transform="translate(-0.25 -364.62)">
        <g id="Group_1201682" data-name="Group 1201682" transform="translate(630.5 1726.825)">
          <g id="Group_1201330" data-name="Group 1201330" transform="translate(280 920.5)">
            <g id="Group_1172010" data-name="Group 1172010">
              <g id="Group_1171046" data-name="Group 1171046">
                <g id="Group_1148525" data-name="Group 1148525">
                  <g transform="matrix(1, 0, 0, 1, -9, -6)" filter="url(#Path_982547)">
                    <g id="Path_982547-2" data-name="Path 982547" transform="translate(9 6)" fill="#fdfbec">
                      <path d="M 47.5 93.5 C 41.28937149047852 93.5 35.26533508300781 92.28397369384766 29.59518623352051 89.88570404052734 C 24.11771965026855 87.56893157958984 19.19813346862793 84.25196075439453 14.97309303283691 80.02691650390625 C 10.74804019927979 75.80186462402344 7.431066513061523 70.88229370117188 5.114293098449707 65.40481567382812 C 2.716026782989502 59.73468017578125 1.5 53.71062850952148 1.5 47.5 C 1.5 41.28937149047852 2.716026782989502 35.26533508300781 5.114293098449707 29.59518623352051 C 7.431066513061523 24.11771965026855 10.74804019927979 19.19813346862793 14.97309303283691 14.97309303283691 C 19.19813346862793 10.74804019927979 24.11771965026855 7.431066513061523 29.59518623352051 5.114293098449707 C 35.26533508300781 2.716026782989502 41.28937149047852 1.5 47.5 1.5 C 53.71062850952148 1.5 59.73468017578125 2.716026782989502 65.40481567382812 5.114293098449707 C 70.88229370117188 7.431066513061523 75.80186462402344 10.74804019927979 80.02691650390625 14.97309303283691 C 84.25196075439453 19.19813346862793 87.56893157958984 24.11771965026855 89.88570404052734 29.59518623352051 C 92.28397369384766 35.26533508300781 93.5 41.28937149047852 93.5 47.5 C 93.5 53.71062850952148 92.28397369384766 59.73468017578125 89.88570404052734 65.40481567382812 C 87.56893157958984 70.88229370117188 84.25196075439453 75.80186462402344 80.02691650390625 80.02691650390625 C 75.80186462402344 84.25196075439453 70.88229370117188 87.56893157958984 65.40481567382812 89.88570404052734 C 59.73468017578125 92.28397369384766 53.71062850952148 93.5 47.5 93.5 Z" stroke="none"/>
                      <path d="M 47.5 3 C 41.49121475219727 3 35.66376876831055 4.176155090332031 30.17950439453125 6.495796203613281 C 24.88084411621094 8.736953735351562 20.12152099609375 11.94598388671875 16.03375244140625 16.03375244140625 C 11.94598388671875 20.12152099609375 8.736953735351562 24.88084411621094 6.495796203613281 30.17950439453125 C 4.176155090332031 35.66376876831055 3 41.49121475219727 3 47.5 C 3 53.50878524780273 4.176155090332031 59.33623123168945 6.495796203613281 64.82049560546875 C 8.736953735351562 70.11915588378906 11.94598388671875 74.87847900390625 16.03375244140625 78.96624755859375 C 20.12152099609375 83.05401611328125 24.88084411621094 86.26304626464844 30.17950439453125 88.50419616699219 C 35.66376876831055 90.82384490966797 41.49121475219727 92 47.5 92 C 53.50878524780273 92 59.33623123168945 90.82384490966797 64.82049560546875 88.50419616699219 C 70.11915588378906 86.26304626464844 74.87847900390625 83.05401611328125 78.96624755859375 78.96624755859375 C 83.05401611328125 74.87847900390625 86.26304626464844 70.11915588378906 88.50419616699219 64.82049560546875 C 90.82384490966797 59.33623123168945 92 53.50878524780273 92 47.5 C 92 41.49121475219727 90.82384490966797 35.66376876831055 88.50419616699219 30.17950439453125 C 86.26304626464844 24.88084411621094 83.05401611328125 20.12152099609375 78.96624755859375 16.03375244140625 C 74.87847900390625 11.94598388671875 70.11915588378906 8.736953735351562 64.82049560546875 6.495796203613281 C 59.33623123168945 4.176155090332031 53.50878524780273 3 47.5 3 M 47.5 0 C 73.7335205078125 0 95 21.2664794921875 95 47.5 C 95 73.7335205078125 73.7335205078125 95 47.5 95 C 21.2664794921875 95 0 73.7335205078125 0 47.5 C 0 21.2664794921875 21.2664794921875 0 47.5 0 Z" stroke="none" fill="#83793c"/>
                    </g>
                  </g>
                </g>
              </g>
            </g>
          </g>
        </g>
      </g>
      <g id="Group_1201940" data-name="Group 1201940">
        <g id="_x34__Rank" transform="translate(925.987 2280.068)">
          <g id="XMLID_4422_" transform="translate(0.24 19.319)">
            <g id="XMLID_4450_" transform="translate(0 0)">
              <g id="XMLID_815_">
                <g id="XMLID_115_" transform="translate(12.908 1.237)">
                  <g id="XMLID_125_" transform="translate(24.207)">
                    <path id="XMLID_788_" d="M314.413,34.483l-3.554,3.463.839,4.89-4.393-2.309-4.391,2.309.839-4.89L300.2,34.483l4.911-.714,2.2-4.45,2.2,4.45Z" transform="translate(-300.2 -29.32)" fill="#fc1b70"/>
                  </g>
                  <g id="XMLID_124_" transform="translate(24.819 26.07)">
                    <path id="XMLID_786_" d="M305.14,240.01h12.4v4.946h-12.4Z" transform="translate(-305.14 -240.01)" fill="#79cdff"/>
                  </g>
                  <g id="XMLID_123_" transform="translate(24.81 19.857)">
                    <path id="XMLID_783_" d="M305.079,196.013v4.946h-.009V189.8h12.412v6.213Z" transform="translate(-305.07 -189.8)" fill="#79cdff"/>
                  </g>
                  <g id="XMLID_122_" transform="translate(24.81 31.015)">
                    <path id="XMLID_781_" d="M305.079,284.924V279.98h12.4v24.834H305.07V284.924Z" transform="translate(-305.07 -279.98)" fill="#79cdff"/>
                  </g>
                  <g id="XMLID_121_" transform="translate(12.411 31.015)">
                    <path id="XMLID_779_" d="M217.259,279.98v4.944h-12.4V279.98Z" transform="translate(-204.86 -279.98)" fill="#535598"/>
                  </g>
                  <g id="XMLID_120_" transform="translate(12.399 24.834)">
                    <path id="XMLID_777_" d="M217.181,230.02V236.2h-12.4v-1.236h-.011V230.02Z" transform="translate(-204.77 -230.02)" fill="#6767a9"/>
                  </g>
                  <g id="XMLID_119_" transform="translate(12.411 35.96)">
                    <path id="XMLID_775_" d="M204.869,324.884V319.94h12.391v19.889h-12.4V324.884Z" transform="translate(-204.86 -319.94)" fill="#6767a9"/>
                  </g>
                  <g id="XMLID_118_" transform="translate(0.007 35.96)">
                    <path id="XMLID_773_" d="M104.62,319.94h12.392v4.944H104.62Z" transform="translate(-104.62 -319.94)" fill="#ffb144"/>
                  </g>
                  <g id="XMLID_117_" transform="translate(0 29.779)">
                    <path id="XMLID_771_" d="M104.567,276.171v4.944h-.007V269.99h12.4v6.181Z" transform="translate(-104.56 -269.99)" fill="#ffcf57"/>
                  </g>
                  <g id="XMLID_116_" transform="translate(0 40.904)">
                    <path id="XMLID_769_" d="M104.567,359.9h12.392v14.945h-12.4V359.9Z" transform="translate(-104.56 -359.9)" fill="#ffcf57"/>
                  </g>
                </g>
                <g id="XMLID_97_">
                  <g id="XMLID_114_" transform="translate(48.893 55.849)">
                    <path id="XMLID_706_" d="M408.3,473.155H396.617a1.237,1.237,0,1,1,0-2.475H408.3a1.237,1.237,0,0,1,0,2.475Z" transform="translate(-395.38 -470.68)"/>
                  </g>
                  <g id="XMLID_113_" transform="translate(0 55.849)">
                    <path id="XMLID_705_" d="M13.148,473.155H1.477a1.237,1.237,0,0,1,0-2.475H13.148a1.237,1.237,0,0,1,0,2.475Z" transform="translate(-0.24 -470.68)"/>
                  </g>
                  <g id="XMLID_112_" transform="translate(24.07 24.834)">
                    <path id="XMLID_704_" d="M196.007,253.51a1.237,1.237,0,0,1-1.237-1.237V221.257a1.237,1.237,0,0,1,1.237-1.237h12.411a1.237,1.237,0,0,1,0,2.475H197.245v29.778A1.237,1.237,0,0,1,196.007,253.51Z" transform="translate(-194.77 -220.02)"/>
                  </g>
                  <g id="XMLID_111_" transform="translate(24.081 55.849)">
                    <path id="XMLID_703_" d="M208.5,473.155H196.1a1.237,1.237,0,1,1,0-2.475h12.4a1.237,1.237,0,1,1,0,2.475Z" transform="translate(-194.86 -470.68)"/>
                  </g>
                  <g id="XMLID_110_" transform="translate(36.481 19.857)">
                    <path id="XMLID_700_" d="M308.719,218.267H296.307a1.237,1.237,0,0,1-1.237-1.237V181.037a1.237,1.237,0,0,1,1.237-1.237h12.412a1.237,1.237,0,0,1,1.237,1.237v35.992A1.237,1.237,0,0,1,308.719,218.267Zm-11.174-2.475h9.937V182.275h-9.937Z" transform="translate(-295.07 -179.8)"/>
                  </g>
                  <g id="XMLID_109_" transform="translate(11.671 29.779)">
                    <path id="XMLID_695_" d="M108.208,288.534H95.8A1.237,1.237,0,0,1,94.56,287.3v-26.07A1.237,1.237,0,0,1,95.8,259.99h12.4a1.247,1.247,0,0,1,1.248,1.237V287.3A1.237,1.237,0,0,1,108.208,288.534ZM97.035,286.06h9.936V262.465H97.035Z" transform="translate(-94.56 -259.99)"/>
                  </g>
                  <g id="XMLID_108_" transform="translate(24.078 31.015)">
                    <path id="XMLID_692_" d="M208.479,277.4H196.067a1.237,1.237,0,0,1-1.237-1.237v-4.944a1.237,1.237,0,0,1,1.237-1.237h12.4a1.245,1.245,0,0,1,1.246,1.237v4.944A1.237,1.237,0,0,1,208.479,277.4ZM197.3,274.924h9.937v-2.47H197.3Z" transform="translate(-194.83 -269.98)"/>
                  </g>
                  <g id="XMLID_105_" transform="translate(11.678 35.96)">
                    <path id="XMLID_689_" d="M108.269,317.359H95.857a1.237,1.237,0,0,1-1.237-1.237v-4.944a1.237,1.237,0,0,1,1.237-1.237h12.392a1.254,1.254,0,0,1,1.257,1.237v4.944A1.237,1.237,0,0,1,108.269,317.359Zm-11.174-2.475h9.937v-2.47H97.095Z" transform="translate(-94.62 -309.94)"/>
                  </g>
                  <g id="XMLID_101_" transform="translate(36.489 26.07)">
                    <path id="XMLID_686_" d="M308.788,237.43H296.377a1.237,1.237,0,0,1-1.237-1.237v-4.946a1.237,1.237,0,0,1,1.237-1.237h12.411a1.237,1.237,0,0,1,1.237,1.237v4.946A1.237,1.237,0,0,1,308.788,237.43Zm-11.173-2.475h9.936v-2.471h-9.936Z" transform="translate(-295.14 -230.01)"/>
                  </g>
                  <g id="XMLID_100_" transform="translate(35.878)">
                    <path id="XMLID_683_" d="M302.936,35.311a1.235,1.235,0,0,1-.575-.142l-3.817-2.006-3.816,2.006a1.237,1.237,0,0,1-1.8-1.3l.729-4.249-3.088-3.009a1.237,1.237,0,0,1,.686-2.111l4.267-.62,1.907-3.866a1.237,1.237,0,0,1,2.219,0l1.908,3.866,4.267.62a1.237,1.237,0,0,1,.686,2.111l-3.088,3.009.729,4.249a1.238,1.238,0,0,1-1.22,1.447Zm-4.392-4.784a1.237,1.237,0,0,1,.576.142l2.173,1.142-.415-2.419a1.238,1.238,0,0,1,.356-1.1l1.758-1.713-2.43-.353a1.237,1.237,0,0,1-.931-.677l-1.086-2.2-1.086,2.2a1.237,1.237,0,0,1-.932.677l-2.43.353,1.758,1.713a1.238,1.238,0,0,1,.356,1.1l-.415,2.419,2.172-1.142A1.235,1.235,0,0,1,298.544,30.527Z" transform="translate(-290.2 -19.319)"/>
                  </g>
                  <g id="XMLID_99_" transform="translate(26.52 10)">
                    <path id="XMLID_682_" d="M217.716,110.03a1.238,1.238,0,0,1-1.159-1.669l1.514-4.066-2.932-1.877a1.237,1.237,0,0,1,1.334-2.084l3.773,2.415a1.237,1.237,0,0,1,.492,1.474l-1.862,5A1.238,1.238,0,0,1,217.716,110.03Z" transform="translate(-214.569 -100.138)"/>
                  </g>
                  <g id="XMLID_98_" transform="translate(5.861 12.415)">
                    <path id="XMLID_681_" d="M59.055,132.079H48.847a1.237,1.237,0,0,1,0-2.475H58.5l5.811-6.542a1.237,1.237,0,0,1,.494-.338l8.043-2.988a1.237,1.237,0,0,1,.862,2.32l-7.754,2.881-5.976,6.727a1.237,1.237,0,0,1-.925.416Z" transform="translate(-47.61 -119.658)"/>
                  </g>
                </g>
              </g>
            </g>
          </g>
        </g>
      </g>
    </g>
  </g>
</svg>
