<svg xmlns="http://www.w3.org/2000/svg" xmlns:xlink="http://www.w3.org/1999/xlink" width="113" height="113" viewBox="0 0 113 113">
  <defs>
    <filter id="Path_982547" x="0" y="0" width="113" height="113" filterUnits="userSpaceOnUse">
      <feOffset dy="3" input="SourceAlpha"/>
      <feGaussianBlur stdDeviation="3" result="blur"/>
      <feFlood flood-opacity="0.161"/>
      <feComposite operator="in" in2="blur"/>
      <feComposite in="SourceGraphic"/>
    </filter>
  </defs>
  <g id="Group_1202182" data-name="Group 1202182" transform="translate(-826.5 -5656)">
    <g id="Group_1202089" data-name="Group 1202089">
      <g id="Group_1201922" data-name="Group 1201922" transform="translate(835.5 5662)">
        <g id="Group_1201680" data-name="Group 1201680">
          <g id="Group_1201330" data-name="Group 1201330">
            <g id="Group_1172010" data-name="Group 1172010">
              <g id="Group_1171046" data-name="Group 1171046">
                <g id="Group_1148525" data-name="Group 1148525">
                  <g transform="matrix(1, 0, 0, 1, -9, -6)" filter="url(#Path_982547)">
                    <g id="Path_982547-2" data-name="Path 982547" transform="translate(9 6)" fill="#fdfbec">
                      <path d="M 47.5 93.5 C 41.28937149047852 93.5 35.26533508300781 92.28397369384766 29.59518623352051 89.88570404052734 C 24.11771965026855 87.56893157958984 19.19813346862793 84.25196075439453 14.97309303283691 80.02691650390625 C 10.74804019927979 75.80186462402344 7.431066513061523 70.88229370117188 5.114293098449707 65.40481567382812 C 2.716026782989502 59.73468017578125 1.5 53.71062850952148 1.5 47.5 C 1.5 41.28937149047852 2.716026782989502 35.26533508300781 5.114293098449707 29.59518623352051 C 7.431066513061523 24.11771965026855 10.74804019927979 19.19813346862793 14.97309303283691 14.97309303283691 C 19.19813346862793 10.74804019927979 24.11771965026855 7.431066513061523 29.59518623352051 5.114293098449707 C 35.26533508300781 2.716026782989502 41.28937149047852 1.5 47.5 1.5 C 53.71062850952148 1.5 59.73468017578125 2.716026782989502 65.40481567382812 5.114293098449707 C 70.88229370117188 7.431066513061523 75.80186462402344 10.74804019927979 80.02691650390625 14.97309303283691 C 84.25196075439453 19.19813346862793 87.56893157958984 24.11771965026855 89.88570404052734 29.59518623352051 C 92.28397369384766 35.26533508300781 93.5 41.28937149047852 93.5 47.5 C 93.5 53.71062850952148 92.28397369384766 59.73468017578125 89.88570404052734 65.40481567382812 C 87.56893157958984 70.88229370117188 84.25196075439453 75.80186462402344 80.02691650390625 80.02691650390625 C 75.80186462402344 84.25196075439453 70.88229370117188 87.56893157958984 65.40481567382812 89.88570404052734 C 59.73468017578125 92.28397369384766 53.71062850952148 93.5 47.5 93.5 Z" stroke="none"/>
                      <path d="M 47.5 3 C 41.49121475219727 3 35.66376876831055 4.176155090332031 30.17950439453125 6.495796203613281 C 24.88084411621094 8.736953735351562 20.12152099609375 11.94598388671875 16.03375244140625 16.03375244140625 C 11.94598388671875 20.12152099609375 8.736953735351562 24.88084411621094 6.495796203613281 30.17950439453125 C 4.176155090332031 35.66376876831055 3 41.49121475219727 3 47.5 C 3 53.50878524780273 4.176155090332031 59.33623123168945 6.495796203613281 64.82049560546875 C 8.736953735351562 70.11915588378906 11.94598388671875 74.87847900390625 16.03375244140625 78.96624755859375 C 20.12152099609375 83.05401611328125 24.88084411621094 86.26304626464844 30.17950439453125 88.50419616699219 C 35.66376876831055 90.82384490966797 41.49121475219727 92 47.5 92 C 53.50878524780273 92 59.33623123168945 90.82384490966797 64.82049560546875 88.50419616699219 C 70.11915588378906 86.26304626464844 74.87847900390625 83.05401611328125 78.96624755859375 78.96624755859375 C 83.05401611328125 74.87847900390625 86.26304626464844 70.11915588378906 88.50419616699219 64.82049560546875 C 90.82384490966797 59.33623123168945 92 53.50878524780273 92 47.5 C 92 41.49121475219727 90.82384490966797 35.66376876831055 88.50419616699219 30.17950439453125 C 86.26304626464844 24.88084411621094 83.05401611328125 20.12152099609375 78.96624755859375 16.03375244140625 C 74.87847900390625 11.94598388671875 70.11915588378906 8.736953735351562 64.82049560546875 6.495796203613281 C 59.33623123168945 4.176155090332031 53.50878524780273 3 47.5 3 M 47.5 0 C 73.7335205078125 0 95 21.2664794921875 95 47.5 C 95 73.7335205078125 73.7335205078125 95 47.5 95 C 21.2664794921875 95 0 73.7335205078125 0 47.5 C 0 21.2664794921875 21.2664794921875 0 47.5 0 Z" stroke="none" fill="#83793c"/>
                    </g>
                  </g>
                </g>
              </g>
            </g>
          </g>
        </g>
      </g>
      <g id="theory_14463151_1_" data-name="theory_14463151 (1)" transform="translate(837.823 5643.218)">
        <g id="Group_1202088" data-name="Group 1202088" transform="translate(14.724 43.374)">
          <path id="Path_1047238" data-name="Path 1047238" d="M108.661,234.023h50.083a.9.9,0,0,1,.891.891v29.322a.9.9,0,0,1-.891.891H108.661a.9.9,0,0,1-.891-.891V234.914A.9.9,0,0,1,108.661,234.023Z" transform="translate(-101.148 -214.555)" fill="#df8a57" fill-rule="evenodd"/>
          <path id="Path_1047239" data-name="Path 1047239" d="M319.994,195.84H305.919a5.241,5.241,0,0,0-5.336,5.109v30.285c2.5-4.142,4.745-5.264,19.411-5.264Z" transform="translate(-268.163 -181.481)" fill="#c9c7c7" fill-rule="evenodd"/>
          <path id="Path_1047240" data-name="Path 1047240" d="M155.477,195.84h14.075a5.244,5.244,0,0,1,5.34,5.109v30.285c-2.5-4.142-4.749-5.264-19.415-5.264Z" transform="translate(-142.472 -181.481)" fill="#e6e6e6" fill-rule="evenodd"/>
          <path id="Path_1047241" data-name="Path 1047241" d="M72.621,109.665c.247-1.415.891-2.355,2.564-3.963a9.986,9.986,0,1,0-13.843,0c1.669,1.608,2.314,2.549,2.564,3.963h8.716Z" transform="translate(-58.277 -88.521)" fill="#ffe177" fill-rule="evenodd"/>
          <path id="Path_1047242" data-name="Path 1047242" d="M110.678,273.367h-1.7a2.716,2.716,0,1,0,0,5.431h1.7a2.716,2.716,0,1,0,0-5.431Z" transform="translate(-99.846 -248.635)" fill="#bdbdbd" fill-rule="evenodd"/>
          <path id="Path_1047243" data-name="Path 1047243" d="M102.127,262.6H94.951a1.718,1.718,0,1,0,0,3.436h7.176a1.718,1.718,0,0,0,0-3.436Z" transform="translate(-88.552 -239.305)" fill="#c9c7c7" fill-rule="evenodd"/>
          <path id="Path_1047244" data-name="Path 1047244" d="M341.42,232.18h4.965a.448.448,0,0,1,.448.448V237.2a.448.448,0,0,1-.448.448H341.42a.448.448,0,0,1-.444-.448v-4.574A.448.448,0,0,1,341.42,232.18Z" transform="translate(-303.151 -212.959)" fill="#e6e6e6" fill-rule="evenodd"/>
          <path id="Path_1047245" data-name="Path 1047245" d="M101.383,236.885H93.926a1.72,1.72,0,0,0,0,3.44h7.456a1.72,1.72,0,0,0,0-3.44Z" transform="translate(-87.668 -217.034)" fill="#e8ecf9" fill-rule="evenodd"/>
        </g>
        <path id="Path_1047246" data-name="Path 1047246" d="M72.377,61H67.71V57.88a1.071,1.071,0,0,0-1.071-1.071H52.563a6.475,6.475,0,0,0-5.34,2.764,6.47,6.47,0,0,0-5.337-2.764H35.35a11.059,11.059,0,1,0-21.615-3.3,10.974,10.974,0,0,0,3.39,7.968,10.824,10.824,0,0,1,1.71,1.943,2.773,2.773,0,0,0,.106,3.484,2.781,2.781,0,0,0,1.143,4.183V93.179a1.99,1.99,0,0,0,1.989,1.985h50.3a1.988,1.988,0,0,0,1.985-1.985V62.989A1.988,1.988,0,0,0,72.377,61ZM52.563,58.952h13V86.94c-10.734.044-14.749.777-17.272,3.177V62.989A4.163,4.163,0,0,1,52.563,58.952Zm-10.676,0a4.16,4.16,0,0,1,4.265,4.037V90.116c-2.521-2.4-6.538-3.132-17.272-3.176V72.964c0-.011,0-.021,0-.031a3.761,3.761,0,0,0,.544-1.816A2.781,2.781,0,0,0,30.641,66.9a2.776,2.776,0,0,0,.106-3.484,10.985,10.985,0,0,1,1.71-1.944,11.1,11.1,0,0,0,1.962-2.523h7.468ZM21.065,65.741a.649.649,0,1,1,0-1.3h7.456a.649.649,0,0,1,0,1.3Zm.137,2.143h7.18a.647.647,0,0,1,0,1.293H21.2a.647.647,0,1,1,0-1.293Zm6.044,3.436a1.647,1.647,0,0,1-1.607,1.3h-1.7a1.647,1.647,0,0,1-1.607-1.3ZM15.878,53.507a8.913,8.913,0,1,1,16.96,3.846,1.057,1.057,0,0,0-.058.117,8.918,8.918,0,0,1-1.809,2.459,12.68,12.68,0,0,0-2.07,2.4,2.782,2.782,0,0,0-.38-.029H25.865v-5L29.753,53.4a1.071,1.071,0,1,0-1.516-1.515l-3.445,3.448-3.448-3.448A1.071,1.071,0,0,0,19.829,53.4L23.722,57.3v5H21.065a2.8,2.8,0,0,0-.383.029,12.521,12.521,0,0,0-2.071-2.4,8.848,8.848,0,0,1-2.733-6.423Zm6.349,20.839a3.761,3.761,0,0,0,1.716.413h1.7a3.774,3.774,0,0,0,1.1-.163V88.01a1.071,1.071,0,0,0,1.071,1.071c13.686,0,16.047,1.032,17.99,3.941H22.227V74.347ZM72.219,93.022H48.649c1.947-2.909,4.309-3.941,17.99-3.941A1.071,1.071,0,0,0,67.71,88.01V63.146h4.51Zm-48.5-52.6V37.472a1.071,1.071,0,1,1,2.143,0v2.947a1.071,1.071,0,0,1-2.143,0Zm9.959,4.755a1.071,1.071,0,0,1,0-1.515l2.086-2.086a1.071,1.071,0,0,1,1.515,1.515L35.2,45.174a1.071,1.071,0,0,1-1.515,0ZM12.316,43.1a1.071,1.071,0,0,1,1.515-1.515L15.9,43.658a1.071,1.071,0,1,1-1.515,1.515L12.316,43.1Zm.646,10.958a1.071,1.071,0,0,1-1.071,1.071H9.068a1.071,1.071,0,1,1,0-2.143H11.89a1.071,1.071,0,0,1,1.071,1.071Zm24.886-1.071h2.822a1.071,1.071,0,1,1,0,2.143H37.848a1.071,1.071,0,1,1,0-2.143Zm16.6,16.294h4.965a1.521,1.521,0,0,0,1.519-1.519V63.19a1.521,1.521,0,0,0-1.519-1.519H54.448a1.521,1.521,0,0,0-1.519,1.519v4.574A1.521,1.521,0,0,0,54.448,69.283Zm.624-5.469h3.717V67.14H55.072Zm-3.516,9.013a1.071,1.071,0,0,1,1.071-1.071h8.606a1.071,1.071,0,0,1,0,2.143H52.628A1.071,1.071,0,0,1,51.556,72.827Zm0,4.616a1.071,1.071,0,0,1,1.071-1.071h8.606a1.071,1.071,0,0,1,0,2.143H52.628A1.071,1.071,0,0,1,51.556,77.443Zm0,4.619a1.071,1.071,0,0,1,1.071-1.071h8.606a1.071,1.071,0,0,1,0,2.143H52.628A1.071,1.071,0,0,1,51.556,82.062ZM42.89,72.827A1.071,1.071,0,0,1,41.819,73.9H33.213a1.071,1.071,0,0,1,0-2.143h8.606A1.071,1.071,0,0,1,42.89,72.827Zm0,4.616a1.071,1.071,0,0,1-1.071,1.071H33.213a1.071,1.071,0,1,1,0-2.143h8.606A1.071,1.071,0,0,1,42.89,77.443Zm0,4.616a1.071,1.071,0,0,1-1.071,1.071H33.213a1.071,1.071,0,1,1,0-2.143h8.606A1.071,1.071,0,0,1,42.89,82.059Zm0-13.847a1.071,1.071,0,0,1-1.071,1.071H33.213a1.071,1.071,0,1,1,0-2.143h8.606A1.071,1.071,0,0,1,42.89,68.211Zm-9.677-5.687h8.606a1.071,1.071,0,1,1,0,2.143H33.213a1.071,1.071,0,0,1,0-2.143Z" transform="translate(0 0)"/>
      </g>
    </g>
  </g>
</svg>
