<svg xmlns="http://www.w3.org/2000/svg" xmlns:xlink="http://www.w3.org/1999/xlink" width="113" height="113" viewBox="0 0 113 113">
  <defs>
    <filter id="Path_982547" x="0" y="0" width="113" height="113" filterUnits="userSpaceOnUse">
      <feOffset dy="3" input="SourceAlpha"/>
      <feGaussianBlur stdDeviation="3" result="blur"/>
      <feFlood flood-opacity="0.161"/>
      <feComposite operator="in" in2="blur"/>
      <feComposite in="SourceGraphic"/>
    </filter>
  </defs>
  <g id="Group_1202152" data-name="Group 1202152" transform="translate(-586.25 -2276.704)">
    <g id="Group_1201939" data-name="Group 1201939">
      <g id="Group_1201895" data-name="Group 1201895" transform="translate(-0.25 -364.62)">
        <g id="Group_1201681" data-name="Group 1201681" transform="translate(315.5 1726.825)">
          <g id="Group_1201330" data-name="Group 1201330" transform="translate(280 920.5)">
            <g id="Group_1172010" data-name="Group 1172010">
              <g id="Group_1171046" data-name="Group 1171046">
                <g id="Group_1148525" data-name="Group 1148525">
                  <g transform="matrix(1, 0, 0, 1, -9, -6)" filter="url(#Path_982547)">
                    <g id="Path_982547-2" data-name="Path 982547" transform="translate(9 6)" fill="#fdfbec">
                      <path d="M 47.5 93.5 C 41.28937149047852 93.5 35.26533508300781 92.28397369384766 29.59518623352051 89.88570404052734 C 24.11771965026855 87.56893157958984 19.19813346862793 84.25196075439453 14.97309303283691 80.02691650390625 C 10.74804019927979 75.80186462402344 7.431066513061523 70.88229370117188 5.114293098449707 65.40481567382812 C 2.716026782989502 59.73468017578125 1.5 53.71062850952148 1.5 47.5 C 1.5 41.28937149047852 2.716026782989502 35.26533508300781 5.114293098449707 29.59518623352051 C 7.431066513061523 24.11771965026855 10.74804019927979 19.19813346862793 14.97309303283691 14.97309303283691 C 19.19813346862793 10.74804019927979 24.11771965026855 7.431066513061523 29.59518623352051 5.114293098449707 C 35.26533508300781 2.716026782989502 41.28937149047852 1.5 47.5 1.5 C 53.71062850952148 1.5 59.73468017578125 2.716026782989502 65.40481567382812 5.114293098449707 C 70.88229370117188 7.431066513061523 75.80186462402344 10.74804019927979 80.02691650390625 14.97309303283691 C 84.25196075439453 19.19813346862793 87.56893157958984 24.11771965026855 89.88570404052734 29.59518623352051 C 92.28397369384766 35.26533508300781 93.5 41.28937149047852 93.5 47.5 C 93.5 53.71062850952148 92.28397369384766 59.73468017578125 89.88570404052734 65.40481567382812 C 87.56893157958984 70.88229370117188 84.25196075439453 75.80186462402344 80.02691650390625 80.02691650390625 C 75.80186462402344 84.25196075439453 70.88229370117188 87.56893157958984 65.40481567382812 89.88570404052734 C 59.73468017578125 92.28397369384766 53.71062850952148 93.5 47.5 93.5 Z" stroke="none"/>
                      <path d="M 47.5 3 C 41.49121475219727 3 35.66376876831055 4.176155090332031 30.17950439453125 6.495796203613281 C 24.88084411621094 8.736953735351562 20.12152099609375 11.94598388671875 16.03375244140625 16.03375244140625 C 11.94598388671875 20.12152099609375 8.736953735351562 24.88084411621094 6.495796203613281 30.17950439453125 C 4.176155090332031 35.66376876831055 3 41.49121475219727 3 47.5 C 3 53.50878524780273 4.176155090332031 59.33623123168945 6.495796203613281 64.82049560546875 C 8.736953735351562 70.11915588378906 11.94598388671875 74.87847900390625 16.03375244140625 78.96624755859375 C 20.12152099609375 83.05401611328125 24.88084411621094 86.26304626464844 30.17950439453125 88.50419616699219 C 35.66376876831055 90.82384490966797 41.49121475219727 92 47.5 92 C 53.50878524780273 92 59.33623123168945 90.82384490966797 64.82049560546875 88.50419616699219 C 70.11915588378906 86.26304626464844 74.87847900390625 83.05401611328125 78.96624755859375 78.96624755859375 C 83.05401611328125 74.87847900390625 86.26304626464844 70.11915588378906 88.50419616699219 64.82049560546875 C 90.82384490966797 59.33623123168945 92 53.50878524780273 92 47.5 C 92 41.49121475219727 90.82384490966797 35.66376876831055 88.50419616699219 30.17950439453125 C 86.26304626464844 24.88084411621094 83.05401611328125 20.12152099609375 78.96624755859375 16.03375244140625 C 74.87847900390625 11.94598388671875 70.11915588378906 8.736953735351562 64.82049560546875 6.495796203613281 C 59.33623123168945 4.176155090332031 53.50878524780273 3 47.5 3 M 47.5 0 C 73.7335205078125 0 95 21.2664794921875 95 47.5 C 95 73.7335205078125 73.7335205078125 95 47.5 95 C 21.2664794921875 95 0 73.7335205078125 0 47.5 C 0 21.2664794921875 21.2664794921875 0 47.5 0 Z" stroke="none" fill="#83793c"/>
                    </g>
                  </g>
                </g>
              </g>
            </g>
          </g>
        </g>
      </g>
      <g id="trophy_2010502" transform="translate(581.324 2297.902)">
        <circle id="Ellipse_12487" data-name="Ellipse 12487" cx="25.577" cy="25.577" r="25.577" transform="translate(36.403 6.531)" fill="#fe646f"/>
        <circle id="Ellipse_12488" data-name="Ellipse 12488" cx="16.369" cy="16.369" r="16.369" transform="translate(45.611 15.739)" fill="#ebebeb"/>
        <path id="Path_1046623" data-name="Path 1046623" d="M342.466,302.038l-6.8-3.809-1.774-1.47-6.737,6.607,1.89,1.457,3.82,6.816.962.962,9.755-9.755Z" transform="translate(-256.696 -259.264)" fill="#fee903"/>
        <path id="Path_1046624" data-name="Path 1046624" d="M90.82,52.4a6.476,6.476,0,0,1-1.889-4.229L88.8,45.776c-.021-.406-.058-.809-.106-1.209A18.155,18.155,0,0,0,83.509,33.93l-1.684-1.684-3.7-3.353L60.4,46.362l3.652,3.654L65.739,51.7a18.158,18.158,0,0,0,10.637,5.184q.6.074,1.209.107l2.394.13a6.5,6.5,0,0,1,4.229,1.889l.236.238a2.15,2.15,0,0,0,3.037,0l5.093-5.093Z" transform="translate(-23.648 -25.242)" fill="#fee903"/>
        <path id="Path_1046625" data-name="Path 1046625" d="M337.854,326.65l-.962-.962-3.819-6.816-1.846-1.423-4.071,3.993,1.89,1.457,3.819,6.816.962.962,9.755-9.755Z" transform="translate(-256.696 -277.34)" fill="#fed402"/>
        <path id="Path_1046626" data-name="Path 1046626" d="M92.124,143.526a2.15,2.15,0,0,1-3.037,0l-.236-.238a6.5,6.5,0,0,0-4.229-1.889l-2.394-.13q-.608-.034-1.209-.107a18.158,18.158,0,0,1-10.637-5.184L68.7,134.295l-3.619-3.621L60.4,135.285l3.652,3.654,1.683,1.683a18.158,18.158,0,0,0,10.637,5.184q.6.074,1.209.107l2.394.13a6.5,6.5,0,0,1,4.229,1.889l.236.238a2.15,2.15,0,0,0,3.037,0l5.093-5.093Z" transform="translate(-23.647 -114.164)" fill="#fed402"/>
        <path id="Path_1046627" data-name="Path 1046627" d="M78.76,41.063,77.252,42a4.477,4.477,0,0,0-1.442,1.442l-.943,1.516a3.686,3.686,0,1,1,3.891-3.894Z" transform="translate(-33.25 -32.842)" fill="#fee903"/>
        <path id="Path_1046628" data-name="Path 1046628" d="M63.432,8.617a1.108,1.108,0,0,1,0,1.568l-.8.8L57,16.616l-6.513,6.513L44.86,28.756l-.8.8a1.108,1.108,0,0,1-1.568,0l-.9-.9a.782.782,0,0,1,0-1.107l3.99-3.99,3.049-4.907.943-1.516A4.477,4.477,0,0,1,51.014,15.7l1.507-.936,4.916-3.055,3.989-3.99a.784.784,0,0,1,1.108,0Z" transform="translate(-7.012 -6.543)" fill="#f4d902"/>
        <path id="Path_1046629" data-name="Path 1046629" d="M62.822,11.576l-2.316,2.316-6.513,6.513-5.627,5.627-.8.8a1.108,1.108,0,0,1-1.568,0l-.14-.139-.273.44-3.99,3.99a.782.782,0,0,0,0,1.107l.9.9a1.108,1.108,0,0,0,1.568,0l.8-.8L50.488,26.7,57,20.186l5.629-5.629.8-.8a1.108,1.108,0,0,0,0-1.568Z" transform="translate(-7.013 -10.113)" fill="#fac600"/>
        <path id="Path_1046630" data-name="Path 1046630" d="M202.4,232.73a1.776,1.776,0,0,0-2.512,0,1.776,1.776,0,0,0-2.512-2.512,1.776,1.776,0,0,0-2.512-2.512,1.776,1.776,0,1,0-2.512-2.512l-5.1,5.1a2.15,2.15,0,0,1-3.037,0l-.236-.238a6.475,6.475,0,0,0-.891-.743l-.835,2.432a3.43,3.43,0,0,0,.69,3.286l.972,1.111-9.31,9.312,6.716,6.629,10.024-10.024h0a4.4,4.4,0,0,0,5.069-.83l3.007-3.007,2.978-2.977a1.777,1.777,0,0,0,0-2.513Z" transform="translate(-123.423 -196.287)" fill="#fed2a4"/>
        <path id="Path_1046631" data-name="Path 1046631" d="M175.8,246.626l9.3-9.3-.972-1.111a3.43,3.43,0,0,1-.69-3.286l.835-2.432a6.475,6.475,0,0,1,.891.743l.236.238a2.15,2.15,0,0,0,3.037,0l5.1-5.1a1.775,1.775,0,0,1,1.774-.443,1.776,1.776,0,0,0-2.954-.737l-5.1,5.1a2.15,2.15,0,0,1-3.037,0l-.236-.238a6.471,6.471,0,0,0-.891-.743l-.835,2.432a3.43,3.43,0,0,0,.69,3.286l.972,1.111-9.31,9.312Z" transform="translate(-123.423 -196.288)" fill="#ffbd86"/>
        <path id="Path_1046632" data-name="Path 1046632" d="M379.555,335a1.62,1.62,0,0,1,0,2.292l-9.841,9.841a1.62,1.62,0,1,1-2.292-2.291l.207-.208,9.6-9.6.033-.033A1.62,1.62,0,0,1,379.555,335Z" transform="translate(-291.46 -292.26)" fill="#f4d902"/>
        <path id="Path_1046633" data-name="Path 1046633" d="M371.506,384.719a1.618,1.618,0,0,1,0-2.291l.207-.208L367.63,386.3l-.207.208a1.62,1.62,0,1,0,2.292,2.291l4.083-4.083A1.62,1.62,0,0,1,371.506,384.719Z" transform="translate(-291.461 -333.928)" fill="#fac600"/>
        <path id="Path_1046634" data-name="Path 1046634" d="M207.478,333.779a.974.974,0,0,1,0,1.377l-2.35,2.349a.972.972,0,0,1-1.376,0l-.517-.517-6.672-6.672-.518-.518a.974.974,0,0,1,0-1.377l2.349-2.349a.974.974,0,0,1,1.377,0l.517.517h0l6.672,6.672h0Z" transform="translate(-141.902 -284.624)" fill="#00f2a6"/>
        <path id="Path_1046635" data-name="Path 1046635" d="M200.409,331.3a1.707,1.707,0,0,1,0-2.413l1.09-1.09-1.211-1.211h0l-.517-.517a.974.974,0,0,0-1.377,0l-2.349,2.349a.974.974,0,0,0,0,1.377l.518.518,6.672,6.672.517.517a.972.972,0,0,0,1.376,0l.741-.741Z" transform="translate(-141.902 -284.624)" fill="#05e39c"/>
        <path id="Path_1046636" data-name="Path 1046636" d="M70.5,386.177a1.383,1.383,0,0,1,0,1.957l-5.817,5.817a1.738,1.738,0,0,1-1.229.509H47.28a.529.529,0,0,1-.374-.9L61.412,379.05a1.383,1.383,0,0,1,1.957,0l.227.227,6.672,6.672Z" transform="translate(-11.719 -330.804)" fill="#08a9f1"/>
        <path id="Path_1046637" data-name="Path 1046637" d="M64.694,382.331a1.383,1.383,0,0,1,1.957,0L63.6,379.277l-.227-.227a1.383,1.383,0,0,0-1.957,0L46.906,393.557a.529.529,0,0,0,.374.9h5.286Z" transform="translate(-11.719 -330.804)" fill="#0290cf"/>
        <path id="Path_1046638" data-name="Path 1046638" d="M379.459,85.5a7.106,7.106,0,0,1-1.845,1.864.62.62,0,0,0,0,1.03,6.766,6.766,0,0,1,1.851,1.8.616.616,0,0,0,1.02.009,6.561,6.561,0,0,1,1.863-1.845.618.618,0,0,0,0-1.022,7.469,7.469,0,0,1-1.875-1.853A.617.617,0,0,0,379.459,85.5Z" transform="translate(-300.54 -74.458)" fill="#6bd9e7"/>
        <path id="Path_1046639" data-name="Path 1046639" d="M137.4,155.517A7.15,7.15,0,0,1,134.925,158a.316.316,0,0,0,0,.54,6.8,6.8,0,0,1,2.474,2.428.316.316,0,0,0,.548,0,6.609,6.609,0,0,1,2.468-2.449.316.316,0,0,0,.012-.54,7.526,7.526,0,0,1-2.491-2.467A.316.316,0,0,0,137.4,155.517Z" transform="translate(-88.62 -135.737)" fill="#6bd9e7"/>
        <path id="Path_1046640" data-name="Path 1046640" d="M88.765,42.071a2.571,2.571,0,0,0-3.068-.424l-5.411-3.032a2.716,2.716,0,0,0-2.362-3.629,2.709,2.709,0,0,0-2.511-2.512A2.712,2.712,0,0,0,72.9,29.963a2.718,2.718,0,0,0-3.854-2.271l-1.206-1.205a5.526,5.526,0,0,1-1.612-3.61L66.1,20.482c-.02-.372-.053-.742-.095-1.111L68.12,9.443A5.577,5.577,0,0,0,57.9,5.385l-.941-.941.132-.132a2.056,2.056,0,0,0,0-2.908l-.9-.9a1.733,1.733,0,0,0-2.447,0L49.833,4.418l-3.7,2.3a4.634,4.634,0,1,0-6.019,6.023l-2.293,3.689-3.913,3.913a1.733,1.733,0,0,0,0,2.447l.9.9a2.056,2.056,0,0,0,2.908,0l.132-.132.941.941a5.579,5.579,0,0,0,2.876,10.346,5.669,5.669,0,0,0,1.182-.125L52.778,32.6c.368.042.737.075,1.108.1l2.394.131a5.526,5.526,0,0,1,2.2.592l-.553,1.755a4.4,4.4,0,0,0,.88,4.195l.389.444-.823.823a1.923,1.923,0,0,0-2.555.143l-2.349,2.349a1.919,1.919,0,0,0-.143,2.555l-1.513,1.513a2.329,2.329,0,0,0-2.793.382l-15.41,15.41a.948.948,0,0,0,1.34,1.34l15.41-15.41a.436.436,0,0,1,.617,0l7.127,7.127a.436.436,0,0,1,0,.617l-6.326,6.326a.948.948,0,0,0,1.34,1.34L59.447,58a2.328,2.328,0,0,0,.382-2.793l1.513-1.513A1.922,1.922,0,0,0,63.9,53.55L66.246,51.2a1.919,1.919,0,0,0,.144-2.554l1.76-1.76a5.368,5.368,0,0,0,3.79-.123l3.073,5.484a2.567,2.567,0,0,0,3.911,3.3L88.765,45.7a2.571,2.571,0,0,0,0-3.632ZM61.337,4.847a3.682,3.682,0,0,1,4.929,4.2l-1.275,5.985a19.086,19.086,0,0,0-4.459-7.016L59.3,6.787a3.651,3.651,0,0,1,2.036-1.94ZM39.895,10.372a2.738,2.738,0,1,1,4.584-2.627l-.977.607A5.463,5.463,0,0,0,41.756,10.1l-.613.986A2.733,2.733,0,0,1,39.895,10.372ZM36.147,22.346l-.781-.781,3.873-3.873a.941.941,0,0,0,.135-.17L43.365,11.1A3.559,3.559,0,0,1,44.5,9.962l1.5-.934.007,0L50.925,5.97a.956.956,0,0,0,.17-.135l3.873-3.873.781.781a.161.161,0,0,1,0,.228L36.375,22.346A.161.161,0,0,1,36.147,22.346ZM53.99,30.8a17.231,17.231,0,0,1-8.469-2.774.948.948,0,0,0-1.036,1.587,19.112,19.112,0,0,0,3.957,1.971l-5.99,1.276A3.681,3.681,0,0,1,40.191,25.9l1.2,1.2a.948.948,0,1,0,1.34-1.34l-1.665-1.665h0l-1.879-1.879L55.618,5.784,57.5,7.663l0,0,1.692,1.692A17.183,17.183,0,0,1,64.1,19.409v.009q.071.58.1,1.168l.131,2.394A7.419,7.419,0,0,0,66.5,27.826l1.085,1.085-4.423,4.423a1.2,1.2,0,0,1-1.7,0L61.23,33.1a7.419,7.419,0,0,0-4.846-2.165Zm-.772,17.671,1.443-1.442,5.332,5.332L58.55,53.806Zm11.688,1.388L62.557,52.21a.025.025,0,0,1-.036,0L54.813,44.5a.029.029,0,0,1,0-.036l2.349-2.349a.025.025,0,0,1,.018-.008.025.025,0,0,1,.018.008l7.707,7.707A.029.029,0,0,1,64.906,49.861ZM74.929,43a.948.948,0,0,0-1.34,0l-1.265,1.265a3.458,3.458,0,0,1-4.884,0,.948.948,0,1,0-1.34,1.34c.109.109.222.211.338.309L65.059,47.3l-5.332-5.332,1.44-1.44a.948.948,0,0,0,.043-1.294l-.972-1.111a2.494,2.494,0,0,1-.5-2.378l.348-1.106.04.04a3.1,3.1,0,0,0,4.378,0l5.1-5.1a.828.828,0,1,1,1.171,1.172l-.708.708-.888.888a.948.948,0,0,0,1.34,1.34l.888-.888.708-.708a.828.828,0,1,1,1.172,1.172l-.333.333-1.263,1.263a.948.948,0,0,0,1.34,1.34l1.262-1.262h0l.333-.333A.829.829,0,0,1,75.8,35.773l-.333.333h0L74.2,37.369a.948.948,0,1,0,1.34,1.34L76.8,37.448h0l.333-.333h0A.828.828,0,0,1,78.382,38.2a.941.941,0,0,0-.214.226l-1.9,1.9a.948.948,0,0,0,1.34,1.34l1.522-1.522,5.083,2.848L76.384,50.82l-2.85-5.087c.044-.041.088-.081.13-.124l1.265-1.265a.948.948,0,0,0,0-1.34Zm12.5,1.358L77.583,54.2a.673.673,0,0,1-.952-.952l.207-.207h0l9.6-9.6.033-.033a.673.673,0,1,1,.952.952Z" transform="translate(0 0)"/>
        <path id="Path_1046641" data-name="Path 1046641" d="M310.541,132.571a15.445,15.445,0,0,1,8.675,13.9.948.948,0,1,0,1.9,0,17.34,17.34,0,0,0-9.737-15.6.948.948,0,1,0-.833,1.7Z" transform="translate(-241.717 -114.249)"/>
        <path id="Path_1046642" data-name="Path 1046642" d="M131.612,286.547a.948.948,0,0,0,.674-1.613,15.434,15.434,0,0,1-4.065-7.378.948.948,0,0,0-1.847.425,17.328,17.328,0,0,0,4.564,8.285A.945.945,0,0,0,131.612,286.547Z" transform="translate(-81.262 -241.844)"/>
        <path id="Path_1046643" data-name="Path 1046643" d="M263.862,434.177a24.607,24.607,0,0,1-9.957,2.081.948.948,0,0,0,0,1.9,26.494,26.494,0,0,0,10.719-2.241.948.948,0,0,0-.762-1.735Z" transform="translate(-191.872 -379.25)"/>
        <path id="Path_1046644" data-name="Path 1046644" d="M429.365,146.872a24.876,24.876,0,0,1,2.869,17.219.948.948,0,0,0,.747,1.112.959.959,0,0,0,.183.018.948.948,0,0,0,.929-.765A26.775,26.775,0,0,0,431,145.921a.948.948,0,0,0-1.639.951Z" transform="translate(-345.88 -127.072)"/>
        <path id="Path_1046645" data-name="Path 1046645" d="M325.361,58.707a24.719,24.719,0,0,1,3.248,1.5.948.948,0,0,0,.918-1.658,26.643,26.643,0,0,0-3.5-1.617.948.948,0,1,0-.668,1.774Z" transform="translate(-254.592 -49.687)"/>
        <path id="Path_1046646" data-name="Path 1046646" d="M59.072,297.5a.948.948,0,0,0,.724-1.559,24.738,24.738,0,0,1-5.447-11.587.948.948,0,1,0-1.866.333,26.637,26.637,0,0,0,5.864,12.476A.946.946,0,0,0,59.072,297.5Z" transform="translate(-16.715 -247.745)"/>
        <path id="Path_1046647" data-name="Path 1046647" d="M365.6,78.121a5.861,5.861,0,0,1,2.808,2.781.948.948,0,0,0,.854.56h.011a.948.948,0,0,0,.856-.541,5.721,5.721,0,0,1,2.79-2.787.947.947,0,0,0,.051-1.681,6.664,6.664,0,0,1-2.849-2.831.948.948,0,0,0-.838-.523h-.009a.948.948,0,0,0-.839.507,6.246,6.246,0,0,1-2.814,2.824.947.947,0,0,0-.02,1.689Zm3.673-2.312a8.334,8.334,0,0,0,1.464,1.441,7.489,7.489,0,0,0-1.462,1.447,7.741,7.741,0,0,0-1.458-1.416A8.051,8.051,0,0,0,369.276,75.809Z" transform="translate(-289.842 -63.864)"/>
        <path id="Path_1046648" data-name="Path 1046648" d="M132.48,148.6a6.665,6.665,0,0,1-2.849-2.831.948.948,0,0,0-.838-.523h-.009a.948.948,0,0,0-.839.507,6.245,6.245,0,0,1-2.814,2.824.948.948,0,0,0-.02,1.689,5.861,5.861,0,0,1,2.808,2.781.948.948,0,0,0,.854.561h.011a.948.948,0,0,0,.855-.54,5.723,5.723,0,0,1,2.79-2.787.948.948,0,0,0,.051-1.681Zm-3.694,2.243a7.734,7.734,0,0,0-1.458-1.416,8.072,8.072,0,0,0,1.456-1.472,8.331,8.331,0,0,0,1.464,1.441A7.491,7.491,0,0,0,128.785,150.843Z" transform="translate(-79.735 -126.894)"/>
      </g>
    </g>
  </g>
</svg>
