<svg xmlns="http://www.w3.org/2000/svg" xmlns:xlink="http://www.w3.org/1999/xlink" width="113" height="113" viewBox="0 0 113 113">
  <defs>
    <filter id="Path_982547" x="0" y="0" width="113" height="113" filterUnits="userSpaceOnUse">
      <feOffset dy="3" input="SourceAlpha"/>
      <feGaussianBlur stdDeviation="3" result="blur"/>
      <feFlood flood-opacity="0.161"/>
      <feComposite operator="in" in2="blur"/>
      <feComposite in="SourceGraphic"/>
    </filter>
    <clipPath id="clip-path">
      <path id="path8046" d="M0-682.665H61.549v61.549H0Z" transform="translate(0 682.665)"/>
    </clipPath>
  </defs>
  <g id="Group_1202190" data-name="Group 1202190" transform="translate(-7320.49 -7182.651)">
    <g id="Group_1202112" data-name="Group 1202112">
      <g id="Group_1201926" data-name="Group 1201926" transform="translate(2034 5262.378)">
        <g id="Group_1176928" data-name="Group 1176928" transform="translate(5295.49 1926.273)">
          <g id="Group_1172322" data-name="Group 1172322" transform="translate(0 0)">
            <g id="Group_1164700" data-name="Group 1164700">
              <g id="Group_1160931" data-name="Group 1160931">
                <g id="Group_1160749" data-name="Group 1160749">
                  <g id="Group_1158891" data-name="Group 1158891">
                    <g id="Group_1157406" data-name="Group 1157406">
                      <g id="Group_1155793" data-name="Group 1155793">
                        <g id="Group_1154704" data-name="Group 1154704">
                          <g id="Group_1150790" data-name="Group 1150790">
                            <g id="Group_1154214" data-name="Group 1154214">
                              <g id="Group_1152583" data-name="Group 1152583">
                                <g id="Group_1146973" data-name="Group 1146973">
                                  <g id="Group_1146954" data-name="Group 1146954">
                                    <g transform="matrix(1, 0, 0, 1, -9, -6)" filter="url(#Path_982547)">
                                      <g id="Path_982547-2" data-name="Path 982547" transform="translate(9 6)" fill="#ebe9f0">
                                        <path d="M 47.5000114440918 93.49987030029297 C 41.28938293457031 93.49987030029297 35.26534652709961 92.28384399414062 29.5951976776123 89.88558959960938 C 24.11773109436035 87.56881713867188 19.19814491271973 84.25183868408203 14.97310447692871 80.02680206298828 C 10.74805164337158 75.80176544189453 7.43107795715332 70.88218688964844 5.114304542541504 65.40472412109375 C 2.716038227081299 59.73458862304688 1.500011444091797 53.71054840087891 1.500011444091797 47.49993515014648 C 1.500011444091797 41.28932189941406 2.716038227081299 35.26528167724609 5.114304542541504 29.59514808654785 C 7.43107795715332 24.1176815032959 10.74805164337158 19.1981086730957 14.97310447692871 14.97306823730469 C 19.19814491271973 10.74802875518799 24.11773109436035 7.431055068969727 29.5951976776123 5.11428165435791 C 35.26534652709961 2.716028451919556 41.28938293457031 1.500001788139343 47.5000114440918 1.500001788139343 C 53.71063995361328 1.500001788139343 59.73467636108398 2.716028451919556 65.40482330322266 5.11428165435791 C 70.88229370117188 7.431055068969727 75.8018798828125 10.74802875518799 80.02691650390625 14.97306823730469 C 84.25196838378906 19.1981086730957 87.56894683837891 24.1176815032959 89.88571929931641 29.59514808654785 C 92.28398132324219 35.26528167724609 93.50001525878906 41.28932189941406 93.50001525878906 47.49993515014648 C 93.50001525878906 53.71054840087891 92.28398132324219 59.73458862304688 89.88571929931641 65.40472412109375 C 87.56894683837891 70.88218688964844 84.25196838378906 75.80176544189453 80.02691650390625 80.02680206298828 C 75.8018798828125 84.25183868408203 70.88229370117188 87.56881713867188 65.40482330322266 89.88558959960938 C 59.73467636108398 92.28384399414062 53.71063995361328 93.49987030029297 47.5000114440918 93.49987030029297 Z" stroke="none"/>
                                        <path d="M 47.5000114440918 3 C 41.49122619628906 3 35.66378021240234 4.1761474609375 30.17951965332031 6.495796203613281 C 24.880859375 8.7369384765625 20.12153625488281 11.94596862792969 16.03376770019531 16.03373718261719 C 11.94598388671875 20.12149047851562 8.736968994140625 24.88081359863281 6.495811462402344 30.17947387695312 C 4.176162719726562 35.66371917724609 3.000007629394531 41.49116516113281 3.000007629394531 47.49993515014648 C 3.000007629394531 53.50870513916016 4.176162719726562 59.33615112304688 6.495811462402344 64.82039642333984 C 8.736968994140625 70.11905670166016 11.94598388671875 74.87837982177734 16.03376770019531 78.96613311767578 C 20.12153625488281 83.05390167236328 24.880859375 86.26293182373047 30.17951965332031 88.50407409667969 C 35.66378021240234 90.82372283935547 41.49122619628906 91.99987030029297 47.5000114440918 91.99987030029297 C 53.50879669189453 91.99987030029297 59.33624267578125 90.82372283935547 64.82050323486328 88.50407409667969 C 70.11916351318359 86.26293182373047 74.87848663330078 83.05390167236328 78.96625518798828 78.96613311767578 C 83.05403900146484 74.87837982177734 86.2630615234375 70.11905670166016 88.50421142578125 64.82039642333984 C 90.82386016845703 59.33615112304688 92.00001525878906 53.50870513916016 92.00001525878906 47.49993515014648 C 92.00001525878906 41.49116516113281 90.82386016845703 35.66371917724609 88.50421142578125 30.17947387695312 C 86.2630615234375 24.88081359863281 83.05403900146484 20.12149047851562 78.96625518798828 16.03373718261719 C 74.87848663330078 11.94596862792969 70.11916351318359 8.7369384765625 64.82050323486328 6.495796203613281 C 59.33624267578125 4.1761474609375 53.50879669189453 3 47.5000114440918 3 M 47.5000114440918 0 C 73.73353576660156 0 95.00001525878906 21.26644134521484 95.00001525878906 47.49993515014648 C 95.00001525878906 73.73342895507812 73.73353576660156 94.99987030029297 47.5000114440918 94.99987030029297 C 21.26648712158203 94.99987030029297 7.62939453125e-06 73.73342895507812 7.62939453125e-06 47.49993515014648 C 7.62939453125e-06 21.26644134521484 21.26648712158203 0 47.5000114440918 0 Z" stroke="none" fill="#453179"/>
                                      </g>
                                    </g>
                                  </g>
                                </g>
                              </g>
                            </g>
                          </g>
                        </g>
                      </g>
                    </g>
                  </g>
                </g>
              </g>
            </g>
          </g>
        </g>
      </g>
      <g id="g8040" transform="translate(7345.215 7890.042)">
        <g id="g8042" transform="translate(0 -682.665)">
          <g id="g8044" clip-path="url(#clip-path)">
            <g id="g8050" transform="translate(6.378 0.902)">
              <path id="path8052" d="M-462.426,0H-505.28a2.969,2.969,0,0,0-2.969,2.969V27.56a2.969,2.969,0,0,0,2.969,2.969h42.854a2.969,2.969,0,0,0,2.969-2.969V2.969A2.969,2.969,0,0,0-462.426,0" transform="translate(508.249)" fill="#407194"/>
            </g>
            <g id="g8054" transform="translate(6.378 0.902)">
              <path id="path8056" d="M0-247.42v3.042a2.969,2.969,0,0,0,2.969,2.969H45.824a2.969,2.969,0,0,0,2.969-2.969v-24.59a2.969,2.969,0,0,0-2.969-2.969H2.969A2.969,2.969,0,0,0,0-268.969v17.341" transform="translate(0 271.938)" fill="none" stroke="#000" stroke-linecap="round" stroke-linejoin="round" stroke-miterlimit="10" stroke-width="1"/>
            </g>
            <g id="g8058" transform="translate(9.744 4.268)">
              <path id="path8060" d="M-4.852,0h41.1a.481.481,0,0,1,.481.481V23.316a.481.481,0,0,1-.481.481h-41.1a.481.481,0,0,1-.481-.481V.481A.481.481,0,0,1-4.852,0" transform="translate(5.333)" fill="#62a4fb"/>
            </g>
            <g id="g8062" transform="translate(9.744 4.268)">
              <path id="path8064" d="M-424.456-83.516v15.04a.481.481,0,0,1-.481.481h-41.1a.481.481,0,0,1-.481-.481V-91.311a.481.481,0,0,1,.481-.481h41.1a.481.481,0,0,1,.481.481v3.588" transform="translate(466.517 91.792)" fill="none" stroke="#000" stroke-linecap="round" stroke-linejoin="round" stroke-miterlimit="10" stroke-width="1"/>
            </g>
            <g id="g8066" transform="translate(6.378 13.831)">
              <path id="path8068" d="M-33.967-16.982v1.3a1.683,1.683,0,0,1-1.683,1.683,1.683,1.683,0,0,1-1.683-1.683v-1.3a1.683,1.683,0,0,1,1.683-1.683,1.683,1.683,0,0,1,1.683,1.683" transform="translate(37.333 18.665)" fill="#365f7e"/>
            </g>
            <g id="g8070" transform="translate(6.378 13.831)">
              <path id="path8072" d="M-33.967-16.982v1.3a1.683,1.683,0,0,1-1.683,1.683,1.683,1.683,0,0,1-1.683-1.683v-1.3a1.683,1.683,0,0,1,1.683-1.683A1.683,1.683,0,0,1-33.967-16.982Z" transform="translate(37.333 18.665)" fill="none" stroke="#000" stroke-linecap="round" stroke-linejoin="round" stroke-miterlimit="10" stroke-width="1"/>
            </g>
            <g id="g8074" transform="translate(30.774 11.252)">
              <path id="path8076" d="M-66.019-99.171a4.626,4.626,0,0,0-6.542,0v-8.472a4.626,4.626,0,0,1,6.542,0Z" transform="translate(72.561 108.999)" fill="#bed9fd"/>
            </g>
            <g id="g8078" transform="translate(30.774 11.252)">
              <path id="path8080" d="M-66.019-99.171a4.626,4.626,0,0,0-6.542,0v-8.472a4.626,4.626,0,0,1,6.542,0Z" transform="translate(72.561 108.999)" fill="none" stroke="#000" stroke-linecap="round" stroke-linejoin="round" stroke-miterlimit="10" stroke-width="1"/>
            </g>
            <g id="g8082" transform="translate(24.232 11.252)">
              <path id="path8084" d="M-66.019-99.171a4.626,4.626,0,0,0-6.542,0v-8.472a4.626,4.626,0,0,1,6.542,0Z" transform="translate(72.561 108.999)" fill="#ddebfd"/>
            </g>
            <g id="g8086" transform="translate(24.232 11.252)">
              <path id="path8088" d="M-66.019-99.171a4.626,4.626,0,0,0-6.542,0v-8.472a4.626,4.626,0,0,1,6.542,0Z" transform="translate(72.561 108.999)" fill="none" stroke="#000" stroke-linecap="round" stroke-linejoin="round" stroke-miterlimit="10" stroke-width="1"/>
            </g>
            <g id="g8090" transform="translate(26.373 34.548)">
              <path id="path8092" d="M-44.413,0a4.4,4.4,0,0,0-4.4,4.4,4.4,4.4,0,0,0,4.4,4.4,4.4,4.4,0,0,0,4.4-4.4,4.4,4.4,0,0,0-4.4-4.4" transform="translate(48.815)" fill="#80e29e"/>
            </g>
            <g id="g8094" transform="translate(45.919 34.548)">
              <path id="path8096" d="M-44.413,0a4.4,4.4,0,0,0-4.4,4.4,4.4,4.4,0,0,0,4.4,4.4,4.4,4.4,0,0,0,4.4-4.4,4.4,4.4,0,0,0-4.4-4.4" transform="translate(48.815)" fill="#f5de46"/>
            </g>
            <g id="g8098" transform="translate(8.559 34.548)">
              <path id="path8100" d="M-44.413,0a4.4,4.4,0,0,0-4.4,4.4,4.4,4.4,0,0,0,4.4,4.4,4.4,4.4,0,0,0,4.4-4.4,4.4,4.4,0,0,0-4.4-4.4" transform="translate(48.815)" fill="#e27c48"/>
            </g>
            <g id="g8102" transform="translate(26.373 34.548)">
              <path id="path8104" d="M-44.413,0a4.4,4.4,0,0,0-4.4,4.4,4.4,4.4,0,0,0,4.4,4.4,4.4,4.4,0,0,0,4.4-4.4A4.4,4.4,0,0,0-44.413,0Z" transform="translate(48.815)" fill="none" stroke="#000" stroke-linecap="round" stroke-linejoin="round" stroke-miterlimit="10" stroke-width="1"/>
            </g>
            <g id="g8106" transform="translate(45.919 34.548)">
              <path id="path8108" d="M-44.413,0a4.4,4.4,0,0,0-4.4,4.4,4.4,4.4,0,0,0,4.4,4.4,4.4,4.4,0,0,0,4.4-4.4A4.4,4.4,0,0,0-44.413,0Z" transform="translate(48.815)" fill="none" stroke="#000" stroke-linecap="round" stroke-linejoin="round" stroke-miterlimit="10" stroke-width="1"/>
            </g>
            <g id="g8110" transform="translate(8.559 34.548)">
              <path id="path8112" d="M-44.413,0a4.4,4.4,0,0,0-4.4,4.4,4.4,4.4,0,0,0,4.4,4.4,4.4,4.4,0,0,0,4.4-4.4A4.4,4.4,0,0,0-44.413,0Z" transform="translate(48.815)" fill="none" stroke="#000" stroke-linecap="round" stroke-linejoin="round" stroke-miterlimit="10" stroke-width="1"/>
            </g>
            <g id="g8114" transform="translate(25.545 38.038)">
              <path id="path8116" d="M-115.29-92.462h-4.349v-7.264a1.881,1.881,0,0,0-1.757-1.9,1.846,1.846,0,0,0-1.936,1.844v9.618h-2.18a1.2,1.2,0,0,0-1.2,1.2V-87.4a4.081,4.081,0,0,0,3.28,4v4.146a.24.24,0,0,0,.24.24h7.968a.24.24,0,0,0,.24-.24v-4.079a4.569,4.569,0,0,0,4.265-4.558,4.569,4.569,0,0,0-4.569-4.569" transform="translate(126.714 101.624)" fill="#ffcdbe"/>
            </g>
            <g id="g8118" transform="translate(33.579 47.201)">
              <path id="path8120" d="M-34.22,0h-3.391a4.569,4.569,0,0,1,4.569,4.569,4.569,4.569,0,0,1-4.265,4.558v4.079a.24.24,0,0,1-.24.24h3.391a.24.24,0,0,0,.24-.24V9.127A4.569,4.569,0,0,0-29.65,4.569,4.569,4.569,0,0,0-34.22,0" transform="translate(37.611)" fill="#ebae9d"/>
            </g>
            <g id="g8122" transform="translate(25.545 38.038)">
              <path id="path8124" d="M-115.29-92.462h-4.349v-7.264a1.881,1.881,0,0,0-1.757-1.9,1.846,1.846,0,0,0-1.936,1.844v9.618h-2.18a1.2,1.2,0,0,0-1.2,1.2V-87.4a4.081,4.081,0,0,0,3.28,4v4.146a.24.24,0,0,0,.24.24h7.968a.24.24,0,0,0,.24-.24v-4.079a4.569,4.569,0,0,0,4.265-4.558A4.569,4.569,0,0,0-115.29-92.462Z" transform="translate(126.714 101.624)" fill="none" stroke="#000" stroke-linecap="round" stroke-linejoin="round" stroke-miterlimit="10" stroke-width="1"/>
            </g>
            <g id="g8126" transform="translate(28.928 47.607)">
              <path id="path8128" d="M0,0V4.32" fill="none" stroke="#000" stroke-linecap="round" stroke-linejoin="round" stroke-miterlimit="10" stroke-width="1"/>
            </g>
            <g id="g8130" transform="translate(30.774 23.945)">
              <path id="path8132" d="M0-106.995v-10.6" transform="translate(0 117.597)" fill="none" stroke="#000" stroke-linecap="round" stroke-linejoin="round" stroke-miterlimit="10" stroke-width="1"/>
            </g>
            <g id="g8134" transform="translate(38.44 23.945)">
              <path id="path8136" d="M-96.127-113.874l-9.526-11.284" transform="translate(105.653 125.158)" fill="none" stroke="#000" stroke-linecap="round" stroke-linejoin="round" stroke-miterlimit="10" stroke-width="1"/>
            </g>
            <g id="g8138" transform="translate(15.92 23.945)">
              <path id="path8140" d="M-80.539,0-88.52,11.394" transform="translate(88.52)" fill="none" stroke="#000" stroke-linecap="round" stroke-linejoin="round" stroke-miterlimit="10" stroke-width="1"/>
            </g>
          </g>
        </g>
      </g>
    </g>
  </g>
</svg>
