<svg xmlns="http://www.w3.org/2000/svg" xmlns:xlink="http://www.w3.org/1999/xlink" width="113" height="113" viewBox="0 0 113 113">
  <defs>
    <filter id="Path_982547" x="0" y="0" width="113" height="113" filterUnits="userSpaceOnUse">
      <feOffset dy="3" input="SourceAlpha"/>
      <feGaussianBlur stdDeviation="3" result="blur"/>
      <feFlood flood-opacity="0.161"/>
      <feComposite operator="in" in2="blur"/>
      <feComposite in="SourceGraphic"/>
    </filter>
  </defs>
  <g id="Group_1202181" data-name="Group 1202181" transform="translate(-196.5 -5656)">
    <g id="Group_1202087" data-name="Group 1202087">
      <g id="Group_1201921" data-name="Group 1201921" transform="translate(205.5 5662)">
        <g id="Group_1201680" data-name="Group 1201680">
          <g id="Group_1201330" data-name="Group 1201330">
            <g id="Group_1172010" data-name="Group 1172010">
              <g id="Group_1171046" data-name="Group 1171046">
                <g id="Group_1148525" data-name="Group 1148525">
                  <g transform="matrix(1, 0, 0, 1, -9, -6)" filter="url(#Path_982547)">
                    <g id="Path_982547-2" data-name="Path 982547" transform="translate(9 6)" fill="#fdfbec">
                      <path d="M 47.5 93.5 C 41.28937149047852 93.5 35.26533508300781 92.28397369384766 29.59518623352051 89.88570404052734 C 24.11771965026855 87.56893157958984 19.19813346862793 84.25196075439453 14.97309303283691 80.02691650390625 C 10.74804019927979 75.80186462402344 7.431066513061523 70.88229370117188 5.114293098449707 65.40481567382812 C 2.716026782989502 59.73468017578125 1.5 53.71062850952148 1.5 47.5 C 1.5 41.28937149047852 2.716026782989502 35.26533508300781 5.114293098449707 29.59518623352051 C 7.431066513061523 24.11771965026855 10.74804019927979 19.19813346862793 14.97309303283691 14.97309303283691 C 19.19813346862793 10.74804019927979 24.11771965026855 7.431066513061523 29.59518623352051 5.114293098449707 C 35.26533508300781 2.716026782989502 41.28937149047852 1.5 47.5 1.5 C 53.71062850952148 1.5 59.73468017578125 2.716026782989502 65.40481567382812 5.114293098449707 C 70.88229370117188 7.431066513061523 75.80186462402344 10.74804019927979 80.02691650390625 14.97309303283691 C 84.25196075439453 19.19813346862793 87.56893157958984 24.11771965026855 89.88570404052734 29.59518623352051 C 92.28397369384766 35.26533508300781 93.5 41.28937149047852 93.5 47.5 C 93.5 53.71062850952148 92.28397369384766 59.73468017578125 89.88570404052734 65.40481567382812 C 87.56893157958984 70.88229370117188 84.25196075439453 75.80186462402344 80.02691650390625 80.02691650390625 C 75.80186462402344 84.25196075439453 70.88229370117188 87.56893157958984 65.40481567382812 89.88570404052734 C 59.73468017578125 92.28397369384766 53.71062850952148 93.5 47.5 93.5 Z" stroke="none"/>
                      <path d="M 47.5 3 C 41.49121475219727 3 35.66376876831055 4.176155090332031 30.17950439453125 6.495796203613281 C 24.88084411621094 8.736953735351562 20.12152099609375 11.94598388671875 16.03375244140625 16.03375244140625 C 11.94598388671875 20.12152099609375 8.736953735351562 24.88084411621094 6.495796203613281 30.17950439453125 C 4.176155090332031 35.66376876831055 3 41.49121475219727 3 47.5 C 3 53.50878524780273 4.176155090332031 59.33623123168945 6.495796203613281 64.82049560546875 C 8.736953735351562 70.11915588378906 11.94598388671875 74.87847900390625 16.03375244140625 78.96624755859375 C 20.12152099609375 83.05401611328125 24.88084411621094 86.26304626464844 30.17950439453125 88.50419616699219 C 35.66376876831055 90.82384490966797 41.49121475219727 92 47.5 92 C 53.50878524780273 92 59.33623123168945 90.82384490966797 64.82049560546875 88.50419616699219 C 70.11915588378906 86.26304626464844 74.87847900390625 83.05401611328125 78.96624755859375 78.96624755859375 C 83.05401611328125 74.87847900390625 86.26304626464844 70.11915588378906 88.50419616699219 64.82049560546875 C 90.82384490966797 59.33623123168945 92 53.50878524780273 92 47.5 C 92 41.49121475219727 90.82384490966797 35.66376876831055 88.50419616699219 30.17950439453125 C 86.26304626464844 24.88084411621094 83.05401611328125 20.12152099609375 78.96624755859375 16.03375244140625 C 74.87847900390625 11.94598388671875 70.11915588378906 8.736953735351562 64.82049560546875 6.495796203613281 C 59.33623123168945 4.176155090332031 53.50878524780273 3 47.5 3 M 47.5 0 C 73.7335205078125 0 95 21.2664794921875 95 47.5 C 95 73.7335205078125 73.7335205078125 95 47.5 95 C 21.2664794921875 95 0 73.7335205078125 0 47.5 C 0 21.2664794921875 21.2664794921875 0 47.5 0 Z" stroke="none" fill="#83793c"/>
                    </g>
                  </g>
                </g>
              </g>
            </g>
          </g>
        </g>
      </g>
      <g id="self-knowledge_18659707" transform="translate(216.196 5674.37)">
        <g id="Group_1202084" data-name="Group 1202084" transform="translate(9.409 6.775)">
          <path id="Path_1047200" data-name="Path 1047200" d="M29.823,76.468,30.8,87.542H41.931V76.55a2.911,2.911,0,0,0-1.5-2.6l-4.543-2.636-2.961,5.151L30.35,73.892v1.359a1.648,1.648,0,0,1-.527,1.218Z" transform="translate(-15.423 -26.781)" fill="#24d1af" fill-rule="evenodd"/>
          <path id="Path_1047201" data-name="Path 1047201" d="M63.215,38.659l12.837-7.4V13.349l-7.788,4.5a5.363,5.363,0,0,1-.69,1.2,4.725,4.725,0,0,0-.994,2.941V23H65.79V25.01h-.872V26a1.013,1.013,0,0,1-.994,1.014h-.71v11.64Z" transform="translate(-24.924 -10.286)" fill="#e6e7e8" fill-rule="evenodd"/>
          <path id="Path_1047202" data-name="Path 1047202" d="M58.109,38.659V27.017H57.4A1.013,1.013,0,0,1,56.406,26v-.994h-.892V23h-.771V21.987a4.725,4.725,0,0,0-.994-2.941,4.707,4.707,0,0,1-.69-1.2l-7.788-4.5V31.256Z" transform="translate(-19.819 -10.286)" fill="#fff" fill-rule="evenodd"/>
          <path id="Path_1047203" data-name="Path 1047203" d="M58.714,39.005V27.364h-.709a1.013,1.013,0,0,1-.994-1.014v-.994h-.892V23.348h-.771V22.334a4.725,4.725,0,0,0-.994-2.941,4.707,4.707,0,0,1-.69-1.2L47.4,14.567V30.831a2.789,2.789,0,0,0,1.44,2.475Z" transform="translate(-20.424 -10.633)" fill="#f1f2f2" fill-rule="evenodd"/>
          <path id="Path_1047204" data-name="Path 1047204" d="M61.037,9.068a5.455,5.455,0,0,1,4.36,8.761,4.725,4.725,0,0,0-.994,2.941v1.015H57.671V20.769a4.725,4.725,0,0,0-.994-2.941,5.455,5.455,0,0,1,4.36-8.761Z" transform="translate(-22.747 -9.068)" fill="#fedf5b" fill-rule="evenodd"/>
          <path id="Path_1047205" data-name="Path 1047205" d="M61.737,9.1a5.448,5.448,0,0,1,3.974,8.741,4.725,4.725,0,0,0-.994,2.941v1.015H58.755V20.778a4.709,4.709,0,0,0-.973-2.941,5.311,5.311,0,0,1-1.116-3.285A5.456,5.456,0,0,1,61.737,9.1Z" transform="translate(-23.061 -9.076)" fill="#ffb53b" fill-rule="evenodd"/>
          <path id="Path_1047206" data-name="Path 1047206" d="M59.587,26.842h5.172V28.85H59.587Z" transform="translate(-23.892 -14.126)" fill="#c7cfe1" fill-rule="evenodd"/>
          <path id="Path_1047207" data-name="Path 1047207" d="M61.828,31.655h1.419a1.013,1.013,0,0,0,.994-1.014v-.994H60.834v.994A1.013,1.013,0,0,0,61.828,31.655Z" transform="translate(-24.247 -14.924)" fill="#dfe7f4" fill-rule="evenodd"/>
          <path id="Path_1047208" data-name="Path 1047208" d="M63.047,31.655h.547a1.013,1.013,0,0,0,.994-1.014v-.994H62.053v.994A1.013,1.013,0,0,0,63.047,31.655Z" transform="translate(-24.594 -14.924)" fill="#c7cfe1" fill-rule="evenodd"/>
          <path id="Path_1047209" data-name="Path 1047209" d="M18.116,70.462l2.109-2.008,5.131,2.961L21.1,75.654Z" transform="translate(-12.092 -25.966)" fill="#dfe7f4" fill-rule="evenodd"/>
          <path id="Path_1047210" data-name="Path 1047210" d="M20.376,68.8l.366-.344,5.131,2.961-3.325,3.305-2.413-4.178A1.383,1.383,0,0,1,20.376,68.8Z" transform="translate(-12.608 -25.966)" fill="#c7cfe1" fill-rule="evenodd"/>
          <path id="Path_1047211" data-name="Path 1047211" d="M35.455,70.462l-2.089-2.008-5.131,2.961,4.239,4.238Z" transform="translate(-14.971 -25.966)" fill="#dfe7f4" fill-rule="evenodd"/>
          <path id="Path_1047212" data-name="Path 1047212" d="M36.224,70.462l-2.089-2.008-2.474,1.419a1.356,1.356,0,0,0-.71,1.055,1.393,1.393,0,0,0,.406,1.2L33.851,74.6Z" transform="translate(-15.74 -25.966)" fill="#c7cfe1" fill-rule="evenodd"/>
          <path id="Path_1047213" data-name="Path 1047213" d="M36.23,86.434H40.1a.58.58,0,0,0,.568-.568v-4.4h-5.01v4.4A.581.581,0,0,0,36.23,86.434Z" transform="translate(-17.085 -29.668)" fill="#dfe7f4" fill-rule="evenodd"/>
          <path id="Path_1047214" data-name="Path 1047214" d="M37.307,86.434h3.1a.58.58,0,0,0,.568-.568v-4.4H36.739v4.4A.568.568,0,0,0,37.307,86.434Z" transform="translate(-17.391 -29.668)" fill="#c7cfe1" fill-rule="evenodd"/>
          <path id="Path_1047215" data-name="Path 1047215" d="M38.214,54.014h1.359a1.369,1.369,0,1,0,0-2.737H38.214Z" transform="translate(-17.811 -21.078)" fill="#f9ad95" fill-rule="evenodd"/>
          <path id="Path_1047216" data-name="Path 1047216" d="M16.488,54.014H15.11a1.369,1.369,0,0,1,0-2.737h1.379Z" transform="translate(-10.85 -21.078)" fill="#f9ad95" fill-rule="evenodd"/>
          <path id="Path_1047217" data-name="Path 1047217" d="M64.434,59.95H62.609l-.548,1.724-.324.973a9.228,9.228,0,0,0-2.109.873l-.912-.466-1.6-.811-1.3,1.278L54.538,64.8l.831,1.623.446.893a9.752,9.752,0,0,0-.872,2.129l-.974.3-1.724.568v3.629l1.724.568.974.3a9.751,9.751,0,0,0,.872,2.129l-.446.892-.831,1.623,1.278,1.277,1.3,1.3,1.6-.831.912-.466a9.245,9.245,0,0,0,2.109.892l.324.954.548,1.724h3.63l.567-1.724.3-.954a9.852,9.852,0,0,0,2.13-.892l.892.466,1.623.831,1.278-1.3,1.3-1.277L73.5,77.838l-.466-.892a9.883,9.883,0,0,0,.892-2.129l.953-.3,1.724-.568V70.314l-1.724-.568-.953-.3a9.918,9.918,0,0,0-.892-2.129l.466-.893.831-1.623-1.3-1.277-1.278-1.278-1.623.811-.892.466a9.8,9.8,0,0,0-2.13-.873l-.3-.973-.567-1.724Z" transform="translate(-21.804 -23.546)" fill="#ffb53b" fill-rule="evenodd"/>
          <path id="Path_1047218" data-name="Path 1047218" d="M42.932,42.2H71.3a1.852,1.852,0,0,0,1.845-1.845V25.569A1.852,1.852,0,0,0,71.3,23.724H69.479V34.209l-12.837,7.4L43.8,34.209V23.724H41.978a1.856,1.856,0,0,0-1.865,1.845v9.9a7.039,7.039,0,0,1,1.379,4.2v2.15A2.886,2.886,0,0,0,42.932,42.2Z" transform="translate(-18.351 -13.238)" fill="#1f3259" fill-rule="evenodd"/>
          <path id="Path_1047219" data-name="Path 1047219" d="M33.99,43.157A7.2,7.2,0,0,0,26.831,36H21.558c-2.008,0-3.651,1.136-3.651,2.516H16.265a2.531,2.531,0,0,0-2.515,2.535v4.826a4.843,4.843,0,0,0,2.737-.182,5.575,5.575,0,0,0,1.055-.507A5.105,5.105,0,0,0,19.713,42a8.525,8.525,0,0,0,10.2,2.616A2.97,2.97,0,0,0,31.252,46.5c.061.041.142.081.2.122a3,3,0,0,0,2.535.041V43.157Z" transform="translate(-10.85 -16.731)" fill="#1f3259" fill-rule="evenodd"/>
          <path id="Path_1047220" data-name="Path 1047220" d="M17.577,48.079v3.589a7.382,7.382,0,0,0,14.765,0V48.889A2.969,2.969,0,0,1,31,47a8.525,8.525,0,0,1-10.2-2.616,5.106,5.106,0,0,1-2.17,3.184,5.535,5.535,0,0,1-1.055.508Z" transform="translate(-11.939 -19.118)" fill="#ffc7b3" fill-rule="evenodd"/>
          <path id="Path_1047221" data-name="Path 1047221" d="M26.146,64.278a7.4,7.4,0,0,1-4.4-1.46v4.3l4.644,2.677,4.239-2.454V62.756A7.333,7.333,0,0,1,26.146,64.278Z" transform="translate(-13.125 -24.345)" fill="#ffc7b3" fill-rule="evenodd"/>
          <path id="Path_1047222" data-name="Path 1047222" d="M26.525,64.278a7.015,7.015,0,0,1-3.447-.873v4.239l3.69,2.15,4.239-2.454V62.756A7.333,7.333,0,0,1,26.525,64.278Z" transform="translate(-13.504 -24.345)" fill="#f9ad95" fill-rule="evenodd"/>
          <path id="Path_1047223" data-name="Path 1047223" d="M26.233,78.517,25.26,89.591H29.5l-.973-11.074a1.641,1.641,0,0,1-2.292,0Z" transform="translate(-14.125 -28.83)" fill="#c7cfe1" fill-rule="evenodd"/>
          <path id="Path_1047224" data-name="Path 1047224" d="M26.41,76.832a1.64,1.64,0,0,0,2.292,0,1.653,1.653,0,0,0,.527-1.216V74.257l-1.663-1.663-1.683,1.663v1.359a1.654,1.654,0,0,0,.528,1.216Z" transform="translate(-14.302 -27.144)" fill="#334973" fill-rule="evenodd"/>
          <path id="Path_1047225" data-name="Path 1047225" d="M28.019,77.278a1.778,1.778,0,0,0,.892-.446,1.653,1.653,0,0,0,.527-1.216V74.257l-1.663-1.663L26.62,73.729v1.887a1.649,1.649,0,0,0,.527,1.216A1.8,1.8,0,0,0,28.019,77.278Z" transform="translate(-14.512 -27.144)" fill="#1f3259" fill-rule="evenodd"/>
          <path id="Path_1047226" data-name="Path 1047226" d="M20.831,87.542,21.8,76.468a1.651,1.651,0,0,1-.527-1.216V73.893L18.7,76.469,15.74,71.318,11.2,73.954a2.911,2.911,0,0,0-1.5,2.6V87.542H20.831Z" transform="translate(-9.696 -26.781)" fill="#24d1af" fill-rule="evenodd"/>
          <path id="Path_1047227" data-name="Path 1047227" d="M18.632,48.838a5.554,5.554,0,0,1-1.055.507v3.589a7.392,7.392,0,0,0,7.382,7.382,4.481,4.481,0,0,0,.527-.021,7.39,7.39,0,0,1-6.855-7.361v-4.1Z" transform="translate(-11.939 -20.384)" fill="#ffdecf" fill-rule="evenodd"/>
          <path id="Path_1047228" data-name="Path 1047228" d="M15.008,46.874V42.048a2.532,2.532,0,0,1,2.516-2.535H16.266a2.531,2.531,0,0,0-2.515,2.535v4.826a5.182,5.182,0,0,0,1.683.081A3.193,3.193,0,0,1,15.008,46.874Z" transform="translate(-10.85 -17.731)" fill="#334973" fill-rule="evenodd"/>
          <path id="Path_1047229" data-name="Path 1047229" d="M19.562,38.513H20.82c0-1.379,1.643-2.516,3.651-2.516H23.213C21.2,36,19.562,37.133,19.562,38.513Z" transform="translate(-12.503 -16.731)" fill="#334973" fill-rule="evenodd"/>
          <path id="Path_1047230" data-name="Path 1047230" d="M11.137,87.541V76.55a2.911,2.911,0,0,1,1.5-2.6l3.468-2.008-.365-.628L11.2,73.953a2.911,2.911,0,0,0-1.5,2.6V87.541Z" transform="translate(-9.696 -26.781)" fill="#58ed9b" fill-rule="evenodd"/>
          <path id="Path_1047231" data-name="Path 1047231" d="M25.828,89.59l.934-10.728a1.569,1.569,0,0,1-.527-.345l-.973,11.074h.567Z" transform="translate(-14.125 -28.83)" fill="#dfe7f4" fill-rule="evenodd"/>
          <path id="Path_1047232" data-name="Path 1047232" d="M59.587,26.842h.892V28.85h-.892Z" transform="translate(-23.892 -14.126)" fill="#dfe7f4" fill-rule="evenodd"/>
          <path id="Path_1047233" data-name="Path 1047233" d="M65.012,62.648a9.386,9.386,0,0,0-1.258.446l.831.426a9.8,9.8,0,0,1,2.13-.873l.3-.973.568-1.724h-1.7l-.548,1.724Z" transform="translate(-25.078 -23.547)" fill="#fedf5b" fill-rule="evenodd"/>
          <path id="Path_1047234" data-name="Path 1047234" d="M57.051,67.331l-.831-1.623,1.3-1.277.71-.71-1.116-.568-1.3,1.278-1.278,1.277.831,1.623.446.893a9.752,9.752,0,0,0-.872,2.129l-.974.3-1.724.568v3.629l1.724.568.974.3a9.752,9.752,0,0,0,.872,2.129l-.446.892-.831,1.623,1.278,1.277,1.3,1.3,1.116-.588-.71-.71-1.3-1.277.831-1.623.466-.892a9.847,9.847,0,0,1-.892-2.129l-.953-.3-1.724-.568V71.225l1.724-.568.953-.3a9.882,9.882,0,0,1,.892-2.129Z" transform="translate(-21.803 -24.458)" fill="#fedf5b" fill-rule="evenodd"/>
          <path id="Path_1047235" data-name="Path 1047235" d="M66.715,89.9A9.852,9.852,0,0,1,64.585,89l-.831.426a9.347,9.347,0,0,0,1.258.466l.324.954.548,1.724h1.7l-.568-1.724Z" transform="translate(-25.078 -31.814)" fill="#fedf5b" fill-rule="evenodd"/>
          <path id="Path_1047236" data-name="Path 1047236" d="M41.492,39.664v-14.1a1.853,1.853,0,0,1,1.846-1.845H41.979a1.856,1.856,0,0,0-1.865,1.845v9.9A7.04,7.04,0,0,1,41.492,39.664Z" transform="translate(-18.351 -13.238)" fill="#334973" fill-rule="evenodd"/>
        </g>
        <g id="Group_1202086" data-name="Group 1202086" transform="translate(8.689 1.01)">
          <g id="Group_1202085" data-name="Group 1202085">
            <path id="Path_1047237" data-name="Path 1047237" d="M62.357,16.545h-1.11V9.837a.716.716,0,0,0-1.074-.62L53.85,12.872a6.191,6.191,0,1,0-12.311,0L35.216,9.217a.716.716,0,0,0-1.074.62v6.707h-1.11a2.573,2.573,0,0,0-2.581,2.561V27.18a7.831,7.831,0,0,0-5.065-1.854H20.113c-2.075,0-3.817,1.077-4.258,2.516H14.82a3.244,3.244,0,0,0-3.23,3.25v4.826c0,.022.011.042.014.064a.763.763,0,0,0,.077.264.637.637,0,0,0,.076.113.608.608,0,0,0,.094.1.756.756,0,0,0,.109.074.716.716,0,0,0,.133.059c.021.007.037.021.059.026.1.021.2.034.293.049a2.079,2.079,0,0,0,1.219,3.76h.747a8.091,8.091,0,0,0,2.9,5.171v3a.675.675,0,0,0-.264.151l-2.109,2.008c-.016.015-.024.035-.039.052L10.55,53.327a3.624,3.624,0,0,0-1.86,3.217v3.507a.715.715,0,0,0,1.431,0V56.543a2.2,2.2,0,0,1,1.145-1.978l3.924-2.278,2.6,4.529a.715.715,0,0,0,1.125.151L20.3,55.584a2.374,2.374,0,0,0,.469,1.114l-.889,10.121H10.12V64.027a.715.715,0,0,0-1.431,0v3.509a.715.715,0,0,0,.715.715H35.911a.715.715,0,0,0,.715-.715V56.544a3.622,3.622,0,0,0-1.857-3.215L30.421,50.8c-.014-.015-.021-.035-.037-.049l-2.089-2.008a.706.706,0,0,0-.673-.172V45.528a8.087,8.087,0,0,0,2.817-5.1h.728a2.078,2.078,0,0,0,1.8-3.151.691.691,0,0,0,.1-.073.791.791,0,0,0,.074-.109.8.8,0,0,0,.074-.12.751.751,0,0,0,.034-.166.642.642,0,0,0,.019-.1v-.338a3.593,3.593,0,0,0,.725.081H62.359a2.564,2.564,0,0,0,2.561-2.561V19.106a2.565,2.565,0,0,0-2.562-2.561ZM47.694,7.491a4.765,4.765,0,0,1,4.761,4.759,4.715,4.715,0,0,1-.972,2.856,5.438,5.438,0,0,0-1.137,3.37v.3h-5.3v-.3A5.445,5.445,0,0,0,43.9,15.1a4.706,4.706,0,0,1-.971-2.853,4.765,4.765,0,0,1,4.76-4.759Zm1.861,12.716v.576H45.814v-.576ZM14.327,38.995h-.663a.653.653,0,0,1,0-1.306h.663Zm6.19,14.359c-.022.021-.043.041-.063.063L18.565,55.3l-2.237-3.9,1.315-1.251L21.5,52.376ZM22.668,51.4,18.74,49.13v-2.6a8.031,8.031,0,0,0,7.452-.039v2.876Zm.948,2.785v1.063a.958.958,0,1,1-1.916,0V54.195l.967-.962ZM21.32,66.82l.812-9.242a2.207,2.207,0,0,0,1.052,0L24,66.82ZM34.055,54.568A2.2,2.2,0,0,1,35.2,56.544V66.82H25.433L24.543,56.7a2.371,2.371,0,0,0,.47-1.123L26.4,56.967a.716.716,0,0,0,.506.21A.7.7,0,0,0,27,57.169a.715.715,0,0,0,.526-.352l2.6-4.529Zm-6.364-4.417,1.3,1.248-2.238,3.9-1.912-1.913,0,0-1-1Zm1.4-10.826a6.667,6.667,0,0,1-13.333,0V36.219a5.96,5.96,0,0,0,.731-.393,5.8,5.8,0,0,0,2.055-2.388A9.212,9.212,0,0,0,28.032,35.6a3.639,3.639,0,0,0,1.06,1.315Zm2.074-.331h-.643V37.688h.643a.653.653,0,1,1,0,1.306Zm.663-2.8a2.256,2.256,0,0,1-1.493-.164,2.212,2.212,0,0,1-1.168-1.516.714.714,0,0,0-.988-.509,7.788,7.788,0,0,1-9.345-2.4.716.716,0,0,0-1.267.283A4.223,4.223,0,0,1,14.8,35.069c-.016.006-.032.01-.047.016a4.246,4.246,0,0,1-1.729.214V31.09a1.812,1.812,0,0,1,1.8-1.819h1.643a.715.715,0,0,0,.715-.715c0-.959,1.372-1.8,2.936-1.8h5.273A6.451,6.451,0,0,1,31.83,33.2v2.994Zm2.156-1.174a2.148,2.148,0,0,1-.725-.142V33.2a7.83,7.83,0,0,0-1.379-4.444V19.106a1.142,1.142,0,0,1,1.15-1.13h1.11v9.77a.712.712,0,0,0,.358.619L46.041,35.02Zm12.994-1.111L35.573,27.332V11.076l6.516,3.769a6.292,6.292,0,0,0,.673,1.119,4,4,0,0,1,.85,2.513v1.015a.715.715,0,0,0,.715.715h.055V21.5a.715.715,0,0,0,.715.715h.177v.28a1.72,1.72,0,0,0,1.7,1.727v9.689Zm.006-11.119a.3.3,0,0,1-.279-.3v-.28h1.977v.28a.3.3,0,0,1-.279.3Zm16.5,11.1a1.131,1.131,0,0,1-1.13,1.13H49.347l4.506-2.6a.715.715,0,0,0-.715-1.239L48.41,33.909V24.22a1.721,1.721,0,0,0,1.7-1.727v-.28h.157a.715.715,0,0,0,.715-.715V20.206h.075a.715.715,0,0,0,.715-.715V18.476a4,4,0,0,1,.849-2.511,6.268,6.268,0,0,0,.674-1.12l6.516-3.769V27.333L56.6,29.195a.716.716,0,0,0,.359,1.334.706.706,0,0,0,.358-.1l3.569-2.068a.717.717,0,0,0,.357-.619v-9.77h1.11a1.131,1.131,0,0,1,1.13,1.13V33.89ZM47.694,5a.715.715,0,0,0,.715-.715V1.725a.715.715,0,1,0-1.431,0V4.281A.715.715,0,0,0,47.694,5Zm-5.038.821a.718.718,0,0,0,.617.353.717.717,0,0,0,.616-1.079l-1.3-2.211a.715.715,0,0,0-1.233.725ZM37.442,8.044l2.231,1.277a.716.716,0,0,0,.711-1.242L38.153,6.8a.716.716,0,1,0-.711,1.242ZM51.758,6.075a.7.7,0,0,0,.357.1.716.716,0,0,0,.62-.358L54.013,3.6a.715.715,0,1,0-1.239-.715L51.5,5.1A.714.714,0,0,0,51.758,6.075Zm3.6,3.341a.7.7,0,0,0,.357-.1l2.211-1.277A.715.715,0,0,0,57.214,6.8L55,8.081a.716.716,0,0,0,.358,1.336ZM43.468,27.226l-5.314-3.061A.715.715,0,0,0,37.44,25.4l5.314,3.061a.7.7,0,0,0,.356.1.716.716,0,0,0,.358-1.336Zm0-4.826-5.314-3.063a.715.715,0,0,0-.714,1.239l5.314,3.063a.7.7,0,0,0,.356.1.716.716,0,0,0,.358-1.336Zm-16.2,36.173v4.4a1.3,1.3,0,0,0,1.284,1.284h3.873a1.3,1.3,0,0,0,1.284-1.284v-4.4a.715.715,0,0,0-.715-.715h-5.01A.715.715,0,0,0,27.266,58.572Zm1.431.715h3.579v3.538H28.7ZM54.27,50.8a.716.716,0,0,0,.64-1.28,6.455,6.455,0,0,0-2.876-.685,6.533,6.533,0,0,0-6.515,6.537,6.45,6.45,0,0,0,.663,2.875.717.717,0,0,0,.641.4.727.727,0,0,0,.319-.075.716.716,0,0,0,.32-.96,5.017,5.017,0,0,1-.512-2.234,5.1,5.1,0,0,1,5.084-5.106,5,5,0,0,1,2.236.533Zm2.67,1.349a.715.715,0,0,0-.34.953,5.267,5.267,0,0,1,.519,2.269,5.091,5.091,0,0,1-5.085,5.085,5,5,0,0,1-2.255-.534.716.716,0,0,0-.64,1.28,6.415,6.415,0,0,0,2.9.685,6.524,6.524,0,0,0,6.516-6.516,6.685,6.685,0,0,0-.658-2.883.716.716,0,0,0-.953-.34Zm7.487.718L62.1,52.1a10.57,10.57,0,0,0-.652-1.568l1.123-2.181a.715.715,0,0,0-.135-.836l-2.571-2.551a.714.714,0,0,0-.826-.135l-2.194,1.111a10.543,10.543,0,0,0-1.562-.644l-.761-2.342a.717.717,0,0,0-.68-.492H50.21a.714.714,0,0,0-.682.5l-.751,2.332a10.077,10.077,0,0,0-1.558.645l-2.183-1.108a.713.713,0,0,0-.826.129l-2.578,2.56a.714.714,0,0,0-.131.831l1.11,2.181a10.3,10.3,0,0,0-.646,1.568l-2.343.763a.715.715,0,0,0-.492.679v3.629a.714.714,0,0,0,.492.679l2.343.763a10.338,10.338,0,0,0,.646,1.568L41.5,62.36a.716.716,0,0,0,.131.833l2.576,2.576a.717.717,0,0,0,.836.129l2.17-1.122a9.908,9.908,0,0,0,1.565.657l.751,2.319a.717.717,0,0,0,.682.5h3.63a.716.716,0,0,0,.68-.492l.761-2.33a10.56,10.56,0,0,0,1.568-.654L59.03,65.9a.714.714,0,0,0,.836-.135L62.434,63.2a.715.715,0,0,0,.135-.837l-1.123-2.181a10.584,10.584,0,0,0,.652-1.566l2.33-.763a.715.715,0,0,0,.492-.679V53.541a.717.717,0,0,0-.492-.678Zm-.94,3.791-2.179.708a.715.715,0,0,0-.467.478,9.154,9.154,0,0,1-.827,1.975A.718.718,0,0,0,60,60.5l1.056,2.043-1.84,1.84L57.173,63.33a.718.718,0,0,0-.689.014,9.118,9.118,0,0,1-1.977.827.716.716,0,0,0-.477.468l-.708,2.18H50.733l-.718-2.191a.715.715,0,0,0-.473-.456,8.574,8.574,0,0,1-1.948-.821.708.708,0,0,0-.691-.022l-2.054,1.059L43.012,62.55l1.043-2.057a.719.719,0,0,0-.012-.664,8.915,8.915,0,0,1-.809-1.972.715.715,0,0,0-.477-.5l-2.2-.707V54.06l2.2-.708a.716.716,0,0,0,.477-.5,8.942,8.942,0,0,1,.809-1.972.718.718,0,0,0,.012-.663l-1.043-2.058,1.836-1.822L46.9,47.386a.716.716,0,0,0,.677-.014,8.551,8.551,0,0,1,1.946-.806.718.718,0,0,0,.491-.464l.717-2.208h2.589l.707,2.2a.717.717,0,0,0,.494.476,9.093,9.093,0,0,1,1.975.811.714.714,0,0,0,.675.006l2.042-1.041,1.84,1.827L60,50.21a.716.716,0,0,0,.014.688,9.166,9.166,0,0,1,.827,1.976.714.714,0,0,0,.467.476l2.179.71v2.594Z" transform="translate(-8.689 -1.01)"/>
          </g>
        </g>
      </g>
    </g>
  </g>
</svg>
