<svg xmlns="http://www.w3.org/2000/svg" xmlns:xlink="http://www.w3.org/1999/xlink" width="113" height="113" viewBox="0 0 113 113">
  <defs>
    <filter id="Path_982547" x="0" y="0" width="113" height="113" filterUnits="userSpaceOnUse">
      <feOffset dy="3" input="SourceAlpha"/>
      <feGaussianBlur stdDeviation="3" result="blur"/>
      <feFlood flood-opacity="0.161"/>
      <feComposite operator="in" in2="blur"/>
      <feComposite in="SourceGraphic"/>
    </filter>
  </defs>
  <g id="Group_1202193" data-name="Group 1202193" transform="translate(-7320.49 -7554.651)">
    <g id="Group_1202127" data-name="Group 1202127">
      <g id="Group_1201928" data-name="Group 1201928" transform="translate(2034 5634.378)">
        <g id="Group_1176928" data-name="Group 1176928" transform="translate(5295.49 1926.273)">
          <g id="Group_1172322" data-name="Group 1172322" transform="translate(0 0)">
            <g id="Group_1164700" data-name="Group 1164700">
              <g id="Group_1160931" data-name="Group 1160931">
                <g id="Group_1160749" data-name="Group 1160749">
                  <g id="Group_1158891" data-name="Group 1158891">
                    <g id="Group_1157406" data-name="Group 1157406">
                      <g id="Group_1155793" data-name="Group 1155793">
                        <g id="Group_1154704" data-name="Group 1154704">
                          <g id="Group_1150790" data-name="Group 1150790">
                            <g id="Group_1154214" data-name="Group 1154214">
                              <g id="Group_1152583" data-name="Group 1152583">
                                <g id="Group_1146973" data-name="Group 1146973">
                                  <g id="Group_1146954" data-name="Group 1146954">
                                    <g transform="matrix(1, 0, 0, 1, -9, -6)" filter="url(#Path_982547)">
                                      <g id="Path_982547-2" data-name="Path 982547" transform="translate(9 6)" fill="#ebe9f0">
                                        <path d="M 47.5000114440918 93.49987030029297 C 41.28938293457031 93.49987030029297 35.26534652709961 92.28384399414062 29.5951976776123 89.88558959960938 C 24.11773109436035 87.56881713867188 19.19814491271973 84.25183868408203 14.97310447692871 80.02680206298828 C 10.74805164337158 75.80176544189453 7.43107795715332 70.88218688964844 5.114304542541504 65.40472412109375 C 2.716038227081299 59.73458862304688 1.500011444091797 53.71054840087891 1.500011444091797 47.49993515014648 C 1.500011444091797 41.28932189941406 2.716038227081299 35.26528167724609 5.114304542541504 29.59514808654785 C 7.43107795715332 24.1176815032959 10.74805164337158 19.1981086730957 14.97310447692871 14.97306823730469 C 19.19814491271973 10.74802875518799 24.11773109436035 7.431055068969727 29.5951976776123 5.11428165435791 C 35.26534652709961 2.716028451919556 41.28938293457031 1.500001788139343 47.5000114440918 1.500001788139343 C 53.71063995361328 1.500001788139343 59.73467636108398 2.716028451919556 65.40482330322266 5.11428165435791 C 70.88229370117188 7.431055068969727 75.8018798828125 10.74802875518799 80.02691650390625 14.97306823730469 C 84.25196838378906 19.1981086730957 87.56894683837891 24.1176815032959 89.88571929931641 29.59514808654785 C 92.28398132324219 35.26528167724609 93.50001525878906 41.28932189941406 93.50001525878906 47.49993515014648 C 93.50001525878906 53.71054840087891 92.28398132324219 59.73458862304688 89.88571929931641 65.40472412109375 C 87.56894683837891 70.88218688964844 84.25196838378906 75.80176544189453 80.02691650390625 80.02680206298828 C 75.8018798828125 84.25183868408203 70.88229370117188 87.56881713867188 65.40482330322266 89.88558959960938 C 59.73467636108398 92.28384399414062 53.71063995361328 93.49987030029297 47.5000114440918 93.49987030029297 Z" stroke="none"/>
                                        <path d="M 47.5000114440918 3 C 41.49122619628906 3 35.66378021240234 4.1761474609375 30.17951965332031 6.495796203613281 C 24.880859375 8.7369384765625 20.12153625488281 11.94596862792969 16.03376770019531 16.03373718261719 C 11.94598388671875 20.12149047851562 8.736968994140625 24.88081359863281 6.495811462402344 30.17947387695312 C 4.176162719726562 35.66371917724609 3.000007629394531 41.49116516113281 3.000007629394531 47.49993515014648 C 3.000007629394531 53.50870513916016 4.176162719726562 59.33615112304688 6.495811462402344 64.82039642333984 C 8.736968994140625 70.11905670166016 11.94598388671875 74.87837982177734 16.03376770019531 78.96613311767578 C 20.12153625488281 83.05390167236328 24.880859375 86.26293182373047 30.17951965332031 88.50407409667969 C 35.66378021240234 90.82372283935547 41.49122619628906 91.99987030029297 47.5000114440918 91.99987030029297 C 53.50879669189453 91.99987030029297 59.33624267578125 90.82372283935547 64.82050323486328 88.50407409667969 C 70.11916351318359 86.26293182373047 74.87848663330078 83.05390167236328 78.96625518798828 78.96613311767578 C 83.05403900146484 74.87837982177734 86.2630615234375 70.11905670166016 88.50421142578125 64.82039642333984 C 90.82386016845703 59.33615112304688 92.00001525878906 53.50870513916016 92.00001525878906 47.49993515014648 C 92.00001525878906 41.49116516113281 90.82386016845703 35.66371917724609 88.50421142578125 30.17947387695312 C 86.2630615234375 24.88081359863281 83.05403900146484 20.12149047851562 78.96625518798828 16.03373718261719 C 74.87848663330078 11.94596862792969 70.11916351318359 8.7369384765625 64.82050323486328 6.495796203613281 C 59.33624267578125 4.1761474609375 53.50879669189453 3 47.5000114440918 3 M 47.5000114440918 0 C 73.73353576660156 0 95.00001525878906 21.26644134521484 95.00001525878906 47.49993515014648 C 95.00001525878906 73.73342895507812 73.73353576660156 94.99987030029297 47.5000114440918 94.99987030029297 C 21.26648712158203 94.99987030029297 7.62939453125e-06 73.73342895507812 7.62939453125e-06 47.49993515014648 C 7.62939453125e-06 21.26644134521484 21.26648712158203 0 47.5000114440918 0 Z" stroke="none" fill="#453179"/>
                                      </g>
                                    </g>
                                  </g>
                                </g>
                              </g>
                            </g>
                          </g>
                        </g>
                      </g>
                    </g>
                  </g>
                </g>
              </g>
            </g>
          </g>
        </g>
      </g>
      <g id="FillOutline" transform="translate(7345 7576)">
        <rect id="Rectangle_417748" data-name="Rectangle 417748" width="46" height="39" transform="translate(9 9)" fill="#dfd9d3"/>
        <rect id="Rectangle_417749" data-name="Rectangle 417749" width="50" height="4" transform="translate(7 7)" fill="#196aaf"/>
        <rect id="Rectangle_417750" data-name="Rectangle 417750" width="14" height="6" transform="translate(13 38)" fill="#56a8c6"/>
        <path id="Path_1047601" data-name="Path 1047601" d="M39,29l-4,2,4,2h2V29Z" fill="#196aaf"/>
        <path id="Path_1047602" data-name="Path 1047602" d="M57,29H41v4H57a2,2,0,0,0,0-4Z" fill="#56a8c6"/>
        <rect id="Rectangle_417751" data-name="Rectangle 417751" width="28" height="6" transform="translate(31 38)" fill="#196aaf"/>
        <path id="Path_1047603" data-name="Path 1047603" d="M28,25V22.162a10,10,0,1,0-8,0V25Z" fill="#f7931e"/>
        <path id="Path_1047604" data-name="Path 1047604" d="M20,29l2,4h4l2-4Z" fill="#6e6350"/>
        <rect id="Rectangle_417752" data-name="Rectangle 417752" width="10" height="4" transform="translate(19 25)" fill="#95866d"/>
        <path id="Path_1047605" data-name="Path 1047605" d="M27,37H13a1,1,0,0,0-1,1v6a1,1,0,0,0,1,1H27a1,1,0,0,0,1-1V38A1,1,0,0,0,27,37Zm-1,6H14V39H26Z"/>
        <path id="Path_1047606" data-name="Path 1047606" d="M8,53h3V51H8a2,2,0,0,1-2-2V30H4V49A4,4,0,0,0,8,53Z"/>
        <rect id="Rectangle_417753" data-name="Rectangle 417753" width="19" height="2" transform="translate(36 2)"/>
        <rect id="Rectangle_417754" data-name="Rectangle 417754" width="13" height="2" transform="translate(42 51)"/>
        <path id="Path_1047607" data-name="Path 1047607" d="M57,34a3,3,0,1,0,0-6H56V12h1a1,1,0,0,0,1-1V7a1,1,0,0,0-1-1H32.479A10.987,10.987,0,0,0,15.521,6H7A1,1,0,0,0,6,7v4a1,1,0,0,0,1,1H8V48a1,1,0,0,0,1,1H31v3.586L23.586,60H14v2H50V60H40.414L33,52.586V49H55a1,1,0,0,0,1-1V45h3a1,1,0,0,0,1-1V38a1,1,0,0,0-1-1H56V34ZM26.414,60,31,55.414V60Zm11.172,0H33V55.414ZM58,31a1,1,0,0,1-1,1H42V30H57A1,1,0,0,1,58,31ZM39.236,32l-2-1,2-1H40v2ZM56,8v2H34.574a10.974,10.974,0,0,0-.788-2ZM24,4a9,9,0,0,1,3.6,17.246,1,1,0,0,0-.6.916V24H25V19.414l3.707-3.707-1.414-1.414L24,17.586l-3.293-3.293-1.414,1.414L23,19.414V24H21V22.162a1,1,0,0,0-.6-.916A9,9,0,0,1,24,4Zm4,22v2H20V26Zm-1.618,4-1,2H22.618l-1-2ZM8,8h6.214a10.974,10.974,0,0,0-.788,2H8ZM58,43H32V39h2v2h2V39h2v2h2V39h2v2h2V39h2v2h2V39h2v2h2V39h2v2h2V39h2Zm-4-6H31a1,1,0,0,0-1,1v6a1,1,0,0,0,1,1H54v2H10V12h3.051c-.03.33-.051.662-.051,1a11,11,0,0,0,6,9.8L19,24a1,1,0,0,0-1,1v4a1,1,0,0,0,1,1h.382L21.1,33.447A1,1,0,0,0,22,34h4a1,1,0,0,0,.9-.553L28.618,30H29a1,1,0,0,0,1-1V25a1,1,0,0,0-1-1V22.8A11,11,0,0,0,35,13c0-.338-.021-.67-.051-1H54V28H39a1,1,0,0,0-.447.105l-4,2a1,1,0,0,0,0,1.79l4,2A1,1,0,0,0,39,34H54Z"/>
        <path id="Path_1047608" data-name="Path 1047608" d="M26.9,8.925a4.965,4.965,0,0,1,2.033,3.242l1.972-.334A7,7,0,0,0,22.833,6.1l.334,1.972a4.966,4.966,0,0,1,3.733.853Z"/>
        <rect id="Rectangle_417755" data-name="Rectangle 417755" width="2" height="2" transform="translate(38 15)"/>
        <rect id="Rectangle_417756" data-name="Rectangle 417756" width="9" height="2" transform="translate(42 15)"/>
        <rect id="Rectangle_417757" data-name="Rectangle 417757" width="13" height="2" transform="translate(38 19)"/>
        <rect id="Rectangle_417758" data-name="Rectangle 417758" width="13" height="2" transform="translate(38 23)"/>
        <rect id="Rectangle_417759" data-name="Rectangle 417759" width="2" height="2" transform="translate(4 26)"/>
        <rect id="Rectangle_417760" data-name="Rectangle 417760" width="2" height="2" transform="translate(10 60)"/>
      </g>
    </g>
  </g>
</svg>
