<svg xmlns="http://www.w3.org/2000/svg" xmlns:xlink="http://www.w3.org/1999/xlink" width="113" height="113" viewBox="0 0 113 113">
  <defs>
    <filter id="Path_982547" x="0" y="0" width="113" height="113" filterUnits="userSpaceOnUse">
      <feOffset dy="3" input="SourceAlpha"/>
      <feGaussianBlur stdDeviation="3" result="blur"/>
      <feFlood flood-opacity="0.161"/>
      <feComposite operator="in" in2="blur"/>
      <feComposite in="SourceGraphic"/>
    </filter>
    <clipPath id="clip-path">
      <path id="path495" d="M0-682.665H62.271v62.271H0Z" transform="translate(0 682.665)"/>
    </clipPath>
  </defs>
  <g id="Group_1202151" data-name="Group 1202151" transform="translate(-270.75 -2276.704)">
    <g id="Group_1201938" data-name="Group 1201938">
      <g id="Group_1201898" data-name="Group 1201898" transform="translate(-0.25 -364.62)">
        <g id="Group_1201680" data-name="Group 1201680" transform="translate(0 1726.825)">
          <g id="Group_1201330" data-name="Group 1201330" transform="translate(280 920.5)">
            <g id="Group_1172010" data-name="Group 1172010">
              <g id="Group_1171046" data-name="Group 1171046">
                <g id="Group_1148525" data-name="Group 1148525">
                  <g transform="matrix(1, 0, 0, 1, -9, -6)" filter="url(#Path_982547)">
                    <g id="Path_982547-2" data-name="Path 982547" transform="translate(9 6)" fill="#fdfbec">
                      <path d="M 47.5 93.5 C 41.28937149047852 93.5 35.26533508300781 92.28397369384766 29.59518623352051 89.88570404052734 C 24.11771965026855 87.56893157958984 19.19813346862793 84.25196075439453 14.97309303283691 80.02691650390625 C 10.74804019927979 75.80186462402344 7.431066513061523 70.88229370117188 5.114293098449707 65.40481567382812 C 2.716026782989502 59.73468017578125 1.5 53.71062850952148 1.5 47.5 C 1.5 41.28937149047852 2.716026782989502 35.26533508300781 5.114293098449707 29.59518623352051 C 7.431066513061523 24.11771965026855 10.74804019927979 19.19813346862793 14.97309303283691 14.97309303283691 C 19.19813346862793 10.74804019927979 24.11771965026855 7.431066513061523 29.59518623352051 5.114293098449707 C 35.26533508300781 2.716026782989502 41.28937149047852 1.5 47.5 1.5 C 53.71062850952148 1.5 59.73468017578125 2.716026782989502 65.40481567382812 5.114293098449707 C 70.88229370117188 7.431066513061523 75.80186462402344 10.74804019927979 80.02691650390625 14.97309303283691 C 84.25196075439453 19.19813346862793 87.56893157958984 24.11771965026855 89.88570404052734 29.59518623352051 C 92.28397369384766 35.26533508300781 93.5 41.28937149047852 93.5 47.5 C 93.5 53.71062850952148 92.28397369384766 59.73468017578125 89.88570404052734 65.40481567382812 C 87.56893157958984 70.88229370117188 84.25196075439453 75.80186462402344 80.02691650390625 80.02691650390625 C 75.80186462402344 84.25196075439453 70.88229370117188 87.56893157958984 65.40481567382812 89.88570404052734 C 59.73468017578125 92.28397369384766 53.71062850952148 93.5 47.5 93.5 Z" stroke="none"/>
                      <path d="M 47.5 3 C 41.49121475219727 3 35.66376876831055 4.176155090332031 30.17950439453125 6.495796203613281 C 24.88084411621094 8.736953735351562 20.12152099609375 11.94598388671875 16.03375244140625 16.03375244140625 C 11.94598388671875 20.12152099609375 8.736953735351562 24.88084411621094 6.495796203613281 30.17950439453125 C 4.176155090332031 35.66376876831055 3 41.49121475219727 3 47.5 C 3 53.50878524780273 4.176155090332031 59.33623123168945 6.495796203613281 64.82049560546875 C 8.736953735351562 70.11915588378906 11.94598388671875 74.87847900390625 16.03375244140625 78.96624755859375 C 20.12152099609375 83.05401611328125 24.88084411621094 86.26304626464844 30.17950439453125 88.50419616699219 C 35.66376876831055 90.82384490966797 41.49121475219727 92 47.5 92 C 53.50878524780273 92 59.33623123168945 90.82384490966797 64.82049560546875 88.50419616699219 C 70.11915588378906 86.26304626464844 74.87847900390625 83.05401611328125 78.96624755859375 78.96624755859375 C 83.05401611328125 74.87847900390625 86.26304626464844 70.11915588378906 88.50419616699219 64.82049560546875 C 90.82384490966797 59.33623123168945 92 53.50878524780273 92 47.5 C 92 41.49121475219727 90.82384490966797 35.66376876831055 88.50419616699219 30.17950439453125 C 86.26304626464844 24.88084411621094 83.05401611328125 20.12152099609375 78.96624755859375 16.03375244140625 C 74.87847900390625 11.94598388671875 70.11915588378906 8.736953735351562 64.82049560546875 6.495796203613281 C 59.33623123168945 4.176155090332031 53.50878524780273 3 47.5 3 M 47.5 0 C 73.7335205078125 0 95 21.2664794921875 95 47.5 C 95 73.7335205078125 73.7335205078125 95 47.5 95 C 21.2664794921875 95 0 73.7335205078125 0 47.5 C 0 21.2664794921875 21.2664794921875 0 47.5 0 Z" stroke="none" fill="#83793c"/>
                    </g>
                  </g>
                </g>
              </g>
            </g>
          </g>
        </g>
      </g>
      <g id="g489" transform="translate(296.115 2981.734)">
        <g id="g491" transform="translate(0 -682.665)">
          <g id="g493" clip-path="url(#clip-path)">
            <g id="g499" transform="translate(3.466 5.01)">
              <path id="path501" d="M-535.177-268.543a26.858,26.858,0,0,1-26.956,26.759,26.858,26.858,0,0,1-26.761-26.954A26.858,26.858,0,0,1-561.937-295.5a26.857,26.857,0,0,1,26.761,26.954" transform="translate(588.894 295.497)" fill="#fb2b3a"/>
            </g>
            <g id="g503" transform="translate(3.466 5.01)">
              <path id="path505" d="M-30.295-266.593A26.858,26.858,0,0,1-4.946-293.308q-.711-.04-1.433-.043a26.858,26.858,0,0,0-26.956,26.759A26.858,26.858,0,0,0-6.574-239.639c.54,0,1.076-.014,1.608-.043a26.858,26.858,0,0,1-25.328-26.911" transform="translate(33.335 293.352)" fill="#e41f2d"/>
            </g>
            <g id="g507" transform="translate(3.466 5.01)">
              <path id="path509" d="M-535.177-268.543a26.858,26.858,0,0,1-26.956,26.759,26.858,26.858,0,0,1-26.761-26.954A26.858,26.858,0,0,1-561.937-295.5,26.857,26.857,0,0,1-535.177-268.543Z" transform="translate(588.894 295.497)" fill="none" stroke="#000" stroke-linecap="round" stroke-linejoin="round" stroke-miterlimit="10" stroke-width="1.2"/>
            </g>
            <g id="g511" transform="translate(9.14 10.684)">
              <path id="path513" d="M-210.286-422.075a21.046,21.046,0,0,1-14.957-6.259,21.043,21.043,0,0,1-6.15-15,21.222,21.222,0,0,1,21.182-21.105h.079a21.046,21.046,0,0,1,14.957,6.259,21.042,21.042,0,0,1,6.15,15,21.222,21.222,0,0,1-21.182,21.105Z" transform="translate(231.393 464.44)" fill="#fff"/>
            </g>
            <g id="g515" transform="translate(9.14 10.684)">
              <path id="path517" d="M-91.567-359.721a21.043,21.043,0,0,1-6.15-15,21.227,21.227,0,0,1,19.667-21.05c-.479-.034-.961-.053-1.446-.055h-.079a21.222,21.222,0,0,0-21.182,21.105,21.043,21.043,0,0,0,6.15,15,21.046,21.046,0,0,0,14.957,6.259h.079c.51,0,1.015-.019,1.516-.055a21.027,21.027,0,0,1-13.512-6.2" transform="translate(100.757 395.827)" fill="#efe2dd"/>
            </g>
            <g id="g519" transform="translate(9.14 10.684)">
              <path id="path521" d="M-210.286-422.075a21.046,21.046,0,0,1-14.957-6.259,21.043,21.043,0,0,1-6.15-15,21.222,21.222,0,0,1,21.182-21.105h.079a21.046,21.046,0,0,1,14.957,6.259,21.042,21.042,0,0,1,6.15,15,21.222,21.222,0,0,1-21.182,21.105Z" transform="translate(231.393 464.44)" fill="none" stroke="#000" stroke-linecap="round" stroke-linejoin="round" stroke-miterlimit="10" stroke-width="1.2"/>
            </g>
            <g id="g523" transform="translate(14.814 16.358)">
              <path id="path525" d="M-153.888-309.019a15.4,15.4,0,0,1-10.943-4.582,15.405,15.405,0,0,1-4.5-10.983,15.537,15.537,0,0,1,15.508-15.452h.066a15.4,15.4,0,0,1,10.943,4.582,15.4,15.4,0,0,1,4.5,10.983,15.538,15.538,0,0,1-15.5,15.452Z" transform="translate(169.334 340.036)" fill="#fb2b3a"/>
            </g>
            <g id="g527" transform="translate(14.814 16.358)">
              <path id="path529" d="M-81.211-263.366a15.405,15.405,0,0,1-4.5-10.983,15.544,15.544,0,0,1,13.693-15.345,15.751,15.751,0,0,0-1.768-.107h-.066a15.537,15.537,0,0,0-15.508,15.452,15.405,15.405,0,0,0,4.5,10.983,15.405,15.405,0,0,0,10.943,4.582h.073a15.556,15.556,0,0,0,1.807-.107,15.393,15.393,0,0,1-9.175-4.475" transform="translate(89.362 289.801)" fill="#e41f2d"/>
            </g>
            <g id="g531" transform="translate(14.814 16.358)">
              <path id="path533" d="M-153.888-309.019a15.4,15.4,0,0,1-10.943-4.582,15.405,15.405,0,0,1-4.5-10.983,15.537,15.537,0,0,1,15.508-15.452h.066a15.4,15.4,0,0,1,10.943,4.582,15.4,15.4,0,0,1,4.5,10.983,15.538,15.538,0,0,1-15.5,15.452Z" transform="translate(169.334 340.036)" fill="none" stroke="#000" stroke-linecap="round" stroke-linejoin="round" stroke-miterlimit="10" stroke-width="1.2"/>
            </g>
            <g id="g535" transform="translate(20.489 22.032)">
              <path id="path537" d="M-97.5-195.963a9.76,9.76,0,0,1-6.931-2.906,9.769,9.769,0,0,1-2.855-6.964,9.853,9.853,0,0,1,9.833-9.8h.049a9.759,9.759,0,0,1,6.933,2.906,9.77,9.77,0,0,1,2.855,6.965,9.854,9.854,0,0,1-9.821,9.8Z" transform="translate(107.286 215.633)" fill="#fff"/>
            </g>
            <g id="g539" transform="translate(20.489 22.032)">
              <path id="path541" d="M-58.739-167.012a9.769,9.769,0,0,1-2.855-6.964,9.859,9.859,0,0,1,8.322-9.682,9.926,9.926,0,0,0-1.48-.117h-.05a9.853,9.853,0,0,0-9.833,9.8,9.769,9.769,0,0,0,2.855,6.964,9.76,9.76,0,0,0,6.931,2.906h.064a9.813,9.813,0,0,0,1.5-.117,9.761,9.761,0,0,1-5.453-2.789" transform="translate(64.635 183.776)" fill="#efe2dd"/>
            </g>
            <g id="g543" transform="translate(20.489 22.032)">
              <path id="path545" d="M-97.5-195.963a9.76,9.76,0,0,1-6.931-2.906,9.769,9.769,0,0,1-2.855-6.964,9.853,9.853,0,0,1,9.833-9.8h.049a9.759,9.759,0,0,1,6.933,2.906,9.77,9.77,0,0,1,2.855,6.965,9.854,9.854,0,0,1-9.821,9.8Z" transform="translate(107.286 215.633)" fill="none" stroke="#000" stroke-linecap="round" stroke-linejoin="round" stroke-miterlimit="10" stroke-width="1.2"/>
            </g>
            <g id="g547" transform="translate(26.163 27.706)">
              <path id="path549" d="M-41.127-82.905a4.06,4.06,0,0,1-2.92-1.229,4.078,4.078,0,0,1-1.208-2.946A4.168,4.168,0,0,1-41.1-91.226h.037A4.066,4.066,0,0,1-38.141-90a4.078,4.078,0,0,1,1.208,2.946A4.169,4.169,0,0,1-41.077-82.9Z" transform="translate(45.255 91.226)" fill="#fb2b3a"/>
            </g>
            <g id="g551" transform="translate(26.163 27.706)">
              <path id="path553" d="M-36.269-70.658A4.079,4.079,0,0,1-37.477-73.6a4.172,4.172,0,0,1,2.958-3.968,4.176,4.176,0,0,0-1.2-.178h-.037A4.168,4.168,0,0,0-39.91-73.6,4.079,4.079,0,0,0-38.7-70.658a4.06,4.06,0,0,0,2.92,1.229h.05a4.129,4.129,0,0,0,1.185-.178,4.1,4.1,0,0,1-1.723-1.051" transform="translate(39.91 77.75)" fill="#e41f2d"/>
            </g>
            <g id="g555" transform="translate(26.163 27.706)">
              <path id="path557" d="M-41.127-82.905a4.06,4.06,0,0,1-2.92-1.229,4.078,4.078,0,0,1-1.208-2.946A4.168,4.168,0,0,1-41.1-91.226h.037A4.066,4.066,0,0,1-38.141-90a4.078,4.078,0,0,1,1.208,2.946A4.169,4.169,0,0,1-41.077-82.9Z" transform="translate(45.255 91.226)" fill="none" stroke="#000" stroke-linecap="round" stroke-linejoin="round" stroke-miterlimit="10" stroke-width="1.2"/>
            </g>
            <g id="g559" transform="translate(30.324 2.457)">
              <path id="path561" d="M0,0V9.646" fill="none" stroke="#000" stroke-linecap="round" stroke-linejoin="round" stroke-miterlimit="10" stroke-width="1.2"/>
            </g>
            <g id="g563" transform="translate(30.324 51.631)">
              <path id="path565" d="M0,0V9.646" fill="none" stroke="#000" stroke-linecap="round" stroke-linejoin="round" stroke-miterlimit="10" stroke-width="1.2"/>
            </g>
            <g id="g567" transform="translate(0.912 31.867)">
              <path id="path569" d="M0,0H9.646" fill="none" stroke="#000" stroke-linecap="round" stroke-linejoin="round" stroke-miterlimit="10" stroke-width="1.2"/>
            </g>
            <g id="g571" transform="translate(50.09 31.867)">
              <path id="path573" d="M0,0H9.646" fill="none" stroke="#000" stroke-linecap="round" stroke-linejoin="round" stroke-miterlimit="10" stroke-width="1.2"/>
            </g>
            <g id="g575" transform="translate(45.772 0.994)">
              <path id="path577" d="M-103.869-57.381a1.014,1.014,0,0,1-.629-.625l-1.393-4.888a.274.274,0,0,0-.5-.129l-7.654,7.614a.968.968,0,0,0-.228.847l1.334,4.956a.976.976,0,0,0,.623.62l4.982,1.328a.981.981,0,0,0,.851-.227l7.654-7.614a.272.272,0,0,0-.13-.5Z" transform="translate(114.295 63.141)" fill="#62dbfb"/>
            </g>
            <g id="g579" transform="translate(45.772 0.994)">
              <path id="path581" d="M-40.432-143.88l-1.419-5.268a1.029,1.029,0,0,1,.242-.9l6.084-6.053-.562-1.974a.274.274,0,0,0-.5-.129l-7.654,7.614a.968.968,0,0,0-.228.847l1.335,4.956a.977.977,0,0,0,.623.62l2.242.6a.88.88,0,0,1-.165-.311" transform="translate(44.49 158.322)" fill="#01d0fb"/>
            </g>
            <g id="g583" transform="translate(50.069 4.699)">
              <path id="path585" d="M0,0,1.47,5.458a.938.938,0,0,0,.6.6l5.5,1.466" fill="none" stroke="#000" stroke-linecap="round" stroke-linejoin="round" stroke-miterlimit="10" stroke-width="1.2"/>
            </g>
            <g id="g587" transform="translate(45.772 0.994)">
              <path id="path589" d="M-103.869-57.381a1.014,1.014,0,0,1-.629-.625l-1.393-4.888a.274.274,0,0,0-.5-.129l-7.654,7.614a.968.968,0,0,0-.228.847l1.334,4.956a.976.976,0,0,0,.623.62l4.982,1.328a.981.981,0,0,0,.851-.227l7.654-7.614a.272.272,0,0,0-.13-.5Z" transform="translate(114.295 63.141)" fill="none" stroke="#000" stroke-linecap="round" stroke-linejoin="round" stroke-miterlimit="10" stroke-width="1.2"/>
            </g>
            <g id="g591" transform="translate(30.324 4.334)">
              <path id="path593" d="M0-274.308l27.677-27.533" transform="translate(0 301.841)" fill="none" stroke="#000" stroke-linecap="round" stroke-linejoin="round" stroke-miterlimit="10" stroke-width="1.2"/>
            </g>
            <g id="g595" transform="translate(41.118 42.728)">
              <path id="path597" d="M-183.8-92.4a9.249,9.249,0,0,1-9.224,9.274,9.25,9.25,0,0,1-9.224-9.274,9.25,9.25,0,0,1,9.224-9.275A9.25,9.25,0,0,1-183.8-92.4" transform="translate(202.246 101.676)" fill="#97d729"/>
            </g>
            <g id="g599" transform="translate(41.118 42.728)">
              <path id="path601" d="M-39.058-92.4a9.265,9.265,0,0,1,7.264-9.063,9.206,9.206,0,0,0-1.96-.212A9.25,9.25,0,0,0-42.979-92.4a9.249,9.249,0,0,0,9.224,9.274,9.206,9.206,0,0,0,1.96-.212A9.265,9.265,0,0,1-39.058-92.4" transform="translate(42.979 101.676)" fill="#8bc727"/>
            </g>
            <g id="g603" transform="translate(41.118 42.728)">
              <path id="path605" d="M-183.8-92.4a9.249,9.249,0,0,1-9.224,9.274,9.25,9.25,0,0,1-9.224-9.274,9.25,9.25,0,0,1,9.224-9.275A9.25,9.25,0,0,1-183.8-92.4Z" transform="translate(202.246 101.676)" fill="none" stroke="#000" stroke-linecap="round" stroke-linejoin="round" stroke-miterlimit="10" stroke-width="1.2"/>
            </g>
            <g id="g607" transform="translate(46.558 49.543)">
              <path id="path609" d="M0-22.165l2.678,2.693,4.891-4.918" transform="translate(0 24.389)" fill="none" stroke="#000" stroke-linecap="round" stroke-linejoin="round" stroke-miterlimit="10" stroke-width="1.2"/>
            </g>
          </g>
        </g>
      </g>
    </g>
  </g>
</svg>
