<svg xmlns="http://www.w3.org/2000/svg" xmlns:xlink="http://www.w3.org/1999/xlink" width="113" height="113" viewBox="0 0 113 113">
  <defs>
    <filter id="Path_982547" x="0" y="0" width="113" height="113" filterUnits="userSpaceOnUse">
      <feOffset dy="3" input="SourceAlpha"/>
      <feGaussianBlur stdDeviation="3" result="blur"/>
      <feFlood flood-opacity="0.161"/>
      <feComposite operator="in" in2="blur"/>
      <feComposite in="SourceGraphic"/>
    </filter>
  </defs>
  <g id="Group_1202189" data-name="Group 1202189" transform="translate(-7639 -6776.651)">
    <g id="Group_1202111" data-name="Group 1202111">
      <g id="Group_1201925" data-name="Group 1201925" transform="translate(2352.51 4856.378)">
        <g id="Group_1176928" data-name="Group 1176928" transform="translate(5295.49 1926.273)">
          <g id="Group_1172322" data-name="Group 1172322" transform="translate(0 0)">
            <g id="Group_1164700" data-name="Group 1164700">
              <g id="Group_1160931" data-name="Group 1160931">
                <g id="Group_1160749" data-name="Group 1160749">
                  <g id="Group_1158891" data-name="Group 1158891">
                    <g id="Group_1157406" data-name="Group 1157406">
                      <g id="Group_1155793" data-name="Group 1155793">
                        <g id="Group_1154704" data-name="Group 1154704">
                          <g id="Group_1150790" data-name="Group 1150790">
                            <g id="Group_1154214" data-name="Group 1154214">
                              <g id="Group_1152583" data-name="Group 1152583">
                                <g id="Group_1146973" data-name="Group 1146973">
                                  <g id="Group_1146954" data-name="Group 1146954">
                                    <g transform="matrix(1, 0, 0, 1, -9, -6)" filter="url(#Path_982547)">
                                      <g id="Path_982547-2" data-name="Path 982547" transform="translate(9 6)" fill="#ebe9f0">
                                        <path d="M 47.5000114440918 93.49987030029297 C 41.28938293457031 93.49987030029297 35.26534652709961 92.28384399414062 29.5951976776123 89.88558959960938 C 24.11773109436035 87.56881713867188 19.19814491271973 84.25183868408203 14.97310447692871 80.02680206298828 C 10.74805164337158 75.80176544189453 7.43107795715332 70.88218688964844 5.114304542541504 65.40472412109375 C 2.716038227081299 59.73458862304688 1.500011444091797 53.71054840087891 1.500011444091797 47.49993515014648 C 1.500011444091797 41.28932189941406 2.716038227081299 35.26528167724609 5.114304542541504 29.59514808654785 C 7.43107795715332 24.1176815032959 10.74805164337158 19.1981086730957 14.97310447692871 14.97306823730469 C 19.19814491271973 10.74802875518799 24.11773109436035 7.431055068969727 29.5951976776123 5.11428165435791 C 35.26534652709961 2.716028451919556 41.28938293457031 1.500001788139343 47.5000114440918 1.500001788139343 C 53.71063995361328 1.500001788139343 59.73467636108398 2.716028451919556 65.40482330322266 5.11428165435791 C 70.88229370117188 7.431055068969727 75.8018798828125 10.74802875518799 80.02691650390625 14.97306823730469 C 84.25196838378906 19.1981086730957 87.56894683837891 24.1176815032959 89.88571929931641 29.59514808654785 C 92.28398132324219 35.26528167724609 93.50001525878906 41.28932189941406 93.50001525878906 47.49993515014648 C 93.50001525878906 53.71054840087891 92.28398132324219 59.73458862304688 89.88571929931641 65.40472412109375 C 87.56894683837891 70.88218688964844 84.25196838378906 75.80176544189453 80.02691650390625 80.02680206298828 C 75.8018798828125 84.25183868408203 70.88229370117188 87.56881713867188 65.40482330322266 89.88558959960938 C 59.73467636108398 92.28384399414062 53.71063995361328 93.49987030029297 47.5000114440918 93.49987030029297 Z" stroke="none"/>
                                        <path d="M 47.5000114440918 3 C 41.49122619628906 3 35.66378021240234 4.1761474609375 30.17951965332031 6.495796203613281 C 24.880859375 8.7369384765625 20.12153625488281 11.94596862792969 16.03376770019531 16.03373718261719 C 11.94598388671875 20.12149047851562 8.736968994140625 24.88081359863281 6.495811462402344 30.17947387695312 C 4.176162719726562 35.66371917724609 3.000007629394531 41.49116516113281 3.000007629394531 47.49993515014648 C 3.000007629394531 53.50870513916016 4.176162719726562 59.33615112304688 6.495811462402344 64.82039642333984 C 8.736968994140625 70.11905670166016 11.94598388671875 74.87837982177734 16.03376770019531 78.96613311767578 C 20.12153625488281 83.05390167236328 24.880859375 86.26293182373047 30.17951965332031 88.50407409667969 C 35.66378021240234 90.82372283935547 41.49122619628906 91.99987030029297 47.5000114440918 91.99987030029297 C 53.50879669189453 91.99987030029297 59.33624267578125 90.82372283935547 64.82050323486328 88.50407409667969 C 70.11916351318359 86.26293182373047 74.87848663330078 83.05390167236328 78.96625518798828 78.96613311767578 C 83.05403900146484 74.87837982177734 86.2630615234375 70.11905670166016 88.50421142578125 64.82039642333984 C 90.82386016845703 59.33615112304688 92.00001525878906 53.50870513916016 92.00001525878906 47.49993515014648 C 92.00001525878906 41.49116516113281 90.82386016845703 35.66371917724609 88.50421142578125 30.17947387695312 C 86.2630615234375 24.88081359863281 83.05403900146484 20.12149047851562 78.96625518798828 16.03373718261719 C 74.87848663330078 11.94596862792969 70.11916351318359 8.7369384765625 64.82050323486328 6.495796203613281 C 59.33624267578125 4.1761474609375 53.50879669189453 3 47.5000114440918 3 M 47.5000114440918 0 C 73.73353576660156 0 95.00001525878906 21.26644134521484 95.00001525878906 47.49993515014648 C 95.00001525878906 73.73342895507812 73.73353576660156 94.99987030029297 47.5000114440918 94.99987030029297 C 21.26648712158203 94.99987030029297 7.62939453125e-06 73.73342895507812 7.62939453125e-06 47.49993515014648 C 7.62939453125e-06 21.26644134521484 21.26648712158203 0 47.5000114440918 0 Z" stroke="none" fill="#453179"/>
                                      </g>
                                    </g>
                                  </g>
                                </g>
                              </g>
                            </g>
                          </g>
                        </g>
                      </g>
                    </g>
                  </g>
                </g>
              </g>
            </g>
          </g>
        </g>
      </g>
      <g id="development_7406936" transform="translate(7654.557 6792.631)">
        <g id="Group_1202108" data-name="Group 1202108" transform="translate(15.373 7.5)">
          <g id="Group_1202107" data-name="Group 1202107" transform="translate(0 0)">
            <path id="Path_1047538" data-name="Path 1047538" d="M33.012,467.22h6.759a.831.831,0,0,1,.831.831v2.842a.831.831,0,0,1-.831.831H33.012a.831.831,0,0,1-.831-.831v-2.842A.831.831,0,0,1,33.012,467.22Z" transform="translate(-30.151 -411.683)" fill="#0ed2b3"/>
            <path id="Path_1047539" data-name="Path 1047539" d="M69.458,468.051v2.841a.831.831,0,0,1-.831.831H65a.831.831,0,0,0,.831-.831v-2.841A.831.831,0,0,0,65,467.22h3.624A.831.831,0,0,1,69.458,468.051Z" transform="translate(-59.007 -411.683)" fill="#0ab69f"/>
            <path id="Path_1047540" data-name="Path 1047540" d="M33.012,365.957h6.759a.831.831,0,0,1,.831.831v6.8a.831.831,0,0,1-.831.831H33.012a.831.831,0,0,1-.831-.831v-6.8A.831.831,0,0,1,33.012,365.957Z" transform="translate(-30.151 -322.653)" fill="#0ed2b3"/>
            <path id="Path_1047541" data-name="Path 1047541" d="M69.458,366.79v6.8a.831.831,0,0,1-.831.83H65a.831.831,0,0,0,.831-.83v-6.8a.831.831,0,0,0-.831-.83h3.624A.831.831,0,0,1,69.458,366.79Z" transform="translate(-59.007 -322.656)" fill="#0ab69f"/>
            <path id="Path_1047542" data-name="Path 1047542" d="M26.655,14.7h0a.831.831,0,0,0-.831.831V46.2a.831.831,0,0,1-.831.831H18.235A.831.831,0,0,1,17.4,46.2V15.528a.831.831,0,0,0-.831-.831h0a1.2,1.2,0,0,1-.846-2.044l4.635-4.635a1.772,1.772,0,0,1,2.505,0L27.5,12.653A1.2,1.2,0,0,1,26.655,14.7Z" transform="translate(-15.373 -7.5)" fill="#0ed2b3"/>
            <path id="Path_1047543" data-name="Path 1047543" d="M58.886,14.7a.831.831,0,0,0-.831.831V46.2a.831.831,0,0,1-.831.831H53.6a.831.831,0,0,0,.831-.831V15.531a.831.831,0,0,1,.831-.831,1.2,1.2,0,0,0,.847-2.044L52.033,8.581l.559-.559a1.771,1.771,0,0,1,2.506,0l4.635,4.634A1.2,1.2,0,0,1,58.886,14.7Z" transform="translate(-47.604 -7.502)" fill="#0ab69f"/>
          </g>
          <path id="Path_1047544" data-name="Path 1047544" d="M192.2,363.884v15.137H172.94V363.884l6.538-2.1h6.185Z" transform="translate(-153.905 -318.981)" fill="#528cd7"/>
          <path id="Path_1047545" data-name="Path 1047545" d="M233.241,306.633l-3.093,1.649-3.093-1.649v-7.577h6.186Z" transform="translate(-201.483 -263.834)" fill="#ffcebf"/>
          <path id="Path_1047546" data-name="Path 1047546" d="M260.676,299.057v7.577l-2.416,1.154v-8.731Z" transform="translate(-228.918 -263.835)" fill="#ffb09e"/>
          <path id="Path_1047547" data-name="Path 1047547" d="M192.851,199.359h-3.668a6.636,6.636,0,0,1-6.636-6.636V181.771h16.94v10.952A6.636,6.636,0,0,1,192.851,199.359Z" transform="translate(-162.351 -160.718)" fill="#ffdfcf"/>
          <path id="Path_1047548" data-name="Path 1047548" d="M248.1,181.767v10.952a6.635,6.635,0,0,1-6.636,6.636H237.84a6.635,6.635,0,0,0,6.636-6.636V181.767Z" transform="translate(-210.965 -160.714)" fill="#ffcebf"/>
          <path id="Path_1047549" data-name="Path 1047549" d="M324.83,228.958h-2.056v5.251h2.056a1.255,1.255,0,0,0,1.255-1.255v-2.741A1.255,1.255,0,0,0,324.83,228.958Z" transform="translate(-285.638 -202.205)" fill="#ffcebf"/>
          <path id="Path_1047550" data-name="Path 1047550" d="M156.394,228.958h2.056v5.251h-2.056a1.255,1.255,0,0,1-1.255-1.255v-2.741A1.255,1.255,0,0,1,156.394,228.958Z" transform="translate(-138.254 -202.205)" fill="#ffcebf"/>
          <path id="Path_1047551" data-name="Path 1047551" d="M185.231,139.806h0a6.59,6.59,0,0,0-5.24-2.594h-7.872a6.59,6.59,0,0,0-5.24,2.594h0a6.591,6.591,0,0,0-1.35,4V148.3h2.056l2.055-2.563a1.59,1.59,0,0,1,2.036-.387,9.508,9.508,0,0,0,8.757,0,1.59,1.59,0,0,1,2.036.387l2.055,2.563h2.056V143.8A6.589,6.589,0,0,0,185.231,139.806Z" transform="translate(-147.389 -121.542)" fill="#918b8b"/>
          <path id="Path_1047552" data-name="Path 1047552" d="M265.454,143.8v4.493H263.4l-1.568-1.955V143.8a6.591,6.591,0,0,0-6.59-6.591h3.624a6.591,6.591,0,0,1,6.59,6.591Z" transform="translate(-226.263 -121.538)" fill="#7f7c7c"/>
          <path id="Path_1047553" data-name="Path 1047553" d="M337.76,385.5v5.452h-5.38V379.2l1.034.332A6.264,6.264,0,0,1,337.76,385.5Z" transform="translate(-294.084 -334.296)" fill="#528cd7"/>
          <path id="Path_1047554" data-name="Path 1047554" d="M337.76,385.492v5.452h-2.69v-5.452c0-2.721-.782-5.607-2.689-6.3l1.034.332A6.264,6.264,0,0,1,337.76,385.492Z" transform="translate(-294.084 -334.294)" fill="#2e73cd"/>
          <path id="Path_1047555" data-name="Path 1047555" d="M337.763,476.44v2.047a1.343,1.343,0,0,1-1.343,1.343h-4.036v-3.39Z" transform="translate(-294.086 -419.789)" fill="#ffdfcf"/>
          <path id="Path_1047556" data-name="Path 1047556" d="M347.557,476.44v2.047a1.344,1.344,0,0,1-1.343,1.343h-2.69a1.344,1.344,0,0,0,1.343-1.343V476.44Z" transform="translate(-303.881 -419.789)" fill="#ffcebf"/>
          <path id="Path_1047557" data-name="Path 1047557" d="M128.413,385.5v5.452h5.379V379.2l-1.034.332A6.264,6.264,0,0,0,128.413,385.5Z" transform="translate(-114.757 -334.3)" fill="#528cd7"/>
          <path id="Path_1047558" data-name="Path 1047558" d="M128.413,476.444h5.379v3.389h-4.036a1.343,1.343,0,0,1-1.343-1.343Z" transform="translate(-114.757 -419.793)" fill="#ffdfcf"/>
          <rect id="Rectangle_417747" data-name="Rectangle 417747" width="2.416" height="3.39" transform="translate(16.619 56.651)" fill="#ffcebf"/>
          <path id="Path_1047559" data-name="Path 1047559" d="M255.753,348.961l-3.093,3.2,1.617,1.881a.937.937,0,0,0,1.422,0l2.379-2.779Z" transform="translate(-223.994 -307.71)" fill="#eaf6ff"/>
          <path id="Path_1047560" data-name="Path 1047560" d="M210.131,348.961l3.093,3.2-1.617,1.881a.937.937,0,0,1-1.422,0l-2.379-2.779Z" transform="translate(-184.558 -307.71)" fill="#eaf6ff"/>
          <path id="Path_1047561" data-name="Path 1047561" d="M389.684,275.653l-.814-.679a6.452,6.452,0,0,0,0-3.135l.814-.679a.7.7,0,0,0,.158-.892l-.9-1.56a.7.7,0,0,0-.852-.308l-1,.366a6.443,6.443,0,0,0-2.712-1.567l-.181-1.045a.7.7,0,0,0-.693-.583h-1.8a.7.7,0,0,0-.692.583l-.181,1.045a6.442,6.442,0,0,0-2.712,1.567l-1-.366a.7.7,0,0,0-.85.308l-.9,1.56a.7.7,0,0,0,.159.892l.813.679a6.493,6.493,0,0,0,0,3.135l-.813.679a.7.7,0,0,0-.159.892l.9,1.56a.7.7,0,0,0,.85.308l1-.366a6.443,6.443,0,0,0,2.712,1.567l.181,1.046a.7.7,0,0,0,.692.582h1.8a.7.7,0,0,0,.693-.582l.181-1.046a6.443,6.443,0,0,0,2.712-1.567l1,.366a.7.7,0,0,0,.852-.308l.9-1.56A.7.7,0,0,0,389.684,275.653Zm-7.077.93a3.177,3.177,0,1,1,3.176-3.176A3.176,3.176,0,0,1,382.607,276.583Z" transform="translate(-331.799 -234.395)" fill="#918b8b"/>
          <path id="Path_1047562" data-name="Path 1047562" d="M430.115,275.653l-.814-.679a6.452,6.452,0,0,0,0-3.135l.814-.679a.7.7,0,0,0,.158-.892l-.9-1.56a.7.7,0,0,0-.852-.308l-1,.366a6.442,6.442,0,0,0-2.712-1.567l-.181-1.045a.7.7,0,0,0-.693-.583h-1.8a.7.7,0,0,0-.692.583l-.046.268-.135.777a8.379,8.379,0,0,1,2.444,1.126,1.367,1.367,0,0,0,1.261.175l.273-.1a.7.7,0,0,1,.852.308l.9,1.56a.7.7,0,0,1-.158.892l-.2.17a1.341,1.341,0,0,0-.476,1.207,6.452,6.452,0,0,1,0,1.739,1.341,1.341,0,0,0,.476,1.207l.2.17a.7.7,0,0,1,.158.892l-.9,1.56a.7.7,0,0,1-.852.308l-.273-.1a1.366,1.366,0,0,0-1.261.175,8.378,8.378,0,0,1-2.444,1.126l.135.778.046.268a.7.7,0,0,0,.69.582h1.8a.7.7,0,0,0,.693-.582l.181-1.046a6.442,6.442,0,0,0,2.712-1.567l1,.366a.7.7,0,0,0,.852-.308l.9-1.56A.7.7,0,0,0,430.115,275.653Z" transform="translate(-372.23 -234.395)" fill="#7f7c7c"/>
        </g>
        <g id="Group_1202110" data-name="Group 1202110" transform="translate(15.374 7.5)">
          <path id="Path_1047563" data-name="Path 1047563" d="M185.839,439.741h-12.9v-8.9" transform="translate(-153.905 -379.701)" fill="none" stroke="#000" stroke-linecap="round" stroke-linejoin="round" stroke-miterlimit="10" stroke-width="1"/>
          <path id="Path_1047564" data-name="Path 1047564" d="M286.08,430.843v8.9h-6.362" transform="translate(-247.784 -379.701)" fill="none" stroke="#000" stroke-linecap="round" stroke-linejoin="round" stroke-miterlimit="10" stroke-width="1"/>
          <line id="Line_1001" data-name="Line 1001" x1="0.001" y1="2.729" transform="translate(25.572 38.521)" fill="none" stroke="#000" stroke-linecap="round" stroke-linejoin="round" stroke-miterlimit="10" stroke-width="1"/>
          <line id="Line_1002" data-name="Line 1002" x1="0.001" y2="2.73" transform="translate(31.758 38.521)" fill="none" stroke="#000" stroke-linecap="round" stroke-linejoin="round" stroke-miterlimit="10" stroke-width="1"/>
          <path id="Path_1047565" data-name="Path 1047565" d="M324.83,228.958h-2.056v5.251h2.056a1.255,1.255,0,0,0,1.255-1.255v-2.741A1.255,1.255,0,0,0,324.83,228.958Z" transform="translate(-285.638 -202.205)" fill="none" stroke="#000" stroke-linecap="round" stroke-linejoin="round" stroke-miterlimit="10" stroke-width="1"/>
          <path id="Path_1047566" data-name="Path 1047566" d="M156.394,228.958h2.056v5.251h-2.056a1.255,1.255,0,0,1-1.255-1.255v-2.741A1.255,1.255,0,0,1,156.394,228.958Z" transform="translate(-138.255 -202.205)" fill="none" stroke="#000" stroke-linecap="round" stroke-linejoin="round" stroke-miterlimit="10" stroke-width="1"/>
          <path id="Path_1047567" data-name="Path 1047567" d="M332.38,379.2l1.034.332a6.264,6.264,0,0,1,4.345,5.963v5.452" transform="translate(-294.084 -334.296)" fill="none" stroke="#000" stroke-linecap="round" stroke-linejoin="round" stroke-miterlimit="10" stroke-width="1"/>
          <path id="Path_1047568" data-name="Path 1047568" d="M337.763,476.44v2.047a1.343,1.343,0,0,1-1.343,1.343h-4.036v-3.39Z" transform="translate(-294.086 -419.789)" fill="none" stroke="#000" stroke-linecap="round" stroke-linejoin="round" stroke-miterlimit="10" stroke-width="1"/>
          <path id="Path_1047569" data-name="Path 1047569" d="M138,367.977l-5.246,1.689a6.264,6.264,0,0,0-4.345,5.963v5.452" transform="translate(-114.757 -324.429)" fill="none" stroke="#000" stroke-linecap="round" stroke-linejoin="round" stroke-miterlimit="10" stroke-width="1"/>
          <path id="Path_1047570" data-name="Path 1047570" d="M128.413,476.444h5.379v3.389h-4.036a1.343,1.343,0,0,1-1.343-1.343Z" transform="translate(-114.757 -419.793)" fill="none" stroke="#000" stroke-linecap="round" stroke-linejoin="round" stroke-miterlimit="10" stroke-width="1"/>
          <line id="Line_1003" data-name="Line 1003" y2="2.186" transform="translate(28.666 29.155)" fill="none" stroke="#000" stroke-linecap="round" stroke-linejoin="round" stroke-miterlimit="10" stroke-width="1"/>
          <path id="Path_1047571" data-name="Path 1047571" d="M255.753,348.961l-3.093,3.2,1.617,1.881a.937.937,0,0,0,1.422,0l2.379-2.779Z" transform="translate(-223.994 -307.71)" fill="none" stroke="#000" stroke-linecap="round" stroke-linejoin="round" stroke-miterlimit="10" stroke-width="1"/>
          <path id="Path_1047572" data-name="Path 1047572" d="M210.131,348.961l3.093,3.2-1.617,1.881a.937.937,0,0,1-1.422,0l-2.379-2.779Z" transform="translate(-184.558 -307.71)" fill="none" stroke="#000" stroke-linecap="round" stroke-linejoin="round" stroke-miterlimit="10" stroke-width="1"/>
          <line id="Line_1004" data-name="Line 1004" x2="2.867" transform="translate(31.375 52.203)" fill="none" stroke="#000" stroke-linecap="round" stroke-linejoin="round" stroke-miterlimit="10" stroke-width="1"/>
          <path id="Path_1047573" data-name="Path 1047573" d="M389.684,275.653l-.814-.679a6.452,6.452,0,0,0,0-3.135l.814-.679a.7.7,0,0,0,.158-.892l-.9-1.56a.7.7,0,0,0-.852-.308l-1,.366a6.443,6.443,0,0,0-2.712-1.567l-.181-1.045a.7.7,0,0,0-.693-.583h-1.8a.7.7,0,0,0-.692.583l-.181,1.045a6.442,6.442,0,0,0-2.712,1.567l-1-.366a.7.7,0,0,0-.85.308l-.9,1.56a.7.7,0,0,0,.159.892l.813.679a6.493,6.493,0,0,0,0,3.135l-.813.679a.7.7,0,0,0-.159.892l.9,1.56a.7.7,0,0,0,.85.308l1-.366a6.443,6.443,0,0,0,2.712,1.567l.181,1.046a.7.7,0,0,0,.692.582h1.8a.7.7,0,0,0,.693-.582l.181-1.046a6.443,6.443,0,0,0,2.712-1.567l1,.366a.7.7,0,0,0,.852-.308l.9-1.56A.7.7,0,0,0,389.684,275.653Zm-7.077.93a3.177,3.177,0,1,1,3.176-3.176A3.176,3.176,0,0,1,382.607,276.583Z" transform="translate(-331.799 -234.395)" fill="none" stroke="#000" stroke-linecap="round" stroke-linejoin="round" stroke-miterlimit="10" stroke-width="1"/>
          <path id="Path_1047574" data-name="Path 1047574" d="M176.055,146.413a8.609,8.609,0,0,0,4.379-1.068,1.59,1.59,0,0,1,2.036.387l2.055,2.563h2.056V143.8a6.59,6.59,0,0,0-1.35-4h0a6.59,6.59,0,0,0-5.24-2.594h-7.872a6.59,6.59,0,0,0-5.24,2.594h0a6.591,6.591,0,0,0-1.35,4v4.494h2.056l2.055-2.563a1.59,1.59,0,0,1,2.036-.387" transform="translate(-147.389 -121.54)" fill="none" stroke="#000" stroke-linecap="round" stroke-linejoin="round" stroke-miterlimit="10" stroke-width="1"/>
          <g id="Group_1202109" data-name="Group 1202109" transform="translate(0 0)">
            <path id="Path_1047575" data-name="Path 1047575" d="M33.012,467.22h6.759a.831.831,0,0,1,.831.831v2.842a.831.831,0,0,1-.831.831H33.012a.831.831,0,0,1-.831-.831v-2.842A.831.831,0,0,1,33.012,467.22Z" transform="translate(-30.151 -411.683)" fill="none" stroke="#000" stroke-linecap="round" stroke-linejoin="round" stroke-miterlimit="10" stroke-width="1"/>
            <path id="Path_1047576" data-name="Path 1047576" d="M33.012,365.957h6.759a.831.831,0,0,1,.831.831v6.8a.831.831,0,0,1-.831.831H33.012a.831.831,0,0,1-.831-.831v-6.8A.831.831,0,0,1,33.012,365.957Z" transform="translate(-30.151 -322.653)" fill="none" stroke="#000" stroke-linecap="round" stroke-linejoin="round" stroke-miterlimit="10" stroke-width="1"/>
            <path id="Path_1047577" data-name="Path 1047577" d="M17.4,21.184V15.528a.831.831,0,0,0-.831-.831h0a1.2,1.2,0,0,1-.846-2.044l4.635-4.635a1.772,1.772,0,0,1,2.505,0L27.5,12.653a1.2,1.2,0,0,1-.846,2.044h0a.831.831,0,0,0-.831.831V46.2a.831.831,0,0,1-.831.831H18.236A.831.831,0,0,1,17.4,46.2V25.765" transform="translate(-15.374 -7.5)" fill="none" stroke="#000" stroke-linecap="round" stroke-linejoin="round" stroke-miterlimit="10" stroke-width="1"/>
          </g>
          <path id="Path_1047578" data-name="Path 1047578" d="M199.487,228.957v5.251a6.636,6.636,0,0,1-6.636,6.636h-3.668a6.636,6.636,0,0,1-6.636-6.636v-5.251" transform="translate(-162.352 -202.204)" fill="none" stroke="#000" stroke-linecap="round" stroke-linejoin="round" stroke-miterlimit="10" stroke-width="1"/>
          <path id="Path_1047579" data-name="Path 1047579" d="M244.2,289.5a1.862,1.862,0,0,1-2.7-.039" transform="translate(-214.187 -255.395)" fill="none" stroke="#000" stroke-linecap="round" stroke-linejoin="round" stroke-miterlimit="10" stroke-width="1"/>
        </g>
      </g>
    </g>
  </g>
</svg>
