<svg xmlns="http://www.w3.org/2000/svg" xmlns:xlink="http://www.w3.org/1999/xlink" width="113" height="113" viewBox="0 0 113 113">
  <defs>
    <filter id="Path_982547" x="0" y="0" width="113" height="113" filterUnits="userSpaceOnUse">
      <feOffset dy="3" input="SourceAlpha"/>
      <feGaussianBlur stdDeviation="3" result="blur"/>
      <feFlood flood-opacity="0.161"/>
      <feComposite operator="in" in2="blur"/>
      <feComposite in="SourceGraphic"/>
    </filter>
  </defs>
  <g id="Group_1202174" data-name="Group 1202174" transform="translate(-586.25 -3925.037)">
    <g id="Group_1201915" data-name="Group 1201915" transform="translate(-0.25 1283.713)">
      <g id="Group_1201681" data-name="Group 1201681" transform="translate(315.5 1726.825)">
        <g id="Group_1201330" data-name="Group 1201330" transform="translate(280 920.5)">
          <g id="Group_1172010" data-name="Group 1172010">
            <g id="Group_1171046" data-name="Group 1171046">
              <g id="Group_1148525" data-name="Group 1148525">
                <g transform="matrix(1, 0, 0, 1, -9, -6)" filter="url(#Path_982547)">
                  <g id="Path_982547-2" data-name="Path 982547" transform="translate(9 6)" fill="#fdfbec">
                    <path d="M 47.5 93.5 C 41.28937149047852 93.5 35.26533508300781 92.28397369384766 29.59518623352051 89.88570404052734 C 24.11771965026855 87.56893157958984 19.19813346862793 84.25196075439453 14.97309303283691 80.02691650390625 C 10.74804019927979 75.80186462402344 7.431066513061523 70.88229370117188 5.114293098449707 65.40481567382812 C 2.716026782989502 59.73468017578125 1.5 53.71062850952148 1.5 47.5 C 1.5 41.28937149047852 2.716026782989502 35.26533508300781 5.114293098449707 29.59518623352051 C 7.431066513061523 24.11771965026855 10.74804019927979 19.19813346862793 14.97309303283691 14.97309303283691 C 19.19813346862793 10.74804019927979 24.11771965026855 7.431066513061523 29.59518623352051 5.114293098449707 C 35.26533508300781 2.716026782989502 41.28937149047852 1.5 47.5 1.5 C 53.71062850952148 1.5 59.73468017578125 2.716026782989502 65.40481567382812 5.114293098449707 C 70.88229370117188 7.431066513061523 75.80186462402344 10.74804019927979 80.02691650390625 14.97309303283691 C 84.25196075439453 19.19813346862793 87.56893157958984 24.11771965026855 89.88570404052734 29.59518623352051 C 92.28397369384766 35.26533508300781 93.5 41.28937149047852 93.5 47.5 C 93.5 53.71062850952148 92.28397369384766 59.73468017578125 89.88570404052734 65.40481567382812 C 87.56893157958984 70.88229370117188 84.25196075439453 75.80186462402344 80.02691650390625 80.02691650390625 C 75.80186462402344 84.25196075439453 70.88229370117188 87.56893157958984 65.40481567382812 89.88570404052734 C 59.73468017578125 92.28397369384766 53.71062850952148 93.5 47.5 93.5 Z" stroke="none"/>
                    <path d="M 47.5 3 C 41.49121475219727 3 35.66376876831055 4.176155090332031 30.17950439453125 6.495796203613281 C 24.88084411621094 8.736953735351562 20.12152099609375 11.94598388671875 16.03375244140625 16.03375244140625 C 11.94598388671875 20.12152099609375 8.736953735351562 24.88084411621094 6.495796203613281 30.17950439453125 C 4.176155090332031 35.66376876831055 3 41.49121475219727 3 47.5 C 3 53.50878524780273 4.176155090332031 59.33623123168945 6.495796203613281 64.82049560546875 C 8.736953735351562 70.11915588378906 11.94598388671875 74.87847900390625 16.03375244140625 78.96624755859375 C 20.12152099609375 83.05401611328125 24.88084411621094 86.26304626464844 30.17950439453125 88.50419616699219 C 35.66376876831055 90.82384490966797 41.49121475219727 92 47.5 92 C 53.50878524780273 92 59.33623123168945 90.82384490966797 64.82049560546875 88.50419616699219 C 70.11915588378906 86.26304626464844 74.87847900390625 83.05401611328125 78.96624755859375 78.96624755859375 C 83.05401611328125 74.87847900390625 86.26304626464844 70.11915588378906 88.50419616699219 64.82049560546875 C 90.82384490966797 59.33623123168945 92 53.50878524780273 92 47.5 C 92 41.49121475219727 90.82384490966797 35.66376876831055 88.50419616699219 30.17950439453125 C 86.26304626464844 24.88084411621094 83.05401611328125 20.12152099609375 78.96624755859375 16.03375244140625 C 74.87847900390625 11.94598388671875 70.11915588378906 8.736953735351562 64.82049560546875 6.495796203613281 C 59.33623123168945 4.176155090332031 53.50878524780273 3 47.5 3 M 47.5 0 C 73.7335205078125 0 95 21.2664794921875 95 47.5 C 95 73.7335205078125 73.7335205078125 95 47.5 95 C 21.2664794921875 95 0 73.7335205078125 0 47.5 C 0 21.2664794921875 21.2664794921875 0 47.5 0 Z" stroke="none" fill="#83793c"/>
                  </g>
                </g>
              </g>
            </g>
          </g>
        </g>
      </g>
      <g id="exam_1127687" transform="translate(613.458 2667.531)">
        <path id="Path_1045913" data-name="Path 1045913" d="M13.13,330.668H27.9a2.462,2.462,0,0,1,2.462,2.462V347.9a2.462,2.462,0,0,1-2.462,2.462H13.13a2.462,2.462,0,0,1-2.462-2.462V333.13A2.462,2.462,0,0,1,13.13,330.668Zm0,0" transform="translate(-9.437 -292.51)" fill="#d0d7df"/>
        <path id="Path_1045914" data-name="Path 1045914" d="M231.385,448v2.462a3.693,3.693,0,0,1-7.385,0V448Zm0,0" transform="translate(-198.151 -396.302)" fill="#a5b1c2"/>
        <path id="Path_1045915" data-name="Path 1045915" d="M227.693,117.332l3.693,6.155H224Zm0,0" transform="translate(-198.151 -103.792)" fill="#a5b1c2"/>
        <path id="Path_1045916" data-name="Path 1045916" d="M227.693,275.284a2.469,2.469,0,0,0-2.462-2.462v-1.231s4.923,0,4.923-4.923a4.177,4.177,0,0,0,1.231,2.856v18.07H224v-4.924h1.231a2.462,2.462,0,1,0,0-4.923A2.48,2.48,0,0,0,227.693,275.284Zm0,0" transform="translate(-198.151 -235.895)" fill="#f1f2f2"/>
        <path id="Path_1045917" data-name="Path 1045917" d="M227.693,175.591a2.469,2.469,0,0,0-2.462,2.462H224v-7.385h7.385v4.923Zm0,0" transform="translate(-198.151 -150.973)" fill="#f1f2f2"/>
        <path id="Path_1045918" data-name="Path 1045918" d="M178.053,234.668v4.923H173.13a2.462,2.462,0,1,1,0-4.923Zm0,0" transform="translate(-150.973 -207.588)" fill="#ffd8c5"/>
        <path id="Path_1045919" data-name="Path 1045919" d="M178.053,281.025v1.231H173.13a2.462,2.462,0,0,1,0-4.924h4.924Zm0,0" transform="translate(-150.973 -245.329)" fill="#ffd8c5"/>
        <path id="Path_1045920" data-name="Path 1045920" d="M178.053,362.668a2.462,2.462,0,1,1,0,4.923H173.13a2.462,2.462,0,1,1,0-4.923Zm0,0" transform="translate(-150.973 -320.817)" fill="#ffd8c5"/>
        <path id="Path_1045921" data-name="Path 1045921" d="M178.053,320a2.462,2.462,0,0,1,0,4.924H173.13a2.462,2.462,0,0,1,0-4.924Zm0,0" transform="translate(-150.973 -283.073)" fill="#ffd8c5"/>
        <path id="Path_1045922" data-name="Path 1045922" d="M294.154,300.867V302.1l-2.462,2.462H288V291.414a3.515,3.515,0,0,0,2.462.837h3.693Zm0,0" transform="translate(-254.766 -257.786)" fill="#ffd8c5"/>
        <path id="Path_1045923" data-name="Path 1045923" d="M239.591,219.487c0,4.923-4.923,4.923-4.923,4.923v-8.616a2.469,2.469,0,0,1,2.462-2.462h4.924l4.923,4.924v4.924h-3.693a3.515,3.515,0,0,1-2.462-.837,4.177,4.177,0,0,1-1.231-2.856Zm0,0" transform="translate(-207.588 -188.714)" fill="#ffd8c5"/>
        <path id="Path_1045924" data-name="Path 1045924" d="M388.924,53.332a2.462,2.462,0,0,1,0,4.924H384V53.332Zm0,0" transform="translate(-339.688 -47.178)" fill="#45aaf2"/>
        <path id="Path_1045925" data-name="Path 1045925" d="M388.924,96a2.462,2.462,0,0,1,0,4.924H384V96Zm0,0" transform="translate(-339.688 -84.922)" fill="#45aaf2"/>
        <path id="Path_1045926" data-name="Path 1045926" d="M312.618,13.13V27.9a2.469,2.469,0,0,1-2.462,2.462H295.385a2.469,2.469,0,0,1-2.462-2.462V20.515H288l4.924-4.924V13.13a2.469,2.469,0,0,1,2.462-2.462h14.771A2.469,2.469,0,0,1,312.618,13.13Zm-6.154,4.924A2.469,2.469,0,0,0,304,15.591h-4.924v9.848H304a2.462,2.462,0,0,0,0-4.924,2.48,2.48,0,0,0,2.462-2.462Zm0,0" transform="translate(-254.766 -9.437)" fill="#45aaf2"/>
        <path id="Path_1045927" data-name="Path 1045927" d="M426.668,245.332h8.616V260.1h-8.616Zm0,0" transform="translate(-377.432 -217.021)" fill="#26de81"/>
        <path id="Path_1045928" data-name="Path 1045928" d="M348.717,224a2.469,2.469,0,0,1,2.462,2.462v14.771a2.469,2.469,0,0,1-2.462,2.462h-4.923a2.469,2.469,0,0,1-2.462-2.462V226.462A2.469,2.469,0,0,1,343.794,224Zm0,0" transform="translate(-301.943 -198.151)" fill="#778ca3"/>
        <path id="Path_1045929" data-name="Path 1045929" d="M24.208,30.362v4.924l-4.924-4.924H13.13A2.469,2.469,0,0,1,10.668,27.9V13.13a2.469,2.469,0,0,1,2.462-2.462H27.9a2.469,2.469,0,0,1,2.462,2.462V27.9A2.469,2.469,0,0,1,27.9,30.362Zm-7.385-8.616h7.385V19.284a3.693,3.693,0,0,0-7.385,0Zm0,0" transform="translate(-9.437 -9.437)" fill="#fed049"/>
        <path id="Path_1045930" data-name="Path 1045930" d="M71.385,59.487H64V57.025a3.693,3.693,0,0,1,7.385,0Zm0,0" transform="translate(-56.615 -47.178)" fill="#fed049"/>
        <g id="Group_1201824" data-name="Group 1201824">
          <path id="Path_1045931" data-name="Path 1045931" d="M199.388,121.753h-7.612a3.693,3.693,0,0,0-3.466-2.462h-4.923a3.693,3.693,0,0,0-3.4,2.248l-3.118-3.118a1.23,1.23,0,0,0-.87-.361v-3.693a1.2,1.2,0,0,0-.193-.623l.017-.011-3.693-6.154a1.279,1.279,0,0,0-2.11,0l-3.693,6.154.017.011a1.2,1.2,0,0,0-.193.623v6.154h-2.462A3.693,3.693,0,0,0,160,124.215a3.594,3.594,0,0,0,.962,2.462,3.665,3.665,0,0,0-.962,2.462,3.6,3.6,0,0,0,.966,2.462,3.6,3.6,0,0,0-.966,2.462,3.673,3.673,0,0,0,.964,2.462,3.608,3.608,0,0,0-.964,2.462,3.693,3.693,0,0,0,3.693,3.693h2.462v6.154a4.924,4.924,0,0,0,9.848,0v-6.154h2.462a1.231,1.231,0,0,0,.87-.361l1.723-1.723a3.656,3.656,0,0,0,2.33.853h4.923a3.693,3.693,0,0,0,3.466-2.462h7.612a1.231,1.231,0,0,0,1.231-1.231V122.984a1.231,1.231,0,0,0-1.231-1.231Zm-19.694,2.971v3.183h-2.462a2.365,2.365,0,0,1-1.649-.531,2.954,2.954,0,0,1-.812-1.941v-2.452h-2.462v2.462a3.309,3.309,0,0,1-2.462,3.5v-7.2a1.231,1.231,0,0,1,1.231-1.231h4.414Zm-17.233,9.338a1.2,1.2,0,0,1,.377-.876,1.178,1.178,0,0,1,.854-.354h4.924a1.23,1.23,0,0,1,1.231,1.231,1.205,1.205,0,0,1-.376.877,1.179,1.179,0,0,1-.854.354h-4.924A1.231,1.231,0,0,1,162.461,134.062Zm.353-4.069a1.19,1.19,0,0,1-.353-.854,1.231,1.231,0,0,1,1.231-1.231h3.693v2.462h-3.693a1.2,1.2,0,0,1-.878-.376Zm8.263-11.932a3.667,3.667,0,0,0-2.462.96V115.6h4.923v2.462Zm0-7.454,1.519,2.531h-3.038Zm-7.385,12.378h3.693v2.462h-3.693a1.206,1.206,0,0,1-.878-.377,1.189,1.189,0,0,1-.353-.854A1.231,1.231,0,0,1,163.693,122.984Zm-1.231,16a1.2,1.2,0,0,1,.377-.876,1.178,1.178,0,0,1,.854-.355h4.924a1.231,1.231,0,0,1,1.231,1.231,1.2,1.2,0,0,1-.376.876,1.178,1.178,0,0,1-.854.355h-4.924A1.231,1.231,0,0,1,162.461,138.986Zm8.748,2.617a3.612,3.612,0,0,0,1.1-2.617,3.667,3.667,0,0,0-.964-2.462,3.618,3.618,0,0,0,.964-2.462,3.672,3.672,0,0,0-1.41-2.879,5.877,5.877,0,0,0,2.64-1.851V145.14h-4.923v-2.462A3.6,3.6,0,0,0,171.21,141.6Zm1.607,8.97a2.462,2.462,0,0,1-4.2-1.74V147.6h4.923v1.231A2.44,2.44,0,0,1,172.817,150.573Zm6.877-12.1-1.74,1.74H176v-9.988a5.828,5.828,0,0,0,1.231.14h2.462Zm9.847-.722a1.231,1.231,0,0,1-1.231,1.231h-4.923a1.231,1.231,0,0,1-1.231-1.231V122.984a1.231,1.231,0,0,1,1.231-1.231h4.923a1.231,1.231,0,0,1,1.231,1.231Zm8.616-1.231H192V124.215h6.155Zm0,0" transform="translate(-141.536 -94.673)" fill="#0b0a0a"/>
          <path id="Path_1045932" data-name="Path 1045932" d="M373.332,341.332h2.462v2.462h-2.462Zm0,0" transform="translate(-330.251 -301.943)" fill="#0b0a0a"/>
          <path id="Path_1045933" data-name="Path 1045933" d="M3.693,22.156H9.338L13.9,26.719a1.231,1.231,0,0,0,2.1-.87V22.156h2.462a3.693,3.693,0,0,0,3.693-3.693V3.693A3.693,3.693,0,0,0,18.464,0H3.693A3.693,3.693,0,0,0,0,3.693V18.464a3.693,3.693,0,0,0,3.693,3.693ZM2.462,3.693A1.231,1.231,0,0,1,3.693,2.462H18.464a1.231,1.231,0,0,1,1.231,1.231V18.464a1.231,1.231,0,0,1-1.231,1.231H14.771a1.231,1.231,0,0,0-1.231,1.231v1.952l-2.822-2.822a1.231,1.231,0,0,0-.87-.361H3.693a1.231,1.231,0,0,1-1.231-1.231Zm0,0" transform="translate(0 0)" fill="#0b0a0a"/>
          <path id="Path_1045934" data-name="Path 1045934" d="M300.722,0H285.952a3.693,3.693,0,0,0-3.693,3.693V5.645L277.7,10.208a1.231,1.231,0,0,0,.87,2.1h3.693v6.154a3.693,3.693,0,0,0,3.693,3.693h14.771a3.693,3.693,0,0,0,3.693-3.693V3.693A3.693,3.693,0,0,0,300.722,0Zm1.231,18.464a1.231,1.231,0,0,1-1.231,1.231H285.952a1.231,1.231,0,0,1-1.231-1.231V11.078a1.231,1.231,0,0,0-1.231-1.231h-1.952l2.822-2.822a1.231,1.231,0,0,0,.361-.87V3.693a1.231,1.231,0,0,1,1.231-1.231h14.771a1.231,1.231,0,0,1,1.231,1.231Zm0,0" transform="translate(-245.332)" fill="#0b0a0a"/>
          <path id="Path_1045935" data-name="Path 1045935" d="M19.695,338.464a1.231,1.231,0,0,1-1.231,1.231H3.693a1.231,1.231,0,0,1-1.231-1.231V323.693a1.231,1.231,0,0,1,1.231-1.231H16V320H3.693A3.693,3.693,0,0,0,0,323.693v14.771a3.693,3.693,0,0,0,3.693,3.693H18.464a3.693,3.693,0,0,0,3.693-3.693V333.54H19.695Zm0,0" transform="translate(0 -283.073)" fill="#0b0a0a"/>
          <path id="Path_1045936" data-name="Path 1045936" d="M55.794,51.284h4.923v3.693H63.18V47.591a4.924,4.924,0,0,0-9.848,0v7.385h2.462Zm2.462-6.154a2.462,2.462,0,0,1,2.462,2.462v1.231H55.794V47.591a2.462,2.462,0,0,1,2.462-2.462Zm0,0" transform="translate(-47.178 -37.744)" fill="#0b0a0a"/>
          <path id="Path_1045937" data-name="Path 1045937" d="M379.487,42.668h-4.924a1.231,1.231,0,0,0-1.231,1.231v9.848a1.231,1.231,0,0,0,1.231,1.231h4.924a3.714,3.714,0,0,0,3.693-3.693,3.667,3.667,0,0,0-.964-2.462,3.616,3.616,0,0,0,.964-2.462,3.693,3.693,0,0,0-3.693-3.693Zm0,2.462a1.231,1.231,0,0,1,1.231,1.231,1.2,1.2,0,0,1-.376.876,1.178,1.178,0,0,1-.854.354h-3.693V45.13Zm.854,7.031a1.179,1.179,0,0,1-.854.354h-3.693V50.053h3.693a1.23,1.23,0,0,1,1.231,1.231,1.206,1.206,0,0,1-.376.877Zm0,0" transform="translate(-330.251 -37.744)" fill="#0b0a0a"/>
          <path id="Path_1045938" data-name="Path 1045938" d="M57.025,365.13h2.462a1.231,1.231,0,0,1,1.231,1.231H63.18a3.693,3.693,0,0,0-3.693-3.693H57.025a3.693,3.693,0,0,0-3.693,3.693v4.923a3.693,3.693,0,0,0,3.693,3.693h2.462a3.693,3.693,0,0,0,3.693-3.693H60.717a1.231,1.231,0,0,1-1.231,1.231H57.025a1.231,1.231,0,0,1-1.231-1.231v-4.923A1.231,1.231,0,0,1,57.025,365.13Zm0,0" transform="translate(-47.178 -320.817)" fill="#0b0a0a"/>
        </g>
      </g>
    </g>
  </g>
</svg>
