<svg xmlns="http://www.w3.org/2000/svg" xmlns:xlink="http://www.w3.org/1999/xlink" width="113" height="113" viewBox="0 0 113 113">
  <defs>
    <filter id="Path_982547" x="0" y="0" width="113" height="113" filterUnits="userSpaceOnUse">
      <feOffset dy="3" input="SourceAlpha"/>
      <feGaussianBlur stdDeviation="3" result="blur"/>
      <feFlood flood-opacity="0.161"/>
      <feComposite operator="in" in2="blur"/>
      <feComposite in="SourceGraphic"/>
    </filter>
  </defs>
  <g id="Group_1202154" data-name="Group 1202154" transform="translate(-1216.25 -2276.704)">
    <g id="Group_1201945" data-name="Group 1201945">
      <g id="Group_1201897" data-name="Group 1201897" transform="translate(629.75 -364.62)">
        <g id="Group_1201681" data-name="Group 1201681" transform="translate(315.5 1726.825)">
          <g id="Group_1201330" data-name="Group 1201330" transform="translate(280 920.5)">
            <g id="Group_1172010" data-name="Group 1172010">
              <g id="Group_1171046" data-name="Group 1171046">
                <g id="Group_1148525" data-name="Group 1148525">
                  <g transform="matrix(1, 0, 0, 1, -9, -6)" filter="url(#Path_982547)">
                    <g id="Path_982547-2" data-name="Path 982547" transform="translate(9 6)" fill="#fdfbec">
                      <path d="M 47.5 93.5 C 41.28937149047852 93.5 35.26533508300781 92.28397369384766 29.59518623352051 89.88570404052734 C 24.11771965026855 87.56893157958984 19.19813346862793 84.25196075439453 14.97309303283691 80.02691650390625 C 10.74804019927979 75.80186462402344 7.431066513061523 70.88229370117188 5.114293098449707 65.40481567382812 C 2.716026782989502 59.73468017578125 1.5 53.71062850952148 1.5 47.5 C 1.5 41.28937149047852 2.716026782989502 35.26533508300781 5.114293098449707 29.59518623352051 C 7.431066513061523 24.11771965026855 10.74804019927979 19.19813346862793 14.97309303283691 14.97309303283691 C 19.19813346862793 10.74804019927979 24.11771965026855 7.431066513061523 29.59518623352051 5.114293098449707 C 35.26533508300781 2.716026782989502 41.28937149047852 1.5 47.5 1.5 C 53.71062850952148 1.5 59.73468017578125 2.716026782989502 65.40481567382812 5.114293098449707 C 70.88229370117188 7.431066513061523 75.80186462402344 10.74804019927979 80.02691650390625 14.97309303283691 C 84.25196075439453 19.19813346862793 87.56893157958984 24.11771965026855 89.88570404052734 29.59518623352051 C 92.28397369384766 35.26533508300781 93.5 41.28937149047852 93.5 47.5 C 93.5 53.71062850952148 92.28397369384766 59.73468017578125 89.88570404052734 65.40481567382812 C 87.56893157958984 70.88229370117188 84.25196075439453 75.80186462402344 80.02691650390625 80.02691650390625 C 75.80186462402344 84.25196075439453 70.88229370117188 87.56893157958984 65.40481567382812 89.88570404052734 C 59.73468017578125 92.28397369384766 53.71062850952148 93.5 47.5 93.5 Z" stroke="none"/>
                      <path d="M 47.5 3 C 41.49121475219727 3 35.66376876831055 4.176155090332031 30.17950439453125 6.495796203613281 C 24.88084411621094 8.736953735351562 20.12152099609375 11.94598388671875 16.03375244140625 16.03375244140625 C 11.94598388671875 20.12152099609375 8.736953735351562 24.88084411621094 6.495796203613281 30.17950439453125 C 4.176155090332031 35.66376876831055 3 41.49121475219727 3 47.5 C 3 53.50878524780273 4.176155090332031 59.33623123168945 6.495796203613281 64.82049560546875 C 8.736953735351562 70.11915588378906 11.94598388671875 74.87847900390625 16.03375244140625 78.96624755859375 C 20.12152099609375 83.05401611328125 24.88084411621094 86.26304626464844 30.17950439453125 88.50419616699219 C 35.66376876831055 90.82384490966797 41.49121475219727 92 47.5 92 C 53.50878524780273 92 59.33623123168945 90.82384490966797 64.82049560546875 88.50419616699219 C 70.11915588378906 86.26304626464844 74.87847900390625 83.05401611328125 78.96624755859375 78.96624755859375 C 83.05401611328125 74.87847900390625 86.26304626464844 70.11915588378906 88.50419616699219 64.82049560546875 C 90.82384490966797 59.33623123168945 92 53.50878524780273 92 47.5 C 92 41.49121475219727 90.82384490966797 35.66376876831055 88.50419616699219 30.17950439453125 C 86.26304626464844 24.88084411621094 83.05401611328125 20.12152099609375 78.96624755859375 16.03375244140625 C 74.87847900390625 11.94598388671875 70.11915588378906 8.736953735351562 64.82049560546875 6.495796203613281 C 59.33623123168945 4.176155090332031 53.50878524780273 3 47.5 3 M 47.5 0 C 73.7335205078125 0 95 21.2664794921875 95 47.5 C 95 73.7335205078125 73.7335205078125 95 47.5 95 C 21.2664794921875 95 0 73.7335205078125 0 47.5 C 0 21.2664794921875 21.2664794921875 0 47.5 0 Z" stroke="none" fill="#83793c"/>
                    </g>
                  </g>
                </g>
              </g>
            </g>
          </g>
        </g>
      </g>
      <g id="reading_3271124" transform="translate(1208.376 2297.222)">
        <g id="Group_1201942" data-name="Group 1201942" transform="translate(38.909 0.909)">
          <path id="Path_1046649" data-name="Path 1046649" d="M164.305,11.475a14.024,14.024,0,0,0-5.9-3.421l-1.568.4-.9-.876a14.348,14.348,0,0,0-1.486-.077A13.762,13.762,0,0,0,140.5,21.072V23.03A13.762,13.762,0,0,0,154.445,36.6a14.318,14.318,0,0,0,1.486-.077c.43-.043.855-.107,1.272-.188a14.042,14.042,0,0,0,7.1-3.71,13.351,13.351,0,0,0,4.084-9.6V21.072a13.352,13.352,0,0,0-4.084-9.6Z" transform="translate(-128.98 -7.5)" fill="#57758d"/>
          <path id="Path_1046650" data-name="Path 1046650" d="M194.9,107.836v9.721a9.7,9.7,0,0,1-19.4,0v-7.816a15.533,15.533,0,0,0,3.866.406c4.335,0,8.078-1.98,9.835-5.967a10.758,10.758,0,0,0,5.7,3.656Z" transform="translate(-159.736 -92.457)" fill="#ffe4c2"/>
          <path id="Path_1046651" data-name="Path 1046651" d="M188.2,206.623a23.035,23.035,0,0,1-6,0l-6.7-.88V206.8a9.7,9.7,0,0,0,19.4,0v-1.062Z" transform="translate(-159.736 -181.704)" fill="#f2d1a5"/>
          <path id="Path_1046652" data-name="Path 1046652" d="M100.965,255.925H93.689L75.5,253.5v27.89l18.189,2.425h7.276l18.189-2.425V253.5Z" transform="translate(-71.862 -223.67)" fill="#f88fa4"/>
          <path id="Path_1046653" data-name="Path 1046653" d="M93.689,455.925,75.5,453.5v3.638l18.189,2.425h7.276l18.189-2.425V453.5l-18.189,2.425Z" transform="translate(-71.862 -399.418)" fill="#f05475"/>
          <path id="Path_1046654" data-name="Path 1046654" d="M111.264,231.32h7.276l15.764-2.1V225.5l-15.93,2.091a26.681,26.681,0,0,1-6.943,0L95.5,225.5v3.719Z" transform="translate(-89.437 -199.065)" fill="#faef93" stroke="#fee95d" stroke-miterlimit="10" stroke-width="1"/>
          <path id="Path_1046655" data-name="Path 1046655" d="M49.744,323.5a4.244,4.244,0,0,0-4.244,4.244v2.425a4.244,4.244,0,0,0,8.488,0v-2.425A4.244,4.244,0,0,0,49.744,323.5Z" transform="translate(-45.5 -285.182)" fill="#ffe4c2"/>
          <path id="Path_1046656" data-name="Path 1046656" d="M399.744,323.5a4.244,4.244,0,0,1,4.244,4.244v2.425a4.244,4.244,0,0,1-8.488,0v-2.425A4.244,4.244,0,0,1,399.744,323.5Z" transform="translate(-353.059 -285.182)" fill="#ffe4c2"/>
          <path id="Path_1046657" data-name="Path 1046657" d="M49.744,357.138a4.245,4.245,0,0,1-4.2-3.638,4.274,4.274,0,0,0-.044.606v2.425a4.244,4.244,0,0,0,8.488,0v-2.425a4.274,4.274,0,0,0-.044-.606A4.245,4.245,0,0,1,49.744,357.138Z" transform="translate(-45.5 -311.544)" fill="#f2d1a5"/>
          <path id="Path_1046658" data-name="Path 1046658" d="M399.744,357.138a4.245,4.245,0,0,1-4.2-3.638,4.273,4.273,0,0,0-.044.606v2.425a4.244,4.244,0,0,0,8.488,0v-2.425a4.282,4.282,0,0,0-.044-.606A4.245,4.245,0,0,1,399.744,357.138Z" transform="translate(-353.059 -311.544)" fill="#f2d1a5"/>
          <path id="Path_1046659" data-name="Path 1046659" d="M225.5,433.5h7.276v3.638H225.5Z" transform="translate(-203.673 -381.843)" fill="#faef93" stroke="#fee95d" stroke-miterlimit="10" stroke-width="1"/>
        </g>
        <g id="Group_1201943" data-name="Group 1201943" transform="translate(45.397 7.639)">
          <path id="Path_1046660" data-name="Path 1046660" d="M397,449h1.819v1.819H397Z" transform="translate(-360.865 -402.194)" fill="#fff"/>
          <path id="Path_1046661" data-name="Path 1046661" d="M366.5,453h1.819v1.819H366.5Z" transform="translate(-334.063 -405.709)" fill="#fff"/>
          <path id="Path_1046662" data-name="Path 1046662" d="M99,449h1.819v1.819H99Z" transform="translate(-99 -402.194)" fill="#fff"/>
          <path id="Path_1046663" data-name="Path 1046663" d="M129.5,453h1.819v1.819H129.5Z" transform="translate(-125.802 -405.709)" fill="#fff"/>
          <path id="Path_1046664" data-name="Path 1046664" d="M203.5,63h1.819v1.819H203.5Z" transform="translate(-190.828 -63)" fill="#fff"/>
        </g>
        <g id="Group_1201944" data-name="Group 1201944" transform="translate(38 0)">
          <path id="Path_1046665" data-name="Path 1046665" d="M48.307,323.579v-2.425a5.154,5.154,0,0,0-10.307,0v2.425a5.154,5.154,0,0,0,10.307,0Zm-8.488,0v-2.425a3.335,3.335,0,0,1,6.669,0v2.425a3.335,3.335,0,1,1-6.669,0Z" transform="translate(-38 -277.682)"/>
          <path id="Path_1046666" data-name="Path 1046666" d="M69.819,437.273H68v6.4l9.67,1.289.24-1.8-8.091-1.079Z" transform="translate(-64.362 -384.249)"/>
          <path id="Path_1046667" data-name="Path 1046667" d="M111.654,57.833l-16.37,2.183V44.078H93.465v7.579H88.008V34.074h5.457v8.185h1.819v-8.3l6.717-.9-.24-1.8-7.446.993H87.159L72.244,30.266V28.381l14.9,1.956a27.6,27.6,0,0,0,7.18,0l14.9-1.956v1.886l-5.666.755.24,1.8,7.851-1.047v4.567h1.819V29.7l-2.425.323V26.307L101.225,27.6a10.579,10.579,0,0,0,.11-1.123,14.727,14.727,0,0,0,4.255-10.406V14.482A14.267,14.267,0,0,0,102,5.036l-1.363,1.2a12.45,12.45,0,0,1,3.139,8.242v1.585a12.916,12.916,0,0,1-2.425,7.578V15.577l-.692-.171a9.8,9.8,0,0,1-5.216-3.352L94.5,10.915l-.6,1.351c-1.519,3.447-4.8,5.424-9,5.424a14.479,14.479,0,0,1-3.638-.377l-1.137-.294v6.625A12.916,12.916,0,0,1,77.7,16.067V14.482a12.4,12.4,0,0,1,.078-1.386h2.893V11.277H78.124a12.308,12.308,0,0,1,.648-1.819h3.84V7.639H79.772a13.132,13.132,0,0,1,10.964-5.82c.36,0,.723.015,1.082.044l1.037,1.006,1.818-.462a13.215,13.215,0,0,1,4.754,2.638l1.194-1.372A15.042,15.042,0,0,0,94.944.589L94.707.521,93.393.855,92.629.114,92.316.082A15.387,15.387,0,0,0,90.736,0,14.688,14.688,0,0,0,75.882,14.482v1.585a14.727,14.727,0,0,0,4.255,10.406,10.576,10.576,0,0,0,.11,1.123l-9.822-1.289v3.716L68,29.7v6.644h1.819V31.778l16.37,2.183V60.016l-6.476-.863-.24,1.8,7.566,1.009h7.4l19.038-2.538v-6.4h-1.819ZM81.945,19.308a19,19,0,0,0,2.956.2c4.452,0,8.042-1.914,10.048-5.3a11.5,11.5,0,0,0,4.579,2.77V26.01a8.791,8.791,0,0,1-.195,1.835l-5.243.688a25.794,25.794,0,0,1-6.707,0l-5.243-.688a8.784,8.784,0,0,1-.194-1.835v-6.7Zm11.52,40.837H88.008V57.113h5.457Zm0-4.85H88.008V53.476h5.457Z" transform="translate(-64.362 0)"/>
          <path id="Path_1046668" data-name="Path 1046668" d="M213,189.5h1.819v1.819H213Z" transform="translate(-191.78 -166.521)"/>
          <path id="Path_1046669" data-name="Path 1046669" d="M283,189.5h1.819v1.819H283Z" transform="translate(-253.291 -166.521)"/>
          <path id="Path_1046670" data-name="Path 1046670" d="M393.154,316A5.159,5.159,0,0,0,388,321.154v2.425a5.154,5.154,0,0,0,10.307,0v-2.425A5.159,5.159,0,0,0,393.154,316Zm3.335,7.579a3.335,3.335,0,1,1-6.669,0v-2.425a3.335,3.335,0,1,1,6.669,0Z" transform="translate(-345.559 -277.682)"/>
        </g>
      </g>
    </g>
  </g>
</svg>
