<svg xmlns="http://www.w3.org/2000/svg" xmlns:xlink="http://www.w3.org/1999/xlink" width="113" height="113" viewBox="0 0 113 113">
  <defs>
    <filter id="Path_982547" x="0" y="0" width="113" height="113" filterUnits="userSpaceOnUse">
      <feOffset dy="3" input="SourceAlpha"/>
      <feGaussianBlur stdDeviation="3" result="blur"/>
      <feFlood flood-opacity="0.161"/>
      <feComposite operator="in" in2="blur"/>
      <feComposite in="SourceGraphic"/>
    </filter>
  </defs>
  <g id="Group_1202188" data-name="Group 1202188" transform="translate(-7320.49 -6776.651)">
    <g id="Group_1202106" data-name="Group 1202106">
      <g id="Group_1201924" data-name="Group 1201924" transform="translate(2034 4856.378)">
        <g id="Group_1176928" data-name="Group 1176928" transform="translate(5295.49 1926.273)">
          <g id="Group_1172322" data-name="Group 1172322" transform="translate(0 0)">
            <g id="Group_1164700" data-name="Group 1164700">
              <g id="Group_1160931" data-name="Group 1160931">
                <g id="Group_1160749" data-name="Group 1160749">
                  <g id="Group_1158891" data-name="Group 1158891">
                    <g id="Group_1157406" data-name="Group 1157406">
                      <g id="Group_1155793" data-name="Group 1155793">
                        <g id="Group_1154704" data-name="Group 1154704">
                          <g id="Group_1150790" data-name="Group 1150790">
                            <g id="Group_1154214" data-name="Group 1154214">
                              <g id="Group_1152583" data-name="Group 1152583">
                                <g id="Group_1146973" data-name="Group 1146973">
                                  <g id="Group_1146954" data-name="Group 1146954">
                                    <g transform="matrix(1, 0, 0, 1, -9, -6)" filter="url(#Path_982547)">
                                      <g id="Path_982547-2" data-name="Path 982547" transform="translate(9 6)" fill="#ebe9f0">
                                        <path d="M 47.5000114440918 93.49987030029297 C 41.28938293457031 93.49987030029297 35.26534652709961 92.28384399414062 29.5951976776123 89.88558959960938 C 24.11773109436035 87.56881713867188 19.19814491271973 84.25183868408203 14.97310447692871 80.02680206298828 C 10.74805164337158 75.80176544189453 7.43107795715332 70.88218688964844 5.114304542541504 65.40472412109375 C 2.716038227081299 59.73458862304688 1.500011444091797 53.71054840087891 1.500011444091797 47.49993515014648 C 1.500011444091797 41.28932189941406 2.716038227081299 35.26528167724609 5.114304542541504 29.59514808654785 C 7.43107795715332 24.1176815032959 10.74805164337158 19.1981086730957 14.97310447692871 14.97306823730469 C 19.19814491271973 10.74802875518799 24.11773109436035 7.431055068969727 29.5951976776123 5.11428165435791 C 35.26534652709961 2.716028451919556 41.28938293457031 1.500001788139343 47.5000114440918 1.500001788139343 C 53.71063995361328 1.500001788139343 59.73467636108398 2.716028451919556 65.40482330322266 5.11428165435791 C 70.88229370117188 7.431055068969727 75.8018798828125 10.74802875518799 80.02691650390625 14.97306823730469 C 84.25196838378906 19.1981086730957 87.56894683837891 24.1176815032959 89.88571929931641 29.59514808654785 C 92.28398132324219 35.26528167724609 93.50001525878906 41.28932189941406 93.50001525878906 47.49993515014648 C 93.50001525878906 53.71054840087891 92.28398132324219 59.73458862304688 89.88571929931641 65.40472412109375 C 87.56894683837891 70.88218688964844 84.25196838378906 75.80176544189453 80.02691650390625 80.02680206298828 C 75.8018798828125 84.25183868408203 70.88229370117188 87.56881713867188 65.40482330322266 89.88558959960938 C 59.73467636108398 92.28384399414062 53.71063995361328 93.49987030029297 47.5000114440918 93.49987030029297 Z" stroke="none"/>
                                        <path d="M 47.5000114440918 3 C 41.49122619628906 3 35.66378021240234 4.1761474609375 30.17951965332031 6.495796203613281 C 24.880859375 8.7369384765625 20.12153625488281 11.94596862792969 16.03376770019531 16.03373718261719 C 11.94598388671875 20.12149047851562 8.736968994140625 24.88081359863281 6.495811462402344 30.17947387695312 C 4.176162719726562 35.66371917724609 3.000007629394531 41.49116516113281 3.000007629394531 47.49993515014648 C 3.000007629394531 53.50870513916016 4.176162719726562 59.33615112304688 6.495811462402344 64.82039642333984 C 8.736968994140625 70.11905670166016 11.94598388671875 74.87837982177734 16.03376770019531 78.96613311767578 C 20.12153625488281 83.05390167236328 24.880859375 86.26293182373047 30.17951965332031 88.50407409667969 C 35.66378021240234 90.82372283935547 41.49122619628906 91.99987030029297 47.5000114440918 91.99987030029297 C 53.50879669189453 91.99987030029297 59.33624267578125 90.82372283935547 64.82050323486328 88.50407409667969 C 70.11916351318359 86.26293182373047 74.87848663330078 83.05390167236328 78.96625518798828 78.96613311767578 C 83.05403900146484 74.87837982177734 86.2630615234375 70.11905670166016 88.50421142578125 64.82039642333984 C 90.82386016845703 59.33615112304688 92.00001525878906 53.50870513916016 92.00001525878906 47.49993515014648 C 92.00001525878906 41.49116516113281 90.82386016845703 35.66371917724609 88.50421142578125 30.17947387695312 C 86.2630615234375 24.88081359863281 83.05403900146484 20.12149047851562 78.96625518798828 16.03373718261719 C 74.87848663330078 11.94596862792969 70.11916351318359 8.7369384765625 64.82050323486328 6.495796203613281 C 59.33624267578125 4.1761474609375 53.50879669189453 3 47.5000114440918 3 M 47.5000114440918 0 C 73.73353576660156 0 95.00001525878906 21.26644134521484 95.00001525878906 47.49993515014648 C 95.00001525878906 73.73342895507812 73.73353576660156 94.99987030029297 47.5000114440918 94.99987030029297 C 21.26648712158203 94.99987030029297 7.62939453125e-06 73.73342895507812 7.62939453125e-06 47.49993515014648 C 7.62939453125e-06 21.26644134521484 21.26648712158203 0 47.5000114440918 0 Z" stroke="none" fill="#453179"/>
                                      </g>
                                    </g>
                                  </g>
                                </g>
                              </g>
                            </g>
                          </g>
                        </g>
                      </g>
                    </g>
                  </g>
                </g>
              </g>
            </g>
          </g>
        </g>
      </g>
      <g id="knowledge-sharing_18254862" transform="translate(7345.03 6798.191)">
        <g id="Group_1202105" data-name="Group 1202105" transform="translate(0.99 0.99)">
          <path id="Path_1047522" data-name="Path 1047522" d="M149.165,326.952v20.736a.728.728,0,0,1-.855.721l-4.01-.691a32.2,32.2,0,0,0-11.586.33,5.457,5.457,0,0,1-2.662,0,32.2,32.2,0,0,0-11.586-.33l-4.01.691a.732.732,0,0,1-.855-.721V326.952a.732.732,0,0,1,.732-.732h34.1A.731.731,0,0,1,149.165,326.952Z" transform="translate(-100.413 -286.481)" fill="#2f5274" fill-rule="evenodd"/>
          <path id="Path_1047523" data-name="Path 1047523" d="M125.79,326.22h32.521v17.356a2.528,2.528,0,0,1-2.868,2.5,37.123,37.123,0,0,0-12.626.518,3.1,3.1,0,0,1-1.529,0,37.078,37.078,0,0,0-12.624-.518,2.529,2.529,0,0,1-2.872-2.5V326.22Z" transform="translate(-111.081 -286.481)" fill="#2a4a68" fill-rule="evenodd"/>
          <path id="Path_1047524" data-name="Path 1047524" d="M153.972,299.2a39.328,39.328,0,0,0-13.5-.526.774.774,0,0,0-.669.773v19.718a.759.759,0,0,0,.268.588.77.77,0,0,0,.618.186,39.337,39.337,0,0,1,13.287.553,1.323,1.323,0,0,0,.677,0,39.34,39.34,0,0,1,13.287-.553.761.761,0,0,0,.618-.186.749.749,0,0,0,.268-.588V299.444a.775.775,0,0,0-.669-.773,39.329,39.329,0,0,0-13.5.526A1.333,1.333,0,0,1,153.972,299.2Z" transform="translate(-123.341 -262.069)" fill="#daeafa" fill-rule="evenodd"/>
          <path id="Path_1047525" data-name="Path 1047525" d="M235.4,350.27H228.55v2.384A1.549,1.549,0,0,0,230.1,354.2h3.763a1.549,1.549,0,0,0,1.546-1.546Z" transform="translate(-201.008 -307.528)" fill="#2f5274" fill-rule="evenodd"/>
          <path id="Path_1047526" data-name="Path 1047526" d="M203.231,204.89a7.53,7.53,0,0,0-7.531,7.531c0,3.172,1.471,4.312,2.958,6.054a4.6,4.6,0,0,1,1.144,3.1h6.855a4.612,4.612,0,0,1,1.144-3.1c1.487-1.742,2.958-2.882,2.958-6.054A7.527,7.527,0,0,0,203.231,204.89Z" transform="translate(-172.26 -180.303)" fill="#ffd400" fill-rule="evenodd"/>
          <path id="Path_1047527" data-name="Path 1047527" d="M18.113,87.1H14.845A6.867,6.867,0,0,0,8,93.945v3a.958.958,0,0,0,.955.955H24a.958.958,0,0,0,.955-.955v-3A6.865,6.865,0,0,0,18.113,87.1Z" transform="translate(-8 -77.222)" fill="#0593fc" fill-rule="evenodd"/>
          <path id="Path_1047528" data-name="Path 1047528" d="M378.323,87.1h-3.268a6.867,6.867,0,0,0-6.845,6.845v3a.958.958,0,0,0,.955.955h15.045a.958.958,0,0,0,.955-.955v-3A6.865,6.865,0,0,0,378.323,87.1Z" transform="translate(-323.228 -77.222)" fill="#0593fc" fill-rule="evenodd"/>
          <path id="Path_1047529" data-name="Path 1047529" d="M40.533,87.1H37.265a6.8,6.8,0,0,0-3.645,1.061,7.546,7.546,0,0,0,10.558,0A6.8,6.8,0,0,0,40.533,87.1Z" transform="translate(-30.421 -77.222)" fill="#0584e3" fill-rule="evenodd"/>
          <path id="Path_1047530" data-name="Path 1047530" d="M400.77,87.1H397.5a6.78,6.78,0,0,0-3.641,1.061,7.541,7.541,0,0,0,10.555,0A6.8,6.8,0,0,0,400.77,87.1Z" transform="translate(-345.674 -77.222)" fill="#0584e3" fill-rule="evenodd"/>
          <path id="Path_1047531" data-name="Path 1047531" d="M37.016,19.094a5.547,5.547,0,1,0-5.546-5.546A5.556,5.556,0,0,0,37.016,19.094Z" transform="translate(-28.539 -8)" fill="#fbbd80" fill-rule="evenodd"/>
          <path id="Path_1047532" data-name="Path 1047532" d="M397.238,19.094a5.547,5.547,0,1,0-5.548-5.546A5.557,5.557,0,0,0,397.238,19.094Z" transform="translate(-343.775 -8)" fill="#fbbd80" fill-rule="evenodd"/>
          <path id="Path_1047533" data-name="Path 1047533" d="M224.17,337.132h-7.294a1.416,1.416,0,1,1,0-2.832h7.294a1.416,1.416,0,1,1,0,2.832Z" transform="translate(-189.553 -293.552)" fill="#223c55" fill-rule="evenodd"/>
          <path id="Path_1047534" data-name="Path 1047534" d="M197.169,212.421a7.529,7.529,0,0,1,6.792-7.494c-.244-.024-.491-.037-.739-.037a7.53,7.53,0,0,0-7.531,7.531,6.358,6.358,0,0,0,1.364,4.2c.477.626,1.034,1.2,1.595,1.852a4.534,4.534,0,0,1,1.118,2.578h1.477a4.45,4.45,0,0,0-.216-1.01,4.673,4.673,0,0,0-.9-1.567c-.526-.616-1.048-1.154-1.5-1.735A6.386,6.386,0,0,1,197.169,212.421Z" transform="translate(-172.252 -180.303)" fill="#e6bf00" fill-rule="evenodd"/>
          <path id="Path_1047535" data-name="Path 1047535" d="M217.1,336.828a1.415,1.415,0,0,1,.9-2.508h-1.116a1.416,1.416,0,0,0,0,2.832h1.116A1.412,1.412,0,0,1,217.1,336.828Z" transform="translate(-189.553 -293.57)" fill="#1f364d" fill-rule="evenodd"/>
          <path id="Path_1047536" data-name="Path 1047536" d="M229.343,358.536V356.99h-.783v1.546a1.549,1.549,0,0,0,1.546,1.546h.783A1.55,1.55,0,0,1,229.343,358.536Z" transform="translate(-201.017 -313.409)" fill="#2a4a68" fill-rule="evenodd"/>
        </g>
        <path id="Path_1047537" data-name="Path 1047537" d="M43.844,54.066a1,1,0,0,1-1.054.943,41.592,41.592,0,0,0-7.081.217,1,1,0,1,1-.24-1.984,43.667,43.667,0,0,1,7.433-.229,1,1,0,0,1,.942,1.053Zm-15.391-.825a43.5,43.5,0,0,0-7.429-.229,1,1,0,1,0,.111,2,41.548,41.548,0,0,1,7.077.217,1,1,0,0,0,.241-1.986Zm7.136-2.128a.986.986,0,0,0,.121-.007,42,42,0,0,1,7.082-.217,1,1,0,0,0,.109-2,44.039,44.039,0,0,0-7.432.229,1,1,0,0,0,.12,1.993ZM21.025,48.891a1,1,0,0,0,.109,2,41.815,41.815,0,0,1,7.078.217,1,1,0,1,0,.241-1.984A43.853,43.853,0,0,0,21.025,48.891ZM31.96,23.145a1,1,0,0,0,1-1v-3.95a1,1,0,0,0-2,0v3.95A1,1,0,0,0,31.96,23.145Zm-6.346.969a1,1,0,1,0,1.731-1l-1.976-3.423a1,1,0,1,0-1.732,1Zm-7.433,1.035a1,1,0,0,0,.366,1.366l3.419,1.976a1,1,0,1,0,1-1.731l-3.419-1.976A1,1,0,0,0,18.181,25.149Zm18.763-.669a1,1,0,0,0,1.365-.367l1.976-3.423a1,1,0,1,0-1.732-1l-1.976,3.423A1,1,0,0,0,36.944,24.48Zm4.514,4.145a1,1,0,0,0,.5-.135l3.419-1.976a1,1,0,0,0-1-1.732l-3.419,1.976a1,1,0,0,0,.5,1.867ZM39.325,42.876a.961.961,0,0,0,.236-.029,9.774,9.774,0,0,1,3.286-.2,1,1,0,0,0,.221-1.987,11.785,11.785,0,0,0-3.977.245,1,1,0,0,0,.235,1.972Zm-18.361,0a.961.961,0,0,0,.236-.029,9.772,9.772,0,0,1,3.286-.2,1,1,0,0,0,.221-1.987,11.794,11.794,0,0,0-3.979.245,1,1,0,0,0,.236,1.972Zm18.361,3.98a.961.961,0,0,0,.236-.029,9.774,9.774,0,0,1,3.286-.2,1,1,0,0,0,.221-1.987,11.785,11.785,0,0,0-3.977.245,1,1,0,0,0,.235,1.972Zm-18.361,0a.961.961,0,0,0,.236-.029,9.772,9.772,0,0,1,3.286-.2,1,1,0,0,0,.221-1.987,11.794,11.794,0,0,0-3.979.245,1,1,0,0,0,.236,1.972ZM1.946,22.66A1.955,1.955,0,0,1-.01,20.709V17.714a7.848,7.848,0,0,1,1.723-4.89A7.932,7.932,0,0,1,4.4,10.671a6.547,6.547,0,1,1,10.146,0,7.948,7.948,0,0,1,2.684,2.153,7.85,7.85,0,0,1,1.721,4.89v2.995a1.954,1.954,0,0,1-1.952,1.952H1.946ZM4.921,6.537A4.547,4.547,0,1,0,9.468,1.991,4.551,4.551,0,0,0,4.921,6.537ZM1.989,20.66H4.407V17.982a1,1,0,0,1,2,0V20.66h6.12V17.982a1,1,0,0,1,2,0V20.66h2.418V17.713a5.911,5.911,0,0,0-4.092-5.573,6.532,6.532,0,0,1-6.77,0,5.916,5.916,0,0,0-4.095,5.573ZM63.93,17.713v2.995a1.954,1.954,0,0,1-1.952,1.952H46.931a1.955,1.955,0,0,1-1.956-1.952V17.713a7.848,7.848,0,0,1,1.723-4.89,7.967,7.967,0,0,1,2.682-2.152,6.547,6.547,0,1,1,10.146,0,7.948,7.948,0,0,1,2.684,2.153A7.859,7.859,0,0,1,63.93,17.713ZM49.905,6.537a4.547,4.547,0,1,0,4.547-4.547A4.551,4.551,0,0,0,49.905,6.537ZM61.931,17.713a5.911,5.911,0,0,0-4.092-5.573,6.533,6.533,0,0,1-6.77,0,5.915,5.915,0,0,0-4.094,5.573V20.66H49.4V17.982a1,1,0,0,1,2,0V20.66h6.117V17.982a1,1,0,0,1,2,0V20.66h2.416Zm-6.145,7.3V51.83a1,1,0,0,1-1,1H50.744V62.2a1.732,1.732,0,0,1-2.032,1.7l-4.006-.689a31.281,31.281,0,0,0-11.173.313,6.349,6.349,0,0,1-3.151,0,31.325,31.325,0,0,0-11.172-.313l-4.006.691a1.74,1.74,0,0,1-.31.027,1.688,1.688,0,0,1-1.108-.412,1.712,1.712,0,0,1-.612-1.32V52.83H9.135a1,1,0,0,1-1-1V25.016a1,1,0,0,1,2,0V50.831h3.041V41.458a1.733,1.733,0,0,1,1.733-1.73h1.542V38.364A1.768,1.768,0,0,1,17.976,36.6a39.148,39.148,0,0,1,6.039-.353,7.905,7.905,0,0,1-.583-3.142,8.529,8.529,0,1,1,17.058,0,7.91,7.91,0,0,1-.583,3.142,39.338,39.338,0,0,1,6.042.353,1.769,1.769,0,0,1,1.525,1.761v1.365h1.539a1.733,1.733,0,0,1,1.733,1.73v9.372h3.041V25.016a1,1,0,1,1,2,0ZM38.627,38.286c-.242.293-.492.574-.741.852-.195.219-.4.443-.593.674a3.755,3.755,0,0,0-.683,1.146,2.414,2.414,0,0,1-.222,4.479v.679a2.55,2.55,0,0,1-2.546,2.548h-.883v9.573a40.96,40.96,0,0,1,12.514-.4V38.556a39.039,39.039,0,0,0-6.846-.27ZM28.314,42.738a.416.416,0,1,0,0,.832h7.3a.416.416,0,0,0,0-.832h-7.3Zm1.22,3.378a.545.545,0,0,0,.543.547h3.766a.548.548,0,0,0,.547-.547v-.547H29.534Zm-4.1-13.009A5.371,5.371,0,0,0,26.582,36.7c.009.01.016.021.024.031.275.357.586.706.923,1.083.2.225.41.458.622.706a5.631,5.631,0,0,1,1.185,2.223h1.623V36.089l-2.072-2.072A1,1,0,0,1,30.3,32.6l1.66,1.657L33.621,32.6a1,1,0,1,1,1.414,1.416L32.96,36.09v4.649h1.625a5.67,5.67,0,0,1,1.189-2.224c.21-.247.42-.481.622-.708,1.215-1.361,2.094-2.344,2.094-4.7a6.53,6.53,0,1,0-13.06,0ZM18.451,57.832a40.944,40.944,0,0,1,12.51.4V48.664h-.883a2.549,2.549,0,0,1-2.544-2.548v-.679a2.411,2.411,0,0,1-.224-4.478,3.718,3.718,0,0,0-.679-1.145c-.2-.231-.4-.455-.592-.672-.25-.28-.5-.562-.746-.857a39.021,39.021,0,0,0-6.843.27Zm30.293-16.1H47.473V58.082a1.787,1.787,0,0,1-2.023,1.766,38.32,38.32,0,0,0-12.909.536,2.369,2.369,0,0,1-1.158,0,38.294,38.294,0,0,0-12.914-.537,1.78,1.78,0,0,1-2.021-1.766V41.729H15.176V61.879l3.7-.637a33.083,33.083,0,0,1,12,.345,4.37,4.37,0,0,0,2.173,0,33.075,33.075,0,0,1,12-.346l3.7.637Z"/>
      </g>
    </g>
  </g>
</svg>
