<svg xmlns="http://www.w3.org/2000/svg" xmlns:xlink="http://www.w3.org/1999/xlink" width="113" height="113" viewBox="0 0 113 113">
  <defs>
    <filter id="Path_982547" x="0" y="0" width="113" height="113" filterUnits="userSpaceOnUse">
      <feOffset dy="3" input="SourceAlpha"/>
      <feGaussianBlur stdDeviation="3" result="blur"/>
      <feFlood flood-opacity="0.161"/>
      <feComposite operator="in" in2="blur"/>
      <feComposite in="SourceGraphic"/>
    </filter>
  </defs>
  <g id="Group_1202175" data-name="Group 1202175" transform="translate(-901.25 -3925.037)">
    <g id="Group_1202016" data-name="Group 1202016">
      <g id="Group_1201916" data-name="Group 1201916" transform="translate(-0.25 1283.713)">
        <g id="Group_1201682" data-name="Group 1201682" transform="translate(630.5 1726.825)">
          <g id="Group_1201330" data-name="Group 1201330" transform="translate(280 920.5)">
            <g id="Group_1172010" data-name="Group 1172010">
              <g id="Group_1171046" data-name="Group 1171046">
                <g id="Group_1148525" data-name="Group 1148525">
                  <g transform="matrix(1, 0, 0, 1, -9, -6)" filter="url(#Path_982547)">
                    <g id="Path_982547-2" data-name="Path 982547" transform="translate(9 6)" fill="#fdfbec">
                      <path d="M 47.5 93.5 C 41.28937149047852 93.5 35.26533508300781 92.28397369384766 29.59518623352051 89.88570404052734 C 24.11771965026855 87.56893157958984 19.19813346862793 84.25196075439453 14.97309303283691 80.02691650390625 C 10.74804019927979 75.80186462402344 7.431066513061523 70.88229370117188 5.114293098449707 65.40481567382812 C 2.716026782989502 59.73468017578125 1.5 53.71062850952148 1.5 47.5 C 1.5 41.28937149047852 2.716026782989502 35.26533508300781 5.114293098449707 29.59518623352051 C 7.431066513061523 24.11771965026855 10.74804019927979 19.19813346862793 14.97309303283691 14.97309303283691 C 19.19813346862793 10.74804019927979 24.11771965026855 7.431066513061523 29.59518623352051 5.114293098449707 C 35.26533508300781 2.716026782989502 41.28937149047852 1.5 47.5 1.5 C 53.71062850952148 1.5 59.73468017578125 2.716026782989502 65.40481567382812 5.114293098449707 C 70.88229370117188 7.431066513061523 75.80186462402344 10.74804019927979 80.02691650390625 14.97309303283691 C 84.25196075439453 19.19813346862793 87.56893157958984 24.11771965026855 89.88570404052734 29.59518623352051 C 92.28397369384766 35.26533508300781 93.5 41.28937149047852 93.5 47.5 C 93.5 53.71062850952148 92.28397369384766 59.73468017578125 89.88570404052734 65.40481567382812 C 87.56893157958984 70.88229370117188 84.25196075439453 75.80186462402344 80.02691650390625 80.02691650390625 C 75.80186462402344 84.25196075439453 70.88229370117188 87.56893157958984 65.40481567382812 89.88570404052734 C 59.73468017578125 92.28397369384766 53.71062850952148 93.5 47.5 93.5 Z" stroke="none"/>
                      <path d="M 47.5 3 C 41.49121475219727 3 35.66376876831055 4.176155090332031 30.17950439453125 6.495796203613281 C 24.88084411621094 8.736953735351562 20.12152099609375 11.94598388671875 16.03375244140625 16.03375244140625 C 11.94598388671875 20.12152099609375 8.736953735351562 24.88084411621094 6.495796203613281 30.17950439453125 C 4.176155090332031 35.66376876831055 3 41.49121475219727 3 47.5 C 3 53.50878524780273 4.176155090332031 59.33623123168945 6.495796203613281 64.82049560546875 C 8.736953735351562 70.11915588378906 11.94598388671875 74.87847900390625 16.03375244140625 78.96624755859375 C 20.12152099609375 83.05401611328125 24.88084411621094 86.26304626464844 30.17950439453125 88.50419616699219 C 35.66376876831055 90.82384490966797 41.49121475219727 92 47.5 92 C 53.50878524780273 92 59.33623123168945 90.82384490966797 64.82049560546875 88.50419616699219 C 70.11915588378906 86.26304626464844 74.87847900390625 83.05401611328125 78.96624755859375 78.96624755859375 C 83.05401611328125 74.87847900390625 86.26304626464844 70.11915588378906 88.50419616699219 64.82049560546875 C 90.82384490966797 59.33623123168945 92 53.50878524780273 92 47.5 C 92 41.49121475219727 90.82384490966797 35.66376876831055 88.50419616699219 30.17950439453125 C 86.26304626464844 24.88084411621094 83.05401611328125 20.12152099609375 78.96624755859375 16.03375244140625 C 74.87847900390625 11.94598388671875 70.11915588378906 8.736953735351562 64.82049560546875 6.495796203613281 C 59.33623123168945 4.176155090332031 53.50878524780273 3 47.5 3 M 47.5 0 C 73.7335205078125 0 95 21.2664794921875 95 47.5 C 95 73.7335205078125 73.7335205078125 95 47.5 95 C 21.2664794921875 95 0 73.7335205078125 0 47.5 C 0 21.2664794921875 21.2664794921875 0 47.5 0 Z" stroke="none" fill="#83793c"/>
                    </g>
                  </g>
                </g>
              </g>
            </g>
          </g>
        </g>
      </g>
      <g id="applicant_3417302" transform="translate(928.319 3949.319)">
        <g id="Group_1202014" data-name="Group 1202014" transform="translate(1.925 1.925)">
          <g id="Group_1201998" data-name="Group 1201998" transform="translate(29.606 0)">
            <path id="Path_1047015" data-name="Path 1047015" d="M58.055,2.925v11.1a.928.928,0,0,1-.925.925H48.8l-3.321,3.321a1.308,1.308,0,0,1-2.23-.925v-2.4H34.925A.928.928,0,0,1,34,14.027V2.925A.928.928,0,0,1,34.925,2h22.2A.928.928,0,0,1,58.055,2.925Z" transform="translate(-34 -2)" fill="#e6e9ed"/>
          </g>
          <g id="Group_1201999" data-name="Group 1201999" transform="translate(25.905 40.708)">
            <path id="Path_1047016" data-name="Path 1047016" d="M59.606,46.925v1.85a.928.928,0,0,1-.925.925H30V46H58.681A.928.928,0,0,1,59.606,46.925Z" transform="translate(-30 -46)" fill="#aab2bd"/>
          </g>
          <g id="Group_1202000" data-name="Group 1202000" transform="translate(38.858 31.456)">
            <path id="Path_1047017" data-name="Path 1047017" d="M58.8,43.4v1.85H44V43.4a7.4,7.4,0,1,1,14.8,0Z" transform="translate(-44 -36)" fill="#ff826e"/>
          </g>
          <g id="Group_1202001" data-name="Group 1202001" transform="translate(25.554 31.456)">
            <path id="Path_1047018" data-name="Path 1047018" d="M42.924,43.4v1.85H29.972V41.736a11.373,11.373,0,0,0-.352-2.813h.009A7.4,7.4,0,0,1,42.924,43.4Z" transform="translate(-29.62 -36)" fill="#fcd770"/>
          </g>
          <g id="Group_1202002" data-name="Group 1202002" transform="translate(40.708 20.354)">
            <path id="Path_1047019" data-name="Path 1047019" d="M57.1,29.551H46a5.551,5.551,0,0,1,11.1,0Z" transform="translate(-46 -24)" fill="#b27946"/>
          </g>
          <g id="Group_1202003" data-name="Group 1202003" transform="translate(25.905 20.354)">
            <path id="Path_1047020" data-name="Path 1047020" d="M41.1,29.551H30a5.551,5.551,0,0,1,11.1,0Z" transform="translate(-30 -24)" fill="#b27946"/>
          </g>
          <g id="Group_1202004" data-name="Group 1202004" transform="translate(1.85 44.409)">
            <path id="Path_1047021" data-name="Path 1047021" d="M23.124,51.85l1.832,5.5L26.2,61.1H4l1.249-3.747,1.832-5.5H7.09L7.7,50H22.5Z" transform="translate(-4 -50)" fill="#d3a06c"/>
          </g>
          <g id="Group_1202005" data-name="Group 1202005" transform="translate(0 25.905)">
            <path id="Path_1047022" data-name="Path 1047022" d="M27.905,48.5v1.85H22.974l-.62-1.85H7.551l-.611,1.85H2V41.287A11.507,11.507,0,0,1,11.252,30v1.24a12.829,12.829,0,0,0,.241,2.461,12.614,12.614,0,0,0,3.46,6.476,12.647,12.647,0,0,0,2.739-4.1,13.3,13.3,0,0,0,.722-2.378,12.829,12.829,0,0,0,.241-2.461V30a11.494,11.494,0,0,1,8.9,8.475,11.373,11.373,0,0,1,.352,2.813V48.5Z" transform="translate(-2 -30)" fill="#5cd6b3"/>
          </g>
          <g id="Group_1202006" data-name="Group 1202006" transform="translate(9.492 29.606)">
            <path id="Path_1047023" data-name="Path 1047023" d="M12.26,34h6.92a13.3,13.3,0,0,1-.722,2.378,12.647,12.647,0,0,1-2.739,4.1A12.614,12.614,0,0,1,12.26,34Z" transform="translate(-12.26 -34)" fill="#ff826e"/>
          </g>
          <g id="Group_1202007" data-name="Group 1202007" transform="translate(0 0)">
            <path id="Path_1047024" data-name="Path 1047024" d="M27.665,16.035a5.291,5.291,0,0,1-3.377,6.6L20,24.066a7.394,7.394,0,0,0,2.35-5.412V13.1a3.7,3.7,0,0,0-3.7-3.7H12.177a4.628,4.628,0,0,0-4.626,4.626v4.626A7.415,7.415,0,0,0,9.716,23.89c.056.056.12.12.185.176L5.534,22.6a5.157,5.157,0,0,1-3.229-6.643L5.377,7.338a5.272,5.272,0,0,1,4.95-3.488l.305-.2A9.8,9.8,0,0,1,25.426,8.883Z" transform="translate(-2 -2)" fill="#656d78"/>
          </g>
          <g id="Group_1202008" data-name="Group 1202008" transform="translate(40.708 25.905)">
            <path id="Path_1047025" data-name="Path 1047025" d="M46,30H57.1A5.551,5.551,0,1,1,46,30Z" transform="translate(-46 -30)" fill="#f0d0b4"/>
          </g>
          <g id="Group_1202009" data-name="Group 1202009" transform="translate(25.905 25.905)">
            <path id="Path_1047026" data-name="Path 1047026" d="M30,30H41.1A5.551,5.551,0,1,1,30,30Z" transform="translate(-30 -30)" fill="#f0d0b4"/>
          </g>
          <g id="Group_1202010" data-name="Group 1202010" transform="translate(20.974 46.26)">
            <path id="Path_1047027" data-name="Path 1047027" d="M29.6,52v1.85A3.7,3.7,0,0,1,26.5,57.5L24.67,52Z" transform="translate(-24.67 -52)" fill="#f0d0b4"/>
          </g>
          <g id="Group_1202011" data-name="Group 1202011" transform="translate(0 46.26)">
            <path id="Path_1047028" data-name="Path 1047028" d="M6.931,52,5.1,57.5A3.7,3.7,0,0,1,2,53.85V52Z" transform="translate(-2 -52)" fill="#f0d0b4"/>
          </g>
          <g id="Group_1202012" data-name="Group 1202012" transform="translate(9.252 23.389)">
            <path id="Path_1047029" data-name="Path 1047029" d="M12.629,27.28l3.072.666a7.412,7.412,0,0,0,3.072-.666L19.4,29.8v1.24a12.829,12.829,0,0,1-.241,2.461h-6.92A12.829,12.829,0,0,1,12,31.036V29.8Z" transform="translate(-12 -27.28)" fill="#f0d0b4"/>
          </g>
          <g id="Group_1202013" data-name="Group 1202013" transform="translate(5.551 7.402)">
            <path id="Path_1047030" data-name="Path 1047030" d="M22.8,13.7v5.551a7.394,7.394,0,0,1-2.35,5.412,7.563,7.563,0,0,1-1.98,1.323,7.412,7.412,0,0,1-3.072.666l-3.072-.666a7.563,7.563,0,0,1-1.98-1.323c-.065-.056-.13-.12-.185-.176A7.415,7.415,0,0,1,8,19.252V14.626A4.628,4.628,0,0,1,12.626,10H19.1A3.7,3.7,0,0,1,22.8,13.7Z" transform="translate(-8 -10)" fill="#f0d0b4"/>
          </g>
        </g>
        <g id="Group_1202015" data-name="Group 1202015" transform="translate(1 1)">
          <circle id="Ellipse_12492" data-name="Ellipse 12492" cx="1" cy="1" r="1" transform="translate(16.681 12.681)"/>
          <circle id="Ellipse_12493" data-name="Ellipse 12493" cx="1" cy="1" r="1" transform="translate(9.681 12.681)"/>
          <path id="Path_1047031" data-name="Path 1047031" d="M19.214,22.575l.1-.2-1.655-.828-.1.2a2.069,2.069,0,0,1-3.7,0l-.1-.2-1.655.828.1.194a3.919,3.919,0,0,0,7.011,0Z" transform="translate(-1.831 -2.537)"/>
          <path id="Path_1047032" data-name="Path 1047032" d="M0,0H1.85V4.137H0Z" transform="translate(12.118 7.815) rotate(-26.565)"/>
          <path id="Path_1047033" data-name="Path 1047033" d="M0,0H1.85V4.137H0Z" transform="translate(15.817 7.816) rotate(-26.565)"/>
          <path id="Path_1047034" data-name="Path 1047034" d="M56.511,41.708v-.925a8.329,8.329,0,0,0-4.8-7.53,6.476,6.476,0,1,0-7.061,0,8.367,8.367,0,0,0-3.871,3.733,8.371,8.371,0,0,0-3.871-3.733,6.476,6.476,0,1,0-7.069-.006,8.245,8.245,0,0,0-1.972,1.3,12.467,12.467,0,0,0-8.534-7.5l-.315-1.263a8.374,8.374,0,0,0,1.355-.976L24.5,23.44a6.219,6.219,0,0,0,3.971-7.759L26.237,8.53A10.73,10.73,0,0,0,10.044,2.8l-.083.056A6.19,6.19,0,0,0,4.435,6.95L1.356,15.573a6.1,6.1,0,0,0,3.815,7.839l4.208,1.4a8.358,8.358,0,0,0,1.355.976l-.315,1.263A12.47,12.47,0,0,0,1,39.116V50.035a4.6,4.6,0,0,0,2.848,4.259L2.491,58.362H27.263l-1.356-4.068a4.6,4.6,0,0,0,2.849-4.259V47.26H56.511a1.852,1.852,0,0,0,1.85-1.85v-1.85A1.852,1.852,0,0,0,56.511,41.708ZM48.185,23.2a4.635,4.635,0,0,1,4.533,3.7H43.652A4.635,4.635,0,0,1,48.185,23.2Zm-4.533,5.551h9.065a4.626,4.626,0,0,1-9.065,0Zm4.533,5.551a6.485,6.485,0,0,1,6.476,6.476v.925H41.708v-.925A6.485,6.485,0,0,1,48.185,34.307Zm-14.8-11.1a4.635,4.635,0,0,1,4.533,3.7H28.849A4.635,4.635,0,0,1,33.382,23.2Zm-4.533,5.551h9.065a4.626,4.626,0,0,1-9.065,0Zm4.533,5.551a6.485,6.485,0,0,1,6.476,6.476v.925h-11.1V39.116a12.308,12.308,0,0,0-.277-2.55,6.425,6.425,0,0,1,4.9-2.259ZM8.4,18.579V13.953a3.7,3.7,0,0,1,3.7-3.7V8.4a5.557,5.557,0,0,0-5.551,5.551v4.626A8.267,8.267,0,0,0,7.392,22.2l-1.636-.546A4.247,4.247,0,0,1,3.1,16.2L6.177,7.573A4.336,4.336,0,0,1,10.252,4.7h.28l.538-.359a8.88,8.88,0,0,1,13.4,4.74l2.234,7.151a4.372,4.372,0,0,1-2.79,5.451l-1.552.517a8.275,8.275,0,0,0,.84-3.622V12.1h-1.85v6.476a6.476,6.476,0,0,1-12.953,0Zm6.476,8.327a8.307,8.307,0,0,0,2.426-.363l.35,1.4v1.13a11.863,11.863,0,0,1-.11,1.533H12.212a11.863,11.863,0,0,1-.11-1.533v-1.13l.35-1.4A8.307,8.307,0,0,0,14.878,26.905Zm2.271,5.551a11.609,11.609,0,0,1-2.271,4.187,11.609,11.609,0,0,1-2.271-4.187Zm-6.9-3.427v.043a13.47,13.47,0,0,0,3.972,9.589l.654.654.654-.654A13.47,13.47,0,0,0,19.5,29.073V29.03a10.614,10.614,0,0,1,7.4,10.086V47.26H23.564l-.347-1.041.91-11.841-1.845-.142-.86,11.174H8.333l-.86-11.174-1.845.142.91,11.841L6.192,47.26H2.85V39.116a10.614,10.614,0,0,1,7.4-10.086ZM2.85,50.035V49.11H5.576L4.435,52.533A2.754,2.754,0,0,1,2.85,50.035ZM5.06,56.511,8.143,47.26H21.612L24.7,56.511Zm20.262-3.978L24.18,49.11h2.726v.925A2.755,2.755,0,0,1,25.321,52.533Zm31.19-7.124H28.756v-1.85H56.511Z" transform="translate(-1 -1)"/>
          <path id="Path_1047035" data-name="Path 1047035" d="M35,57h1.85v1.85H35Z" transform="translate(-3.544 -5.189)"/>
          <path id="Path_1047036" data-name="Path 1047036" d="M41,57h1.85v1.85H41Z" transform="translate(-3.992 -5.189)"/>
          <path id="Path_1047037" data-name="Path 1047037" d="M47,57h1.85v1.85H47Z" transform="translate(-4.441 -5.189)"/>
          <path id="Path_1047038" data-name="Path 1047038" d="M34.85,15.8h7.4V17.27a2.233,2.233,0,0,0,3.813,1.579L49.111,15.8h7.944a1.852,1.852,0,0,0,1.85-1.85V2.85A1.852,1.852,0,0,0,57.055,1H34.85A1.852,1.852,0,0,0,33,2.85v11.1A1.852,1.852,0,0,0,34.85,15.8Zm0-12.953h22.2v11.1h-8.71l-3.59,3.589a.4.4,0,0,1-.653-.271V13.953H34.85Z" transform="translate(-3.394 -1)"/>
          <path id="Path_1047039" data-name="Path 1047039" d="M44.695,5.293l-4.9,4.9-1.2-1.2L37.293,10.3l2.5,2.5L46,6.6Z" transform="translate(-3.715 -1.321)"/>
          <path id="Path_1047040" data-name="Path 1047040" d="M56,6.6,54.695,5.293l-4.9,4.9-1.2-1.2L47.293,10.3l2.5,2.5Z" transform="translate(-4.463 -1.321)"/>
        </g>
      </g>
    </g>
  </g>
</svg>
